<?xml version="1.0" standalone="no"?>
<!DOCTYPE svg PUBLIC "-//W3C//DTD SVG 1.1//EN" "http://www.w3.org/Graphics/SVG/1.1/DTD/svg11.dtd" >
<svg xmlns="http://www.w3.org/2000/svg" xmlns:xlink="http://www.w3.org/1999/xlink" version="1.1">
<metadata>
Created by FontForge 20191116 at Wed Jan 14 08:07:57 2015
 By Jimmy Warting
\(c\) 2014 Apple Inc. All rights reserved.
</metadata>
<defs>
<font id="SanFranciscoDisplay-Medium" horiz-adv-x="0" >
  <font-face 
    font-family="San Francisco Display"
    font-weight="500"
    font-stretch="normal"
    units-per-em="2048"
    panose-1="0 0 0 0 0 0 0 0 0 0"
    ascent="1638"
    descent="-410"
    x-height="1054"
    cap-height="1365"
    bbox="-644 -489 2048 1994"
    underline-thickness="50"
    underline-position="-75"
    stemh="170"
    stemv="204"
    unicode-range="U+000D-FB02"
  />
<missing-glyph horiz-adv-x="1293" 
d="M120 0v1365h1053v-1365h-1053zM501 313c0 -63 49 -107 120 -107c74 0 122 43 122 107c0 65 -48 108 -122 108c-72 0 -120 -44 -120 -108zM339 888h169c1 79 49 130 125 130c72 0 120 -43 120 -110c0 -51 -20 -78 -103 -138c-92 -65 -125 -129 -118 -221l1 -18h166v15
c0 64 15 87 107 153c97 70 133 130 133 218c0 151 -117 250 -296 250c-190 0 -310 -109 -304 -279z" />
    <glyph glyph-name=".notdef" horiz-adv-x="1293" 
d="M120 0v1365h1053v-1365h-1053zM501 313c0 -63 49 -107 120 -107c74 0 122 43 122 107c0 65 -48 108 -122 108c-72 0 -120 -44 -120 -108zM339 888h169c1 79 49 130 125 130c72 0 120 -43 120 -110c0 -51 -20 -78 -103 -138c-92 -65 -125 -129 -118 -221l1 -18h166v15
c0 64 15 87 107 153c97 70 133 130 133 218c0 151 -117 250 -296 250c-190 0 -310 -109 -304 -279z" />
    <glyph glyph-name=".null" 
 />
    <glyph glyph-name="CR" unicode="&#xd;" 
 />
    <glyph glyph-name="space" unicode=" " horiz-adv-x="408" 
 />
    <glyph glyph-name="exclam" unicode="!" horiz-adv-x="529" 
d="M134 102c0 74 55 123 129 123c80 0 133 -49 133 -123c0 -69 -53 -120 -133 -120c-73 0 -129 51 -129 120zM154 1365h226l-25 -956h-177z" />
    <glyph glyph-name="quotedbl" unicode="&#x22;" horiz-adv-x="850" 
d="M104 1365h223l-29 -516h-165zM523 1365h223l-29 -516h-165z" />
    <glyph glyph-name="numbersign" unicode="#" horiz-adv-x="1203" 
d="M1149 840h-215l-62 -302h204l-31 -156h-205l-77 -382h-158l77 382h-268l-78 -382h-158l76 382h-201l31 156h203l61 302h-192l30 154h194l74 371h160l-76 -371h270l74 371h158l-75 -371h214zM501 847l-65 -317h283l65 317h-283z" />
    <glyph glyph-name="dollar" unicode="$" horiz-adv-x="1114" 
d="M279 1018c0 -82 50 -147 161 -189c17 -6 34 -12 52 -17v411c-122 -15 -213 -84 -213 -205zM868 376c0 100 -51 167 -210 215c-10 2 -20 5 -30 7v-442c142 12 240 89 240 220zM628 -129h-137v126c-293 22 -427 197 -429 383h184c8 -116 91 -203 246 -223v472l-77 20
c-163 40 -320 142 -320 355c0 232 174 356 396 378v131h138v-131c223 -21 393 -157 399 -372h-180c-4 107 -85 195 -220 213v-444l80 -20c208 -52 344 -151 344 -369c0 -241 -180 -371 -424 -391v-128z" />
    <glyph glyph-name="percent" unicode="%" horiz-adv-x="1394" 
d="M155 1036v-8c0 -132 50 -221 142 -221c89 0 142 87 142 218v9c0 130 -50 218 -142 218c-95 0 -142 -93 -142 -216zM14 1018v28c0 182 105 332 283 332s283 -148 283 -335v-28c0 -181 -103 -335 -286 -335c-178 0 -280 150 -280 338zM956 344v-8c0 -131 51 -221 142 -221
c90 0 143 87 143 219v8c0 130 -50 218 -142 218c-95 0 -143 -93 -143 -216zM816 326v28c0 182 104 332 283 332c178 0 283 -148 283 -335v-27c0 -182 -103 -336 -286 -336c-179 0 -280 150 -280 338zM256 0h-167l534 695l510 670h167l-530 -690z" />
    <glyph glyph-name="ampersand" unicode="&#x26;" horiz-adv-x="1316" 
d="M1087 0l-118 127c-129 -113 -291 -154 -429 -154c-263 0 -462 146 -462 385c0 178 110 289 263 373c17 9 35 19 53 27c-90 94 -168 189 -168 313c0 172 149 306 356 306c195 0 354 -121 354 -307c0 -169 -132 -266 -286 -348l312 -339c42 79 59 195 59 343v49h178v-54
c0 -192 -34 -351 -112 -467l241 -254h-241zM454 623c-108 -60 -182 -132 -182 -251c0 -162 137 -241 286 -241c98 0 221 34 299 117l-361 397c-15 -8 -29 -14 -42 -22zM548 827c121 62 208 123 208 235c0 101 -74 168 -173 168c-103 0 -174 -71 -174 -170
c0 -69 34 -128 139 -233z" />
    <glyph glyph-name="quotesingle" unicode="'" horiz-adv-x="431" 
d="M104 1365h223l-29 -516h-165z" />
    <glyph glyph-name="parenleft" unicode="(" horiz-adv-x="635" 
d="M391 1363h174c-79 -91 -235 -359 -235 -795c0 -434 147 -682 233 -830h-182c-105 130 -254 390 -254 828c0 440 143 644 264 797z" />
    <glyph glyph-name="parenright" unicode=")" horiz-adv-x="635" 
d="M69 1363h173c121 -153 266 -357 266 -797c0 -438 -152 -698 -257 -828h-180c85 148 232 396 232 830c0 436 -156 704 -234 795z" />
    <glyph glyph-name="asterisk" unicode="*" horiz-adv-x="748" 
d="M435 750h-122l16 236l-198 -132l-62 108l213 104l-213 104l62 109l198 -135l-16 239h122l-17 -239l200 135l61 -108l-214 -105l214 -104l-61 -108l-199 132z" />
    <glyph glyph-name="plus" unicode="+" horiz-adv-x="1114" 
d="M642 461v-439h-169v439h-403v168h403v418h169v-418h404v-168h-404z" />
    <glyph glyph-name="comma" unicode="," horiz-adv-x="437" 
d="M170 -236h-148l110 444h209z" />
    <glyph glyph-name="hyphen" unicode="-" horiz-adv-x="787" 
d="M708 470h-630v180h630v-180z" />
    <glyph glyph-name="period" unicode="." horiz-adv-x="499" 
d="M124 105c0 74 56 124 125 124c72 0 128 -51 128 -124s-56 -124 -128 -124c-69 0 -125 51 -125 124z" />
    <glyph glyph-name="slash" unicode="/" horiz-adv-x="689" 
d="M191 -302h-180l490 1739h180z" />
    <glyph glyph-name="zero" unicode="0" horiz-adv-x="1167" 
d="M296 732v-100c0 -312 110 -485 288 -485c177 0 287 173 287 485v100c0 312 -110 486 -287 486c-178 0 -288 -174 -288 -486zM91 630v103c0 400 176 660 494 660c319 0 491 -259 491 -660v-103c0 -392 -170 -658 -493 -658c-318 0 -492 259 -492 658z" />
    <glyph glyph-name="one" unicode="1" horiz-adv-x="817" 
d="M632 0h-204v1150h-5c-59 -32 -241 -146 -319 -200v208c84 60 247 161 334 207h194v-1365z" />
    <glyph glyph-name="two" unicode="2" horiz-adv-x="1118" 
d="M308 978h-199v9c0 207 150 406 442 406c265 0 437 -162 437 -377c0 -175 -110 -288 -234 -432l-349 -405v-4h609v-175h-894v129l506 574c74 83 155 176 155 297c0 134 -100 221 -234 221c-151 0 -240 -110 -240 -234c0 -2 1 -8 1 -9z" />
    <glyph glyph-name="three" unicode="3" horiz-adv-x="1140" 
d="M411 619v170h134c147 0 248 92 248 222c-1 125 -95 213 -240 213c-162 0 -231 -112 -239 -210h-195c5 192 152 379 437 379c260 0 437 -151 442 -350c5 -194 -142 -311 -247 -327v-5c119 -10 291 -110 296 -331c4 -238 -213 -409 -499 -409c-305 0 -453 179 -460 391h192
c16 -122 103 -220 274 -220c183 0 287 103 285 243c-2 139 -106 234 -286 234h-142z" />
    <glyph glyph-name="four" unicode="4" horiz-adv-x="1177" 
d="M645 1365h297v-917h175v-175h-175v-273h-195v273h-662v173c167 305 370 614 560 919zM282 448h465v748h-5c-154 -233 -322 -500 -460 -746v-2z" />
    <glyph glyph-name="five" unicode="5" horiz-adv-x="1194" 
d="M129 351h195c20 -133 128 -208 278 -208c135 0 287 106 287 300c0 183 -127 297 -285 297s-244 -89 -281 -170h-177l71 797h776v-174h-606l-42 -404h5c34 47 144 117 294 117c243 0 451 -180 451 -456c0 -286 -217 -478 -503 -478c-291 0 -451 176 -463 379z" />
    <glyph glyph-name="six" unicode="6" horiz-adv-x="1145" 
d="M1033 1041h-201c-8 75 -84 179 -231 179c-175 0 -309 -171 -317 -530h6c39 98 158 200 335 200c223 0 443 -158 443 -447c0 -297 -213 -470 -478 -470c-302 0 -503 217 -503 664c0 503 215 753 521 753c263 0 411 -183 425 -349zM312 432c0 -188 133 -288 280 -288
c143 0 276 93 276 289c0 194 -137 290 -277 290c-150 0 -279 -104 -279 -291z" />
    <glyph glyph-name="seven" unicode="7" horiz-adv-x="1087" 
d="M89 1365h890v-181l-557 -1184h-216l574 1186v4h-691v175z" />
    <glyph glyph-name="eight" unicode="8" horiz-adv-x="1189" 
d="M595 134c168 0 294 101 294 249c0 149 -126 251 -294 251c-167 0 -295 -102 -295 -251c0 -148 128 -249 295 -249zM595 790c142 0 245 91 245 222c0 129 -103 217 -245 217c-141 0 -245 -88 -245 -217c0 -131 104 -222 245 -222zM591 -28c-293 0 -494 163 -494 401
c0 216 163 318 280 345v4c-102 33 -225 129 -225 307c0 211 183 364 443 364s444 -153 444 -364c0 -181 -129 -276 -226 -307v-4c118 -27 278 -131 278 -344c0 -237 -207 -402 -500 -402z" />
    <glyph glyph-name="nine" unicode="9" horiz-adv-x="1145" 
d="M104 339h200c12 -91 96 -194 252 -194c210 0 317 218 316 530h-9c-37 -103 -155 -200 -346 -200c-219 0 -427 155 -427 450s225 466 469 466c309 0 511 -198 511 -685c0 -458 -193 -731 -522 -731c-290 0 -433 198 -444 364zM847 925c0 198 -125 296 -278 296
c-142 0 -279 -95 -279 -291c0 -194 128 -289 274 -289c151 0 283 117 283 284z" />
    <glyph glyph-name="colon" unicode=":" horiz-adv-x="537" 
d="M139 812c0 74 57 124 125 124c73 0 128 -51 128 -124s-55 -124 -128 -124c-68 0 -125 51 -125 124zM139 105c0 74 57 124 125 124c73 0 128 -51 128 -124s-55 -124 -128 -124c-68 0 -125 51 -125 124z" />
    <glyph glyph-name="semicolon" unicode=";" horiz-adv-x="537" 
d="M141 812c0 74 56 124 125 124c72 0 128 -51 128 -124s-56 -124 -128 -124c-69 0 -125 51 -125 124zM204 -254h-149l107 444h208z" />
    <glyph glyph-name="less" unicode="&#x3c;" horiz-adv-x="1114" 
d="M118 440v151l876 514v-209l-655 -369v-10l655 -351v-208z" />
    <glyph glyph-name="equal" unicode="=" horiz-adv-x="1114" 
d="M990 274h-866v161h866v-161zM990 658h-866v163h866v-163z" />
    <glyph glyph-name="greater" unicode="&#x3e;" horiz-adv-x="1114" 
d="M995 591v-151l-877 -482v208l657 351v10l-657 369v209z" />
    <glyph glyph-name="question" unicode="?" horiz-adv-x="956" 
d="M323 102c0 74 55 123 129 123c80 0 133 -49 133 -123c0 -69 -53 -120 -133 -120c-73 0 -129 51 -129 120zM59 1000c-4 298 224 396 425 396c214 0 413 -113 413 -349c0 -168 -100 -250 -195 -324c-115 -89 -158 -123 -158 -237v-58h-191l-1 78c-4 145 85 232 187 310
c93 72 152 118 152 220c0 137 -104 192 -217 192c-150 0 -224 -99 -225 -228h-190z" />
    <glyph glyph-name="at" unicode="@" horiz-adv-x="1682" 
d="M1254 133c-138 0 -219 69 -235 140h-10c-19 -69 -105 -140 -222 -140c-169 0 -266 131 -266 328v97c0 190 99 323 273 323c119 0 184 -72 202 -131h8v116h154v-490c0 -76 51 -115 117 -115c94 0 181 104 181 337v34c0 291 -213 548 -586 548h-8
c-353 0 -619 -246 -619 -643v-45c0 -426 283 -627 612 -627h8c145 0 246 19 314 49v-136c-54 -25 -160 -46 -317 -46h-9c-421 0 -759 254 -759 754v57c0 469 327 770 770 770h8c474 0 733 -326 733 -676v-50c0 -274 -145 -454 -349 -454zM684 483c0 -151 64 -211 157 -211
c89 0 155 56 155 202v81c0 130 -70 196 -157 196c-88 0 -155 -65 -155 -207v-61z" />
    <glyph glyph-name="A" unicode="A" horiz-adv-x="1218" 
d="M230 0h-209l476 1365h223l476 -1365h-221l-127 391h-490zM607 1141h-7l-193 -590h392z" />
    <glyph glyph-name="B" unicode="B" horiz-adv-x="1234" 
d="M158 0v1365h531c230 0 387 -124 387 -336c0 -168 -95 -264 -224 -301v-9c184 -23 299 -147 299 -336c0 -250 -201 -383 -476 -383h-517zM363 1197v-413h199c204 0 308 63 308 210c0 140 -95 203 -221 203h-286zM363 621v-452h225c205 0 353 41 353 219
c0 156 -109 233 -273 233h-305z" />
    <glyph glyph-name="C" unicode="C" horiz-adv-x="1258" 
d="M310 764v-171c0 -305 137 -440 345 -440c203 0 308 128 308 276h201v-11c0 -208 -166 -446 -515 -446c-336 0 -546 216 -546 620v174c0 405 213 627 547 627c335 0 514 -233 514 -467v-10h-201c0 146 -108 297 -312 297c-202 0 -341 -146 -341 -449z" />
    <glyph glyph-name="D" unicode="D" horiz-adv-x="1303" 
d="M158 1365h457c440 0 604 -282 604 -681c0 -393 -158 -684 -604 -684h-457v1365zM364 1189v-1012h233c276 0 409 165 409 504c0 306 -108 508 -409 508h-233z" />
    <glyph glyph-name="E" unicode="E" horiz-adv-x="1107" 
d="M996 177v-177h-838v1365h838v-177h-633v-408h597v-170h-597v-433h633z" />
    <glyph glyph-name="F" unicode="F" horiz-adv-x="1042" 
d="M364 0h-206v1365h827v-178h-621v-437h569v-176h-569v-574z" />
    <glyph glyph-name="G" unicode="G" horiz-adv-x="1283" 
d="M1177 942h-203c-22 185 -158 271 -316 271c-192 0 -349 -129 -349 -436v-182c0 -271 114 -443 347 -443c192 0 325 119 325 282v116h-329v170h528v-279c0 -191 -130 -469 -524 -469c-373 0 -553 249 -553 623v183c0 385 219 615 559 615c329 0 501 -215 515 -451z" />
    <glyph glyph-name="H" unicode="H" horiz-adv-x="1377" 
d="M1220 0h-206v615h-650v-615h-206v1365h206v-572h650v572h206v-1365z" />
    <glyph glyph-name="I" unicode="I" horiz-adv-x="521" 
d="M364 0h-206v1365h206v-1365z" />
    <glyph glyph-name="J" unicode="J" horiz-adv-x="997" 
d="M25 338h200c4 -114 93 -180 198 -180c128 0 216 69 216 238v969h207v-956c0 -296 -172 -437 -422 -437s-399 157 -399 366z" />
    <glyph glyph-name="K" unicode="K" horiz-adv-x="1209" 
d="M1177 1365l-502 -583l527 -782h-256l-423 641l-159 -175v-466h-206v1365h206v-644h9l568 644h236z" />
    <glyph glyph-name="L" unicode="L" horiz-adv-x="999" 
d="M976 181v-181h-818v1365h206v-1184h612z" />
    <glyph glyph-name="M" unicode="M" horiz-adv-x="1600" 
d="M347 0h-185v1365h204l432 -998h5l431 998h204v-1365h-186v963h-8l-366 -830h-157l-367 830h-7v-963z" />
    <glyph glyph-name="N" unicode="N" horiz-adv-x="1368" 
d="M357 0h-199v1365h187l659 -1014h6v1014h200v-1365h-187l-660 1016h-6v-1016z" />
    <glyph glyph-name="O" unicode="O" horiz-adv-x="1324" 
d="M310 774v-194c0 -292 151 -428 351 -428c201 0 352 136 352 428v194c0 291 -151 440 -352 440c-200 0 -351 -149 -351 -440zM103 580v192c0 388 218 621 560 621c343 0 558 -233 558 -621v-192c0 -386 -219 -608 -561 -608c-343 0 -557 222 -557 608z" />
    <glyph glyph-name="P" unicode="P" horiz-adv-x="1165" 
d="M158 1365h513c271 0 443 -180 443 -435c0 -257 -173 -432 -444 -432h-307v-498h-205v1365zM363 1191v-522h192c219 0 348 50 348 261c0 166 -95 261 -258 261h-282z" />
    <glyph glyph-name="Q" unicode="Q" horiz-adv-x="1327" 
d="M104 587v190c0 387 219 616 558 616c340 0 560 -230 560 -616v-190c0 -210 -65 -372 -178 -477l183 -258h-220l-118 164c-66 -28 -143 -44 -227 -44c-339 0 -558 228 -558 615zM308 777v-191c0 -296 152 -439 352 -441c45 0 86 7 123 23l-163 226h215l91 -122
c57 71 92 175 92 314v191c0 293 -153 437 -356 437c-201 0 -354 -144 -354 -437z" />
    <glyph glyph-name="R" unicode="R" horiz-adv-x="1228" 
d="M668 1365c310 0 452 -192 452 -415c0 -224 -138 -339 -252 -381l277 -569h-233l-248 532h-302v-532h-204v1365h510zM362 701h272c178 0 273 86 273 240c0 166 -107 252 -267 252h-278v-492z" />
    <glyph glyph-name="S" unicode="S" horiz-adv-x="1172" 
d="M60 375h203c12 -124 119 -228 319 -228c182 0 294 86 294 223c0 108 -70 167 -219 204l-230 58c-170 42 -328 146 -328 364c0 259 228 400 485 400c252 0 478 -135 483 -394h-199c-11 122 -105 221 -287 221c-162 0 -275 -77 -275 -212c0 -92 62 -159 191 -190l228 -58
c207 -52 359 -149 359 -376c0 -268 -221 -415 -520 -415c-372 0 -499 221 -504 403z" />
    <glyph glyph-name="T" unicode="T" horiz-adv-x="1054" 
d="M629 0h-204v1186h-407v179h1018v-179h-407v-1186z" />
    <glyph glyph-name="U" unicode="U" horiz-adv-x="1341" 
d="M348 1365v-881c0 -205 125 -331 322 -331c196 0 324 127 324 331v881h205v-891c0 -302 -212 -502 -529 -502c-316 0 -528 203 -528 505v888h206z" />
    <glyph glyph-name="V" unicode="V" horiz-adv-x="1214" 
d="M721 0h-227l-480 1365h236l357 -1114h8l354 1114h231z" />
    <glyph glyph-name="W" unicode="W" horiz-adv-x="1698" 
d="M569 0h-187l-371 1365h233l238 -1037h7l261 1037h198l260 -1037h8l238 1037h232l-371 -1365h-187l-276 1030h-7z" />
    <glyph glyph-name="X" unicode="X" horiz-adv-x="1144" 
d="M1144 1365l-447 -688l439 -677h-243l-324 521h-11l-326 -521h-229l439 688l-433 677h245l324 -525h11l320 525h235z" />
    <glyph glyph-name="Y" unicode="Y" horiz-adv-x="1108" 
d="M656 0h-205v565l-456 800h232l324 -597h7l327 597h228l-457 -797v-568z" />
    <glyph glyph-name="Z" unicode="Z" horiz-adv-x="1156" 
d="M83 0v141l708 1041v6h-685v177h937v-139l-703 -1042v-6h721v-178h-978z" />
    <glyph glyph-name="bracketleft" unicode="[" horiz-adv-x="668" 
d="M127 1365h463v-150h-270v-1293h283v-150h-476v1593z" />
    <glyph glyph-name="backslash" unicode="\" horiz-adv-x="689" 
d="M681 -302h-180l-490 1739h180z" />
    <glyph glyph-name="bracketright" unicode="]" horiz-adv-x="668" 
d="M78 1365h463v-1593h-475v150h283v1293h-271v150z" />
    <glyph glyph-name="asciicircum" unicode="^" horiz-adv-x="795" 
d="M751 795h-173l-177 408h-7l-179 -408h-171l262 570h185z" />
    <glyph glyph-name="underscore" unicode="_" horiz-adv-x="846" 
d="M873 -260h-901v157h901v-157z" />
    <glyph glyph-name="grave" unicode="`" horiz-adv-x="946" 
d="M588 1215h-164l-237 277h208z" />
    <glyph glyph-name="a" unicode="a" horiz-adv-x="1072" 
d="M733 138c-49 -82 -145 -155 -301 -155c-204 0 -344 124 -344 319c0 186 129 309 371 309h271v118c0 123 -73 175 -204 175c-134 0 -195 -62 -205 -158h-194c9 185 129 325 407 325c239 0 398 -100 398 -344v-727h-192v138h-7zM491 143c136 0 239 92 239 214v111h-243
c-135 0 -195 -65 -195 -156c0 -116 96 -169 199 -169z" />
    <glyph glyph-name="b" unicode="b" horiz-adv-x="1166" 
d="M658 -16c-165 0 -269 78 -308 176h-7v-160h-195v1437h202v-531h6c44 81 125 164 307 164c262 0 407 -191 407 -483v-117c0 -308 -154 -486 -412 -486zM610 154c151 0 254 112 254 325v91c0 214 -96 332 -254 332c-161 0 -260 -136 -260 -321v-111
c0 -164 81 -316 260 -316z" />
    <glyph glyph-name="c" unicode="c" horiz-adv-x="1040" 
d="M95 473v113c0 278 160 486 448 486c264 0 410 -164 412 -339h-193c-9 76 -81 171 -215 171c-172 0 -250 -144 -250 -323v-109c0 -181 91 -315 250 -315c138 0 204 70 222 150h193c-6 -174 -164 -325 -419 -325c-288 0 -448 201 -448 491z" />
    <glyph glyph-name="d" unicode="d" horiz-adv-x="1168" 
d="M505 1071c165 0 270 -74 305 -165h6v531h202v-1437h-195v160h-7c-26 -90 -140 -175 -311 -175c-266 0 -409 193 -409 479v127c0 281 142 480 409 480zM555 901c-173 0 -254 -138 -254 -336v-74c0 -202 83 -338 258 -338c161 0 257 122 257 336v82c0 203 -97 330 -261 330
z" />
    <glyph glyph-name="e" unicode="e" horiz-adv-x="1075" 
d="M554 -18c-303 0 -459 200 -459 495v93c0 296 156 502 446 502c294 0 444 -206 444 -500v-92h-689v-30c0 -157 79 -301 257 -301c140 0 202 73 218 148h201c-20 -137 -133 -315 -418 -315zM296 628h490v3c0 161 -91 278 -245 278c-153 0 -245 -118 -245 -278v-3z" />
    <glyph glyph-name="f" unicode="f" horiz-adv-x="701" 
d="M214 0v887h-151v163h151v105c0 205 104 296 330 296c44 0 71 -4 90 -6v-156c-15 1 -28 3 -58 3c-109 0 -163 -35 -163 -153v-89h205v-163h-202v-887h-202z" />
    <glyph glyph-name="g" unicode="g" horiz-adv-x="1134" 
d="M538 -230c178 0 266 92 266 253v153h-7c-41 -91 -153 -165 -301 -165c-233 0 -412 173 -412 461v132c0 284 175 466 415 466c174 0 263 -81 304 -164h6v148h196v-1033c0 -293 -204 -415 -474 -415c-289 0 -416 153 -424 312h203c11 -78 82 -148 228 -148zM553 902
c-163 0 -265 -125 -265 -322v-94c0 -198 111 -311 267 -311c160 0 248 136 248 301v105c0 180 -93 321 -250 321z" />
    <glyph glyph-name="h" unicode="h" horiz-adv-x="1177" 
d="M149 0v1437h202v-526h8c30 69 120 160 293 160c233 0 385 -166 385 -410v-661h-202v617c0 168 -84 276 -237 276s-247 -99 -247 -276v-617h-202z" />
    <glyph glyph-name="i" unicode="i" horiz-adv-x="541" 
d="M170 0v1054h201v-1054h-201zM145 1312c0 67 53 116 124 116c75 0 127 -49 127 -116s-51 -117 -127 -117c-71 0 -124 50 -124 117z" />
    <glyph glyph-name="j" unicode="j" horiz-adv-x="541" 
d="M145 1312c0 67 53 116 124 116c75 0 127 -49 127 -116s-51 -117 -127 -117c-71 0 -124 50 -124 117zM371 1054v-1080c0 -244 -118 -346 -306 -346c-34 0 -86 5 -102 9v154c15 -3 41 -5 63 -5c104 0 144 58 144 190v1078h201z" />
    <glyph glyph-name="k" unicode="k" horiz-adv-x="1041" 
d="M350 382v-382h-202v1437h202v-848h9l406 465h231l-405 -457l432 -597h-239l-343 476z" />
    <glyph glyph-name="l" unicode="l" horiz-adv-x="507" 
d="M153 0v1437h201v-1437h-201z" />
    <glyph glyph-name="m" unicode="m" horiz-adv-x="1749" 
d="M146 0v1054h199v-136h10c33 73 125 153 270 153c164 0 262 -68 301 -173h9c38 90 149 173 322 173c222 0 351 -138 351 -353v-718h-201v671c0 134 -75 224 -213 224c-139 0 -218 -96 -218 -238v-657h-198v657c0 158 -83 238 -215 238c-120 0 -216 -81 -216 -236v-659
h-201z" />
    <glyph glyph-name="n" unicode="n" horiz-adv-x="1171" 
d="M146 0v1054h199v-143h7c38 81 144 160 303 160c210 0 375 -129 375 -372v-699h-203v630c0 181 -85 263 -237 263c-153 0 -243 -93 -243 -270v-623h-201z" />
    <glyph glyph-name="o" unicode="o" horiz-adv-x="1115" 
d="M558 1072c313 0 462 -208 462 -503v-81c0 -301 -149 -506 -462 -506s-463 202 -463 506v80c0 287 150 504 463 504zM558 906c-199 0 -261 -166 -261 -350v-57c0 -186 61 -349 261 -349s258 163 258 349v57c0 184 -59 350 -258 350z" />
    <glyph glyph-name="p" unicode="p" horiz-adv-x="1164" 
d="M660 -16c-165 0 -259 74 -304 160h-7v-506h-202v1417h195v-149h7c42 95 149 164 317 164c237 0 400 -173 400 -475v-137c0 -301 -161 -474 -406 -474zM610 154c148 0 252 108 252 326v95c0 212 -97 327 -256 327c-160 0 -257 -127 -257 -312v-119
c0 -174 95 -317 261 -317z" />
    <glyph glyph-name="q" unicode="q" horiz-adv-x="1163" 
d="M504 1070c163 0 265 -67 310 -164h7v148h195v-1416h-202v506h-7c-43 -92 -150 -160 -306 -160c-253 0 -405 182 -405 475v140c0 286 160 471 408 471zM556 900c-167 0 -255 -121 -255 -324v-98c0 -204 95 -326 257 -326c170 0 256 146 256 322v104
c0 199 -95 322 -258 322z" />
    <glyph glyph-name="r" unicode="r" horiz-adv-x="724" 
d="M161 0v1054h201v-130h7c29 64 82 146 256 146c26 0 50 -2 70 -5v-181c-18 4 -55 6 -90 6c-181 0 -240 -108 -240 -250v-640h-204z" />
    <glyph glyph-name="s" unicode="s" horiz-adv-x="998" 
d="M98 750c0 226 191 322 401 322c248 0 384 -136 384 -318h-184c-6 76 -55 167 -206 167c-118 0 -200 -56 -200 -152c0 -122 146 -137 264 -158c197 -35 354 -94 354 -296c0 -211 -168 -333 -428 -333c-243 0 -404 117 -404 306h196c13 -90 86 -153 217 -153
c157 0 222 70 222 156c0 114 -119 134 -264 162c-194 40 -352 90 -352 297z" />
    <glyph glyph-name="t" unicode="t" horiz-adv-x="683" 
d="M202 1050v264h199v-264h207v-163h-207v-581c0 -120 42 -152 165 -152c19 0 35 1 48 2v-157c-17 -3 -56 -7 -98 -7c-253 0 -316 94 -316 304v591h-145v163h147z" />
    <glyph glyph-name="u" unicode="u" horiz-adv-x="1166" 
d="M1020 1054v-1054h-199v143h-9c-36 -83 -134 -160 -304 -160c-218 0 -370 125 -370 369v702h203v-646c0 -190 108 -247 235 -247c141 0 241 89 241 250v643h203z" />
    <glyph glyph-name="v" unicode="v" horiz-adv-x="1002" 
d="M388 0l-366 1054h222l247 -853h8l267 853h214l-378 -1054h-214z" />
    <glyph glyph-name="w" unicode="w" horiz-adv-x="1493" 
d="M1465 1054l-279 -1054h-203l-229 792h-5l-224 -792h-205l-292 1054h221l177 -815h9l221 815h190l228 -815h8l182 815h201z" />
    <glyph glyph-name="x" unicode="x" horiz-adv-x="1034" 
d="M752 0l-236 382h-8l-237 -382h-222l346 522l-351 532h238l230 -380h9l237 380h227l-354 -517l355 -537h-234z" />
    <glyph glyph-name="y" unicode="y" horiz-adv-x="1052" 
d="M1009 1054c0 0 -365 -1044 -366 -1048l-27 -73c-63 -167 -145 -315 -381 -315c-44 0 -93 5 -119 9v157c16 -3 55 -5 80 -5c127 0 177 58 202 160l14 50l-381 1065h224l264 -864h9l266 864h215z" />
    <glyph glyph-name="z" unicode="z" horiz-adv-x="977" 
d="M92 0v128l544 755v11h-544v160h792v-133l-537 -749v-10h545v-162h-800z" />
    <glyph glyph-name="braceleft" unicode="{" horiz-adv-x="737" 
d="M260 596v-24c117 -11 178 -86 178 -227v-297c0 -145 53 -207 215 -207h41v-154h-69c-241 0 -376 94 -376 342v254c0 138 -32 200 -166 200v201c134 0 166 63 166 201v223c0 246 135 334 376 334h69v-154h-41c-162 0 -215 -62 -215 -207v-264c0 -142 -61 -210 -178 -221z
" />
    <glyph glyph-name="bar" unicode="|" horiz-adv-x="676" 
d="M426 -305h-175v1742h175v-1742z" />
    <glyph glyph-name="braceright" unicode="}" horiz-adv-x="737" 
d="M477 572v24c-115 11 -177 79 -177 221v264c0 145 -55 207 -216 207h-41v154h69c241 0 376 -88 376 -334v-223c0 -138 32 -201 166 -201v-201c-134 0 -166 -62 -166 -200v-254c0 -248 -135 -342 -376 -342h-69v154h41c161 0 216 62 216 207v297c0 141 62 216 177 227z" />
    <glyph glyph-name="asciitilde" unicode="~" horiz-adv-x="1114" 
d="M750 487c-88 0 -156 41 -231 112c-51 48 -99 97 -153 97c-94 0 -125 -81 -130 -168h-167c0 182 79 344 294 344c87 0 156 -39 230 -110c49 -50 98 -96 154 -96c93 0 125 78 130 167h166c0 -182 -82 -346 -293 -346z" />
    <glyph glyph-name="nonbreakingspace" unicode="&#xa0;" horiz-adv-x="408" 
 />
    <glyph glyph-name="exclamdown" unicode="&#xa1;" horiz-adv-x="529" 
d="M376 -276h-226l25 956h177zM397 983c0 -70 -53 -121 -133 -121c-73 0 -129 51 -129 121c0 73 56 122 129 122c80 0 133 -49 133 -122z" />
    <glyph glyph-name="cent" unicode="&#xa2;" horiz-adv-x="1114" 
d="M985 455c-5 -152 -125 -293 -344 -315v-226h-159v226c-219 25 -371 190 -371 457v169c0 259 153 426 371 451v240h159v-240c214 -24 333 -177 337 -326h-191c-10 63 -65 168 -225 168c-167 0 -258 -121 -258 -297v-167c0 -178 100 -289 259 -289c151 0 214 72 230 149
h192z" />
    <glyph glyph-name="sterling" unicode="&#xa3;" horiz-adv-x="1114" 
d="M1049 167v-167h-955v176c114 4 170 22 170 245v197h-189v150h189v280c0 224 170 344 393 344c235 0 379 -126 384 -331h-189c-6 91 -75 164 -195 164c-137 0 -197 -92 -197 -199v-258h296v-150h-296v-205c-1 -115 -16 -200 -73 -234v-12h662z" />
    <glyph glyph-name="currency" unicode="&#xa4;" horiz-adv-x="1114" 
d="M933 158l-172 171c-59 -37 -129 -59 -204 -59c-77 0 -149 23 -209 63l-174 -175l-110 110l173 174c-41 61 -65 133 -65 212c0 76 22 147 61 206l-169 169l111 111l167 -168c61 42 135 66 215 66c77 0 150 -23 210 -63l165 165l110 -111l-164 -165c39 -60 63 -133 63 -210
c0 -80 -25 -155 -68 -217l169 -169zM319 654c0 -131 106 -237 238 -237c130 0 238 106 238 237s-108 238 -238 238c-132 0 -238 -107 -238 -238z" />
    <glyph glyph-name="yen" unicode="&#xa5;" horiz-adv-x="1114" 
d="M949 261h-289v-261h-205v261h-287v137h287v139h-287v137h227l-396 691h232l322 -597h10l325 597h229l-397 -691h229v-137h-289v-139h289v-137z" />
    <glyph glyph-name="brokenbar" unicode="&#xa6;" horiz-adv-x="463" 
d="M319 782h-175v655h175v-655zM319 -305h-175v682h175v-682z" />
    <glyph glyph-name="section" unicode="&#xa7;" horiz-adv-x="931" 
d="M668 72c0 118 -120 143 -260 179c-179 45 -326 113 -326 303c0 133 93 207 168 246v7c-79 45 -162 117 -162 256c0 219 182 331 384 331c225 0 373 -135 373 -316h-178c-4 69 -69 158 -201 158c-112 0 -187 -66 -187 -163c0 -121 125 -150 254 -180
c165 -39 334 -93 334 -303c0 -123 -79 -208 -152 -256v-7c73 -46 146 -109 146 -236c0 -209 -166 -343 -402 -343c-217 0 -392 117 -393 314h183c14 -93 85 -154 212 -154c149 0 207 79 207 164zM566 380c64 26 113 103 113 179c0 104 -83 151 -211 179c-22 5 -50 11 -74 16
c-56 -17 -125 -89 -125 -176c0 -107 87 -147 207 -177c29 -8 59 -14 90 -21z" />
    <glyph glyph-name="dieresis" unicode="&#xa8;" horiz-adv-x="946" 
d="M179 1320c0 61 43 103 101 103c60 0 102 -42 102 -103c0 -58 -42 -101 -102 -101c-58 0 -101 43 -101 101zM542 1320c0 61 42 103 100 103c61 0 103 -42 103 -103c0 -58 -42 -101 -103 -101c-58 0 -100 43 -100 101z" />
    <glyph glyph-name="copyright" unicode="&#xa9;" horiz-adv-x="1640" 
d="M500 632v99c0 212 133 332 331 332c193 0 301 -128 304 -253h-138c-8 49 -45 127 -165 127c-124 0 -191 -69 -191 -212v-94c0 -138 75 -202 191 -202c113 0 157 50 170 109h138c-4 -120 -104 -241 -309 -241c-198 0 -331 117 -331 335zM231 641c0 -338 237 -583 594 -583
s597 245 597 583v106c0 311 -243 561 -597 561s-594 -249 -594 -561v-106zM825 -64c-426 0 -720 302 -720 708v103c0 382 300 685 720 685c421 0 720 -307 720 -685v-103c0 -406 -293 -708 -720 -708z" />
    <glyph glyph-name="ordfeminine" unicode="&#xaa;" horiz-adv-x="641" 
d="M263 775c-119 0 -198 65 -198 176c0 106 71 174 215 174h147v51c0 60 -41 87 -106 87c-63 0 -94 -23 -101 -59h-132c7 95 77 167 237 167c137 0 242 -52 242 -197v-390h-133v74h-7c-25 -44 -75 -83 -164 -83zM307 878c66 0 120 42 120 101v56h-120
c-70 1 -105 -29 -105 -75c0 -56 50 -82 105 -82z" />
    <glyph glyph-name="guillemotleft" unicode="&#xab;" horiz-adv-x="1265" 
d="M589 565l344 404h212l-339 -403v-6l339 -405h-221l-335 402v8zM105 565l344 404h212l-339 -403v-6l339 -405h-221l-335 402v8z" />
    <glyph glyph-name="logicalnot" unicode="&#xac;" horiz-adv-x="1114" 
d="M1043 95h-176v367h-798v164h974v-531z" />
    <glyph glyph-name="registered" unicode="&#xae;" horiz-adv-x="1158" 
d="M580 414c-284 0 -490 201 -490 471v69c0 254 210 456 490 456s491 -204 491 -456v-69c0 -270 -205 -471 -491 -471zM580 513c227 0 391 158 391 372v68c0 199 -165 360 -391 360s-390 -160 -390 -360v-68c0 -214 163 -372 390 -372zM503 1086v-148h78c46 0 98 9 98 74
c0 49 -35 74 -86 74h-90zM503 683h-100v479h225c91 0 155 -64 155 -147c0 -70 -42 -126 -95 -141l110 -191h-117l-95 180h-83v-180z" />
    <glyph glyph-name="macron" unicode="&#xaf;" horiz-adv-x="946" 
d="M746 1250h-558v118h558v-118z" />
    <glyph glyph-name="degree" unicode="&#xb0;" horiz-adv-x="543" 
d="M273 925c-128 0 -230 102 -230 230c0 127 101 229 230 229c127 0 229 -102 229 -229c0 -128 -103 -230 -229 -230zM273 1042c63 0 112 52 112 113c0 63 -49 113 -112 113c-61 0 -113 -50 -113 -113c0 -61 52 -113 113 -113z" />
    <glyph glyph-name="plusminus" unicode="&#xb1;" horiz-adv-x="1114" 
d="M639 653v-277h-169v277h-392v159h392v262h169v-262h395v-159h-395zM1036 104h-956v162h956v-162z" />
    <glyph glyph-name="twosuperior" unicode="&#xb2;" horiz-adv-x="640" 
d="M213 1156h-138v11c0 105 76 211 237 211c142 0 234 -84 234 -195c0 -94 -67 -162 -119 -215l-157 -153v-2h288v-121h-471v92l243 257c34 35 74 80 74 131c0 53 -41 87 -95 87c-61 0 -96 -43 -96 -92v-11z" />
    <glyph glyph-name="threesuperior" unicode="&#xb3;" horiz-adv-x="649" 
d="M237 980v115h76c58 0 96 36 96 86s-39 83 -95 83c-62 0 -97 -39 -100 -82h-134c4 107 86 196 236 196c137 0 231 -72 231 -177c0 -78 -53 -136 -123 -155v-2c77 -13 145 -62 145 -159c0 -126 -112 -205 -253 -205c-160 0 -245 98 -248 199h133c4 -46 46 -83 112 -83
c68 0 114 40 114 93c0 52 -42 91 -112 91h-78z" />
    <glyph glyph-name="acute" unicode="&#xb4;" horiz-adv-x="946" 
d="M384 1213h-163l190 279h208z" />
    <glyph glyph-name="paragraph" unicode="&#xb6;" horiz-adv-x="1291" 
d="M760 -210h-196v712h-20c-173 0 -447 115 -447 431c0 344 274 432 448 432h215v-1575zM920 -210v1575h196v-1575h-196z" />
    <glyph glyph-name="periodcentered" unicode="&#xb7;" horiz-adv-x="606" 
d="M151 726c0 74 56 124 125 124c72 0 128 -51 128 -124s-56 -124 -128 -124c-69 0 -125 51 -125 124z" />
    <glyph glyph-name="cedilla" unicode="&#xb8;" horiz-adv-x="946" 
d="M352 -235v86l59 157h131l-53 -140c125 0 207 -55 207 -163c0 -129 -101 -185 -229 -190c-63 -3 -122 7 -149 15v110c27 -8 81 -13 114 -13c54 0 116 15 116 73c0 63 -67 65 -143 65h-53z" />
    <glyph glyph-name="onesuperior" unicode="&#xb9;" horiz-adv-x="586" 
d="M422 692h-145v531h-6l-153 -113v135l159 120h145v-673z" />
    <glyph glyph-name="ordmasculine" unicode="&#xba;" horiz-adv-x="638" 
d="M320 1261c-86 0 -131 -68 -131 -158v-62c0 -90 41 -158 131 -158c89 0 130 68 130 158v62c0 90 -44 158 -130 158zM320 1371c161 0 271 -101 271 -264v-68c0 -171 -110 -267 -271 -267c-163 0 -272 95 -272 267v68c0 159 111 264 272 264z" />
    <glyph glyph-name="guillemotright" unicode="&#xbb;" horiz-adv-x="1265" 
d="M1153 565v-8l-335 -402h-221l339 405v6l-339 403h212zM669 565v-8l-335 -402h-221l339 405v6l-339 403h212z" />
    <glyph glyph-name="onequarter" unicode="&#xbc;" horiz-adv-x="1353" 
d="M910 230h198v329h-7c-69 -106 -128 -212 -191 -326v-3zM1042 674h195v-444h80v-112h-80v-118h-129v118h-334v109c82 149 177 299 268 447zM335 692h-145v531h-6l-153 -113v135l159 120h145v-673zM224 0h-167l534 695l510 670h167l-530 -690z" />
    <glyph glyph-name="onehalf" unicode="&#xbd;" horiz-adv-x="1368" 
d="M1012 452h-141v11c0 107 77 214 241 214c145 0 238 -85 238 -198c0 -95 -68 -164 -121 -218l-160 -155v-2h293v-123h-479v93l247 261c35 36 76 81 76 133c0 54 -42 89 -97 89c-62 0 -97 -44 -97 -94v-11zM335 692h-145v531h-6l-153 -113v135l159 120h145v-673zM224 0
h-167l534 695l510 670h167l-530 -690z" />
    <glyph glyph-name="threequarters" unicode="&#xbe;" horiz-adv-x="1402" 
d="M959 232h197v327h-6c-70 -106 -128 -210 -191 -324v-3zM1091 674h196v-442h79v-114h-79v-118h-131v118h-333v109c81 149 176 299 268 447zM193 961v116h77c59 0 97 36 97 87s-39 84 -96 84c-63 0 -98 -39 -101 -83h-136c4 108 87 198 239 198c139 0 234 -72 234 -179
c0 -79 -54 -137 -125 -157v-2c78 -13 147 -62 147 -160c0 -128 -113 -208 -256 -208c-162 0 -248 99 -251 201h134c5 -46 47 -84 114 -84c69 0 115 41 115 95c0 52 -42 92 -113 92h-79zM272 0h-167l534 695l510 670h167l-530 -690z" />
    <glyph glyph-name="questiondown" unicode="&#xbf;" horiz-adv-x="956" 
d="M634 968c0 -69 -54 -120 -133 -120c-74 0 -129 51 -129 120c0 74 55 123 129 123c79 0 133 -49 133 -123zM897 73c3 -298 -225 -396 -425 -396c-214 0 -414 113 -414 349c0 168 100 250 195 324c116 90 158 123 158 237v58h192v-78c4 -145 -84 -232 -187 -310
c-93 -71 -152 -118 -152 -220c0 -137 105 -192 217 -192c151 0 225 100 225 228h191z" />
    <glyph glyph-name="Agrave" unicode="&#xc0;" horiz-adv-x="1218" 
d="M230 0h-209l476 1365h223l476 -1365h-221l-127 391h-490zM607 1141h-7l-193 -590h392zM725 1510h-175l-292 203h215z" />
    <glyph glyph-name="Aacute" unicode="&#xc1;" horiz-adv-x="1218" 
d="M230 0h-209l476 1365h223l476 -1365h-221l-127 391h-490zM607 1141h-7l-193 -590h392zM493 1510l255 206h219l-296 -206h-178z" />
    <glyph glyph-name="Acircumflex" unicode="&#xc2;" horiz-adv-x="1218" 
d="M230 0h-209l476 1365h223l476 -1365h-221l-127 391h-490zM607 1141h-7l-193 -590h392zM277 1507l277 238h119l274 -238h-176l-155 140h-8l-155 -140h-176z" />
    <glyph glyph-name="Atilde" unicode="&#xc3;" horiz-adv-x="1218" 
d="M230 0h-209l476 1365h223l476 -1365h-221l-127 391h-490zM607 1141h-7l-193 -590h392zM585 1538c-22 22 -45 49 -78 49c-52 0 -62 -50 -64 -91h-116c0 100 52 199 170 199c61 0 99 -25 142 -66c27 -24 44 -49 78 -49c46 0 63 59 66 99h116c0 -98 -65 -200 -171 -200
c-75 0 -109 26 -143 59z" />
    <glyph glyph-name="Adieresis" unicode="&#xc4;" horiz-adv-x="1218" 
d="M230 0h-209l476 1365h223l476 -1365h-221l-127 391h-490zM607 1141h-7l-193 -590h392zM388 1583c0 53 38 91 90 91c53 0 90 -38 90 -91c0 -51 -37 -90 -90 -90c-52 0 -90 39 -90 90zM697 1583c0 53 37 91 89 91c54 0 90 -38 90 -91c0 -51 -36 -90 -90 -90
c-52 0 -89 39 -89 90z" />
    <glyph glyph-name="Aring" unicode="&#xc5;" horiz-adv-x="1219" 
d="M499 1502c0 -59 49 -107 108 -107s107 48 107 107c0 60 -48 107 -107 107s-108 -47 -108 -107zM800 551l-191 590h-9l-192 -590h392zM230 0h-208l465 1329c-59 35 -98 100 -98 174c0 119 97 214 218 214c119 0 216 -95 216 -214c0 -72 -38 -134 -92 -168l466 -1335h-221
l-127 391h-490z" />
    <glyph glyph-name="AE" unicode="&#xc6;" horiz-adv-x="1864" 
d="M851 1188l-316 -618h387v618h-71zM922 405h-468l-212 -405h-230l719 1365h1021v-177h-626v-408h590v-170h-590v-433h626v-177h-830v405z" />
    <glyph glyph-name="Ccedilla" unicode="&#xc7;" horiz-adv-x="1258" 
d="M641 -485c-63 -3 -122 7 -150 15v110c27 -8 82 -13 115 -13c54 0 116 15 116 73c0 63 -67 65 -143 65h-53v86l47 125c-292 31 -470 244 -470 616v174c0 405 213 627 547 627c335 0 514 -233 514 -467v-10h-201c0 146 -108 297 -312 297c-202 0 -341 -146 -341 -449v-171
c0 -305 137 -440 345 -440c203 0 308 128 308 276h201v-11c0 -196 -147 -421 -461 -443l-40 -107c124 0 207 -55 207 -163c0 -129 -101 -185 -229 -190z" />
    <glyph glyph-name="Egrave" unicode="&#xc8;" horiz-adv-x="1107" 
d="M687 1510h-175l-292 203h215zM996 177v-177h-838v1365h838v-177h-633v-408h597v-170h-597v-433h633z" />
    <glyph glyph-name="Eacute" unicode="&#xc9;" horiz-adv-x="1107" 
d="M455 1510l255 206h219l-296 -206h-178zM996 177v-177h-838v1365h838v-177h-633v-408h597v-170h-597v-433h633z" />
    <glyph glyph-name="Ecircumflex" unicode="&#xca;" horiz-adv-x="1107" 
d="M239 1507l277 238h119l274 -238h-176l-155 140h-8l-155 -140h-176zM996 177v-177h-838v1365h838v-177h-633v-408h597v-170h-597v-433h633z" />
    <glyph glyph-name="Edieresis" unicode="&#xcb;" horiz-adv-x="1107" 
d="M350 1583c0 53 38 91 90 91c53 0 90 -38 90 -91c0 -51 -37 -90 -90 -90c-52 0 -90 39 -90 90zM659 1583c0 53 37 91 89 91c54 0 90 -38 90 -91c0 -51 -36 -90 -90 -90c-52 0 -89 39 -89 90zM996 177v-177h-838v1365h838v-177h-633v-408h597v-170h-597v-433h633z" />
    <glyph glyph-name="Igrave" unicode="&#xcc;" horiz-adv-x="521" 
d="M364 0h-206v1365h206v-1365zM376 1510h-175l-292 203h215z" />
    <glyph glyph-name="Iacute" unicode="&#xcd;" horiz-adv-x="521" 
d="M364 0h-206v1365h206v-1365zM144 1510l255 206h219l-296 -206h-178z" />
    <glyph glyph-name="Icircumflex" unicode="&#xce;" horiz-adv-x="521" 
d="M364 0h-206v1365h206v-1365zM-72 1507l277 238h119l274 -238h-176l-155 140h-8l-155 -140h-176z" />
    <glyph glyph-name="Idieresis" unicode="&#xcf;" horiz-adv-x="521" 
d="M364 0h-206v1365h206v-1365zM39 1583c0 53 38 91 90 91c53 0 90 -38 90 -91c0 -51 -37 -90 -90 -90c-52 0 -90 39 -90 90zM348 1583c0 53 37 91 89 91c54 0 90 -38 90 -91c0 -51 -36 -90 -90 -90c-52 0 -89 39 -89 90z" />
    <glyph glyph-name="Eth" unicode="&#xd0;" horiz-adv-x="1384" 
d="M696 0h-457v607h-162v179h162v579h457c440 0 604 -282 604 -681c0 -393 -158 -684 -604 -684zM444 179h233c277 0 409 165 409 504c0 306 -108 508 -409 508h-233v-405h288v-179h-288v-428z" />
    <glyph glyph-name="Ntilde" unicode="&#xd1;" horiz-adv-x="1368" 
d="M659 1538c-22 22 -45 49 -78 49c-52 0 -62 -50 -64 -91h-116c0 100 52 199 170 199c61 0 99 -25 142 -66c27 -24 44 -49 78 -49c46 0 63 59 66 99h116c0 -98 -65 -200 -171 -200c-75 0 -109 26 -143 59zM357 0h-199v1365h187l659 -1014h6v1014h200v-1365h-187l-660 1016
h-6v-1016z" />
    <glyph glyph-name="Ograve" unicode="&#xd2;" horiz-adv-x="1324" 
d="M777 1510h-175l-292 203h215zM310 774v-194c0 -292 151 -428 351 -428c201 0 352 136 352 428v194c0 291 -151 440 -352 440c-200 0 -351 -149 -351 -440zM103 580v192c0 388 218 621 560 621c343 0 558 -233 558 -621v-192c0 -386 -219 -608 -561 -608
c-343 0 -557 222 -557 608z" />
    <glyph glyph-name="Oacute" unicode="&#xd3;" horiz-adv-x="1324" 
d="M545 1510l255 206h219l-296 -206h-178zM310 774v-194c0 -292 151 -428 351 -428c201 0 352 136 352 428v194c0 291 -151 440 -352 440c-200 0 -351 -149 -351 -440zM103 580v192c0 388 218 621 560 621c343 0 558 -233 558 -621v-192c0 -386 -219 -608 -561 -608
c-343 0 -557 222 -557 608z" />
    <glyph glyph-name="Ocircumflex" unicode="&#xd4;" horiz-adv-x="1324" 
d="M329 1507l277 238h119l274 -238h-176l-155 140h-8l-155 -140h-176zM310 774v-194c0 -292 151 -428 351 -428c201 0 352 136 352 428v194c0 291 -151 440 -352 440c-200 0 -351 -149 -351 -440zM103 580v192c0 388 218 621 560 621c343 0 558 -233 558 -621v-192
c0 -386 -219 -608 -561 -608c-343 0 -557 222 -557 608z" />
    <glyph glyph-name="Otilde" unicode="&#xd5;" horiz-adv-x="1324" 
d="M310 774v-194c0 -292 151 -428 351 -428c201 0 352 136 352 428v194c0 291 -151 440 -352 440c-200 0 -351 -149 -351 -440zM103 580v192c0 388 218 621 560 621c343 0 558 -233 558 -621v-192c0 -386 -219 -608 -561 -608c-343 0 -557 222 -557 608zM637 1538
c-22 22 -45 49 -78 49c-52 0 -62 -50 -64 -91h-116c0 100 52 199 170 199c61 0 99 -25 142 -66c27 -24 44 -49 78 -49c46 0 63 59 66 99h116c0 -98 -65 -200 -171 -200c-75 0 -109 26 -143 59z" />
    <glyph glyph-name="Odieresis" unicode="&#xd6;" horiz-adv-x="1324" 
d="M440 1583c0 53 38 91 90 91c53 0 90 -38 90 -91c0 -51 -37 -90 -90 -90c-52 0 -90 39 -90 90zM749 1583c0 53 37 91 89 91c54 0 90 -38 90 -91c0 -51 -36 -90 -90 -90c-52 0 -89 39 -89 90zM310 774v-194c0 -292 151 -428 351 -428c201 0 352 136 352 428v194
c0 291 -151 440 -352 440c-200 0 -351 -149 -351 -440zM103 580v192c0 388 218 621 560 621c343 0 558 -233 558 -621v-192c0 -386 -219 -608 -561 -608c-343 0 -557 222 -557 608z" />
    <glyph glyph-name="multiply" unicode="&#xd7;" horiz-adv-x="1114" 
d="M867 72l-310 310l-311 -310l-120 121l310 310l-310 310l120 120l311 -310l310 310l120 -120l-310 -310l310 -310z" />
    <glyph glyph-name="Oslash" unicode="&#xd8;" horiz-adv-x="1324" 
d="M660 -28c-156 0 -286 47 -380 136l-100 -124l-105 86l116 145c-57 96 -88 219 -88 365v192c0 388 218 621 560 621c151 0 279 -47 373 -133l95 118l109 -79l-116 -144c63 -100 97 -229 97 -383v-192c0 -386 -219 -608 -561 -608zM308 579c0 -72 10 -135 28 -186l576 714
c-63 72 -151 109 -251 109c-202 0 -353 -149 -353 -442v-195zM661 149c203 0 354 136 354 430v195c0 79 -12 148 -34 204l-578 -718c63 -75 154 -111 258 -111z" />
    <glyph glyph-name="Ugrave" unicode="&#xd9;" horiz-adv-x="1341" 
d="M786 1510h-175l-292 203h215zM348 1365v-881c0 -205 125 -331 322 -331c196 0 324 127 324 331v881h205v-891c0 -302 -212 -502 -529 -502c-316 0 -528 203 -528 505v888h206z" />
    <glyph glyph-name="Uacute" unicode="&#xda;" horiz-adv-x="1341" 
d="M554 1510l255 206h219l-296 -206h-178zM348 1365v-881c0 -205 125 -331 322 -331c196 0 324 127 324 331v881h205v-891c0 -302 -212 -502 -529 -502c-316 0 -528 203 -528 505v888h206z" />
    <glyph glyph-name="Ucircumflex" unicode="&#xdb;" horiz-adv-x="1341" 
d="M338 1507l277 238h119l274 -238h-176l-155 140h-8l-155 -140h-176zM348 1365v-881c0 -205 125 -331 322 -331c196 0 324 127 324 331v881h205v-891c0 -302 -212 -502 -529 -502c-316 0 -528 203 -528 505v888h206z" />
    <glyph glyph-name="Udieresis" unicode="&#xdc;" horiz-adv-x="1341" 
d="M449 1583c0 53 38 91 90 91c53 0 90 -38 90 -91c0 -51 -37 -90 -90 -90c-52 0 -90 39 -90 90zM758 1583c0 53 37 91 89 91c54 0 90 -38 90 -91c0 -51 -36 -90 -90 -90c-52 0 -89 39 -89 90zM348 1365v-881c0 -205 125 -331 322 -331c196 0 324 127 324 331v881h205v-891
c0 -302 -212 -502 -529 -502c-316 0 -528 203 -528 505v888h206z" />
    <glyph glyph-name="Yacute" unicode="&#xdd;" horiz-adv-x="1108" 
d="M656 0h-205v565l-456 800h232l324 -597h7l327 597h228l-457 -797v-568zM438 1510l255 206h219l-296 -206h-178z" />
    <glyph glyph-name="Thorn" unicode="&#xde;" horiz-adv-x="1161" 
d="M158 1365h204v-252h292c272 0 444 -147 444 -401c0 -257 -173 -401 -445 -401h-290v-311h-205v1365zM363 939v-456h230c165 0 294 28 294 229c0 158 -95 227 -258 227h-266z" />
    <glyph glyph-name="germandbls" unicode="&#xdf;" horiz-adv-x="1252" 
d="M359 0h-203v1045c0 252 180 395 441 395c266 1 441 -145 440 -354c0 -209 -157 -313 -254 -324v-13c183 -1 382 -121 382 -363c0 -271 -234 -403 -481 -403c-67 0 -127 10 -156 19v164c21 -8 69 -19 140 -19c140 0 291 61 291 242c0 157 -131 250 -328 250h-77v188h47
c111 0 236 91 236 235c0 122 -87 211 -235 211c-176 0 -243 -104 -243 -259v-1014z" />
    <glyph glyph-name="agrave" unicode="&#xe0;" horiz-adv-x="1072" 
d="M733 138c-49 -82 -145 -155 -301 -155c-204 0 -344 124 -344 319c0 186 129 309 371 309h271v118c0 123 -73 175 -204 175c-134 0 -195 -62 -205 -158h-194c9 185 129 325 407 325c239 0 398 -100 398 -344v-727h-192v138h-7zM491 143c136 0 239 92 239 214v111h-243
c-135 0 -195 -65 -195 -156c0 -116 96 -169 199 -169zM643 1217h-164l-237 277h208z" />
    <glyph glyph-name="aacute" unicode="&#xe1;" horiz-adv-x="1072" 
d="M733 138c-49 -82 -145 -155 -301 -155c-204 0 -344 124 -344 319c0 186 129 309 371 309h271v118c0 123 -73 175 -204 175c-134 0 -195 -62 -205 -158h-194c9 185 129 325 407 325c239 0 398 -100 398 -344v-727h-192v138h-7zM491 143c136 0 239 92 239 214v111h-243
c-135 0 -195 -65 -195 -156c0 -116 96 -169 199 -169zM589 1215h-163l190 279h208z" />
    <glyph glyph-name="acircumflex" unicode="&#xe2;" horiz-adv-x="1072" 
d="M733 138c-49 -82 -145 -155 -301 -155c-204 0 -344 124 -344 319c0 186 129 309 371 309h271v118c0 123 -73 175 -204 175c-134 0 -195 -62 -205 -158h-194c9 185 129 325 407 325c239 0 398 -100 398 -344v-727h-192v138h-7zM491 143c136 0 239 92 239 214v111h-243
c-135 0 -195 -65 -195 -156c0 -116 96 -169 199 -169zM255 1217l213 298h133l204 -300h-162l-108 187h-4l-116 -185h-160z" />
    <glyph glyph-name="atilde" unicode="&#xe3;" horiz-adv-x="1072" 
d="M733 138c-49 -82 -145 -155 -301 -155c-204 0 -344 124 -344 319c0 186 129 309 371 309h271v118c0 123 -73 175 -204 175c-134 0 -195 -62 -205 -158h-194c9 185 129 325 407 325c239 0 398 -100 398 -344v-727h-192v138h-7zM491 143c136 0 239 92 239 214v111h-243
c-135 0 -195 -65 -195 -156c0 -116 96 -169 199 -169zM502 1225c-23 24 -47 52 -82 52c-55 0 -65 -56 -68 -101h-124c0 119 55 232 185 232c60 0 102 -27 148 -74c27 -27 45 -54 81 -54c49 0 66 66 69 110h124c0 -113 -70 -232 -186 -232c-75 0 -113 30 -147 67z" />
    <glyph glyph-name="adieresis" unicode="&#xe4;" horiz-adv-x="1072" 
d="M733 138c-49 -82 -145 -155 -301 -155c-204 0 -344 124 -344 319c0 186 129 309 371 309h271v118c0 123 -73 175 -204 175c-134 0 -195 -62 -205 -158h-194c9 185 129 325 407 325c239 0 398 -100 398 -344v-727h-192v138h-7zM491 143c136 0 239 92 239 214v111h-243
c-135 0 -195 -65 -195 -156c0 -116 96 -169 199 -169zM253 1263c0 61 43 103 101 103c60 0 102 -42 102 -103c0 -58 -42 -101 -102 -101c-58 0 -101 43 -101 101zM616 1263c0 61 42 103 100 103c61 0 103 -42 103 -103c0 -58 -42 -101 -103 -101c-58 0 -100 43 -100 101z
" />
    <glyph glyph-name="aring" unicode="&#xe5;" horiz-adv-x="1072" 
d="M733 138c-49 -82 -145 -155 -301 -155c-204 0 -344 124 -344 319c0 186 129 309 371 309h271v118c0 123 -73 175 -204 175c-134 0 -195 -62 -205 -158h-194c9 185 129 325 407 325c239 0 398 -100 398 -344v-727h-192v138h-7zM491 143c136 0 239 92 239 214v111h-243
c-135 0 -195 -65 -195 -156c0 -116 96 -169 199 -169zM534 1192c-111 0 -198 82 -198 193c0 110 87 192 198 192c110 0 197 -82 197 -192c0 -111 -87 -193 -197 -193zM434 1384c0 -56 43 -100 100 -100c56 0 98 44 98 100c0 57 -42 100 -98 100c-57 0 -100 -43 -100 -100z
" />
    <glyph glyph-name="ae" unicode="&#xe6;" horiz-adv-x="1714" 
d="M1198 -18c-209 0 -337 94 -384 203h-14c-50 -101 -165 -203 -356 -203c-213 0 -359 121 -359 322c0 191 134 313 379 313h269v102c0 128 -81 185 -210 185c-126 0 -187 -49 -206 -120h-193c15 177 157 288 406 288c138 0 264 -45 323 -138h13c61 89 185 138 318 138
c260 0 437 -182 437 -469v-126h-681v-76c0 -145 100 -252 256 -252c120 0 194 56 210 122h202c-14 -118 -135 -289 -410 -289zM1185 909c-140 0 -245 -109 -245 -262v-32h482v22c0 167 -90 272 -237 272zM494 143c134 0 239 92 239 214v117h-244c-136 0 -203 -67 -203 -159
c0 -117 102 -172 208 -172z" />
    <glyph glyph-name="ccedilla" unicode="&#xe7;" horiz-adv-x="1040" 
d="M535 -468c-63 -2 -122 7 -149 15v111c27 -8 82 -14 115 -14c54 0 115 15 115 73c0 64 -59 66 -134 66h-54v85l52 118c-249 27 -385 220 -385 487v113c0 278 160 486 448 486c264 0 410 -164 412 -339h-193c-9 76 -81 171 -215 171c-172 0 -250 -144 -250 -323v-109
c0 -181 91 -315 250 -315c138 0 204 70 222 150h193c-5 -157 -135 -297 -351 -321l-45 -101c124 0 199 -55 199 -163c0 -129 -101 -185 -230 -190z" />
    <glyph glyph-name="egrave" unicode="&#xe8;" horiz-adv-x="1075" 
d="M645 1217h-164l-237 277h208zM554 -18c-303 0 -459 200 -459 495v93c0 296 156 502 446 502c294 0 444 -206 444 -500v-92h-689v-30c0 -157 79 -301 257 -301c140 0 202 73 218 148h201c-20 -137 -133 -315 -418 -315zM296 628h490v3c0 161 -91 278 -245 278
c-153 0 -245 -118 -245 -278v-3z" />
    <glyph glyph-name="eacute" unicode="&#xe9;" horiz-adv-x="1075" 
d="M591 1215h-163l190 279h208zM554 -18c-303 0 -459 200 -459 495v93c0 296 156 502 446 502c294 0 444 -206 444 -500v-92h-689v-30c0 -157 79 -301 257 -301c140 0 202 73 218 148h201c-20 -137 -133 -315 -418 -315zM296 628h490v3c0 161 -91 278 -245 278
c-153 0 -245 -118 -245 -278v-3z" />
    <glyph glyph-name="ecircumflex" unicode="&#xea;" horiz-adv-x="1075" 
d="M257 1217l213 298h133l204 -300h-162l-108 187h-4l-116 -185h-160zM554 -18c-303 0 -459 200 -459 495v93c0 296 156 502 446 502c294 0 444 -206 444 -500v-92h-689v-30c0 -157 79 -301 257 -301c140 0 202 73 218 148h201c-20 -137 -133 -315 -418 -315zM296 628h490v3
c0 161 -91 278 -245 278c-153 0 -245 -118 -245 -278v-3z" />
    <glyph glyph-name="edieresis" unicode="&#xeb;" horiz-adv-x="1075" 
d="M554 -18c-303 0 -459 200 -459 495v93c0 296 156 502 446 502c294 0 444 -206 444 -500v-92h-689v-30c0 -157 79 -301 257 -301c140 0 202 73 218 148h201c-20 -137 -133 -315 -418 -315zM296 628h490v3c0 161 -91 278 -245 278c-153 0 -245 -118 -245 -278v-3zM255 1263
c0 61 43 103 101 103c60 0 102 -42 102 -103c0 -58 -42 -101 -102 -101c-58 0 -101 43 -101 101zM618 1263c0 61 42 103 100 103c61 0 103 -42 103 -103c0 -58 -42 -101 -103 -101c-58 0 -100 43 -100 101z" />
    <glyph glyph-name="igrave" unicode="&#xec;" horiz-adv-x="540" 
d="M379 1217h-164l-237 277h208zM170 0v1054h205v-1054h-205z" />
    <glyph glyph-name="iacute" unicode="&#xed;" horiz-adv-x="540" 
d="M325 1215h-163l190 279h208zM170 0v1054h205v-1054h-205z" />
    <glyph glyph-name="icircumflex" unicode="&#xee;" horiz-adv-x="540" 
d="M-9 1217l213 298h133l204 -300h-162l-108 187h-4l-116 -185h-160zM170 0v1054h205v-1054h-205z" />
    <glyph glyph-name="idieresis" unicode="&#xef;" horiz-adv-x="540" 
d="M170 0v1054h205v-1054h-205zM-11 1263c0 61 43 103 101 103c60 0 102 -42 102 -103c0 -58 -42 -101 -102 -101c-58 0 -101 43 -101 101zM352 1263c0 61 42 103 100 103c61 0 103 -42 103 -103c0 -58 -42 -101 -103 -101c-58 0 -100 43 -100 101z" />
    <glyph glyph-name="eth" unicode="&#xf0;" horiz-adv-x="1115" 
d="M558 -18c-272 0 -463 169 -463 473v90c0 287 183 471 440 471c137 0 217 -58 261 -113h10c0 2 -9 58 -11 61c-15 81 -68 179 -131 255l-282 -104l-37 108l233 84c-68 63 -138 112 -197 150l160 81c88 -44 153 -95 218 -163l243 88l41 -102l-201 -74
c116 -152 178 -347 178 -538v-290c0 -302 -192 -477 -462 -477zM558 851c-158 0 -263 -124 -263 -315v-70c0 -195 100 -314 263 -314s261 119 261 314v81c0 200 -102 304 -261 304z" />
    <glyph glyph-name="ntilde" unicode="&#xf1;" horiz-adv-x="1171" 
d="M552 1225c-23 24 -47 52 -82 52c-55 0 -65 -56 -68 -101h-124c0 119 55 232 185 232c60 0 102 -27 148 -74c27 -27 45 -54 81 -54c49 0 66 66 69 110h124c0 -113 -70 -232 -186 -232c-75 0 -113 30 -147 67zM146 0v1054h199v-143h7c38 81 144 160 303 160
c210 0 375 -129 375 -372v-699h-203v630c0 181 -85 263 -237 263c-153 0 -243 -93 -243 -270v-623h-201z" />
    <glyph glyph-name="ograve" unicode="&#xf2;" horiz-adv-x="1115" 
d="M665 1217h-164l-237 277h208zM558 1072c313 0 462 -208 462 -503v-81c0 -301 -149 -506 -462 -506s-463 202 -463 506v80c0 287 150 504 463 504zM558 906c-199 0 -261 -166 -261 -350v-57c0 -186 61 -349 261 -349s258 163 258 349v57c0 184 -59 350 -258 350z" />
    <glyph glyph-name="oacute" unicode="&#xf3;" horiz-adv-x="1115" 
d="M611 1215h-163l190 279h208zM558 1072c313 0 462 -208 462 -503v-81c0 -301 -149 -506 -462 -506s-463 202 -463 506v80c0 287 150 504 463 504zM558 906c-199 0 -261 -166 -261 -350v-57c0 -186 61 -349 261 -349s258 163 258 349v57c0 184 -59 350 -258 350z" />
    <glyph glyph-name="ocircumflex" unicode="&#xf4;" horiz-adv-x="1115" 
d="M277 1217l213 298h133l204 -300h-162l-108 187h-4l-116 -185h-160zM558 1072c313 0 462 -208 462 -503v-81c0 -301 -149 -506 -462 -506s-463 202 -463 506v80c0 287 150 504 463 504zM558 906c-199 0 -261 -166 -261 -350v-57c0 -186 61 -349 261 -349s258 163 258 349
v57c0 184 -59 350 -258 350z" />
    <glyph glyph-name="otilde" unicode="&#xf5;" horiz-adv-x="1115" 
d="M524 1225c-23 24 -47 52 -82 52c-55 0 -65 -56 -68 -101h-124c0 119 55 232 185 232c60 0 102 -27 148 -74c27 -27 45 -54 81 -54c49 0 66 66 69 110h124c0 -113 -70 -232 -186 -232c-75 0 -113 30 -147 67zM558 1072c313 0 462 -208 462 -503v-81
c0 -301 -149 -506 -462 -506s-463 202 -463 506v80c0 287 150 504 463 504zM558 906c-199 0 -261 -166 -261 -350v-57c0 -186 61 -349 261 -349s258 163 258 349v57c0 184 -59 350 -258 350z" />
    <glyph glyph-name="odieresis" unicode="&#xf6;" horiz-adv-x="1115" 
d="M275 1263c0 61 43 103 101 103c60 0 102 -42 102 -103c0 -58 -42 -101 -102 -101c-58 0 -101 43 -101 101zM638 1263c0 61 42 103 100 103c61 0 103 -42 103 -103c0 -58 -42 -101 -103 -101c-58 0 -100 43 -100 101zM558 1072c313 0 462 -208 462 -503v-81
c0 -301 -149 -506 -462 -506s-463 202 -463 506v80c0 287 150 504 463 504zM558 906c-199 0 -261 -166 -261 -350v-57c0 -186 61 -349 261 -349s258 163 258 349v57c0 184 -59 350 -258 350z" />
    <glyph glyph-name="divide" unicode="&#xf7;" horiz-adv-x="1114" 
d="M1035 477h-956v157h956v-157zM417 952c0 81 61 139 137 139c81 0 142 -58 142 -139c0 -79 -61 -135 -142 -135c-76 0 -137 56 -137 135zM422 166c0 82 61 140 138 140c80 0 142 -59 142 -140c0 -78 -62 -135 -142 -135c-76 0 -138 57 -138 135z" />
    <glyph glyph-name="oslash" unicode="&#xf8;" horiz-adv-x="1115" 
d="M390 201c43 -36 99 -56 168 -56c170 0 264 135 264 322v148c0 53 -11 99 -30 137zM292 442c0 -54 11 -103 30 -141l402 553c-42 37 -98 58 -166 58c-164 0 -266 -137 -266 -322v-148zM558 -18c-103 0 -196 28 -272 79l-101 -136l-99 75l108 146c-62 79 -99 184 -99 309
v146c0 287 194 471 463 471c101 0 194 -29 269 -80l101 135l99 -77l-107 -144c63 -79 100 -182 100 -304v-146c0 -302 -193 -474 -462 -474z" />
    <glyph glyph-name="ugrave" unicode="&#xf9;" horiz-adv-x="1166" 
d="M690 1217h-164l-237 277h208zM1020 1054v-1054h-199v143h-9c-36 -83 -134 -160 -304 -160c-218 0 -370 125 -370 369v702h203v-646c0 -190 108 -247 235 -247c141 0 241 89 241 250v643h203z" />
    <glyph glyph-name="uacute" unicode="&#xfa;" horiz-adv-x="1166" 
d="M636 1215h-163l190 279h208zM1020 1054v-1054h-199v143h-9c-36 -83 -134 -160 -304 -160c-218 0 -370 125 -370 369v702h203v-646c0 -190 108 -247 235 -247c141 0 241 89 241 250v643h203z" />
    <glyph glyph-name="ucircumflex" unicode="&#xfb;" horiz-adv-x="1166" 
d="M302 1217l213 298h133l204 -300h-162l-108 187h-4l-116 -185h-160zM1020 1054v-1054h-199v143h-9c-36 -83 -134 -160 -304 -160c-218 0 -370 125 -370 369v702h203v-646c0 -190 108 -247 235 -247c141 0 241 89 241 250v643h203z" />
    <glyph glyph-name="udieresis" unicode="&#xfc;" horiz-adv-x="1166" 
d="M1020 1054v-1054h-199v143h-9c-36 -83 -134 -160 -304 -160c-218 0 -370 125 -370 369v702h203v-646c0 -190 108 -247 235 -247c141 0 241 89 241 250v643h203zM300 1263c0 61 43 103 101 103c60 0 102 -42 102 -103c0 -58 -42 -101 -102 -101c-58 0 -101 43 -101 101z
M663 1263c0 61 42 103 100 103c61 0 103 -42 103 -103c0 -58 -42 -101 -103 -101c-58 0 -100 43 -100 101z" />
    <glyph glyph-name="yacute" unicode="&#xfd;" horiz-adv-x="1052" 
d="M1009 1054c0 0 -365 -1044 -366 -1048l-27 -73c-63 -167 -145 -315 -381 -315c-44 0 -93 5 -119 9v157c16 -3 55 -5 80 -5c127 0 177 58 202 160l14 50l-381 1065h224l264 -864h9l266 864h215zM579 1215h-163l190 279h208z" />
    <glyph glyph-name="thorn" unicode="&#xfe;" horiz-adv-x="1164" 
d="M660 -16c-170 0 -262 82 -301 173h-10v-519h-202l-2 1799h195l2 -550h10c37 98 143 183 314 183c242 0 400 -169 400 -456v-172c0 -289 -161 -458 -406 -458zM610 154c148 0 252 102 252 320v106c0 212 -97 322 -256 322c-160 0 -257 -114 -257 -298v-171
c0 -164 104 -279 261 -279z" />
    <glyph glyph-name="ydieresis" unicode="&#xff;" horiz-adv-x="1052" 
d="M1009 1054c0 0 -365 -1044 -366 -1048l-27 -73c-63 -167 -145 -315 -381 -315c-44 0 -93 5 -119 9v157c16 -3 55 -5 80 -5c127 0 177 58 202 160l14 50l-381 1065h224l264 -864h9l266 864h215zM243 1263c0 61 43 103 101 103c60 0 102 -42 102 -103
c0 -58 -42 -101 -102 -101c-58 0 -101 43 -101 101zM606 1263c0 61 42 103 100 103c61 0 103 -42 103 -103c0 -58 -42 -101 -103 -101c-58 0 -100 43 -100 101z" />
    <glyph glyph-name="Amacron" unicode="&#x100;" horiz-adv-x="1218" 
d="M230 0h-209l476 1365h223l476 -1365h-221l-127 391h-490zM607 1141h-7l-193 -590h392zM888 1525h-558v110h558v-110z" />
    <glyph glyph-name="amacron" unicode="&#x101;" horiz-adv-x="1072" 
d="M733 138c-49 -82 -145 -155 -301 -155c-204 0 -344 124 -344 319c0 186 129 309 371 309h271v118c0 123 -73 175 -204 175c-134 0 -195 -62 -205 -158h-194c9 185 129 325 407 325c239 0 398 -100 398 -344v-727h-192v138h-7zM491 143c136 0 239 92 239 214v111h-243
c-135 0 -195 -65 -195 -156c0 -116 96 -169 199 -169zM814 1214h-558v118h558v-118z" />
    <glyph glyph-name="Abreve" unicode="&#x102;" horiz-adv-x="1218" 
d="M230 0h-209l476 1365h223l476 -1365h-221l-127 391h-490zM607 1141h-7l-193 -590h392zM287 1756h132c0 -78 72 -142 190 -142s190 64 190 142h132c0 -135 -93 -267 -322 -267s-322 132 -322 267z" />
    <glyph glyph-name="abreve" unicode="&#x103;" horiz-adv-x="1072" 
d="M733 138c-49 -82 -145 -155 -301 -155c-204 0 -344 124 -344 319c0 186 129 309 371 309h271v118c0 123 -73 175 -204 175c-134 0 -195 -62 -205 -158h-194c9 185 129 325 407 325c239 0 398 -100 398 -344v-727h-192v138h-7zM491 143c136 0 239 92 239 214v111h-243
c-135 0 -195 -65 -195 -156c0 -116 96 -169 199 -169zM234 1446h132c0 -84 50 -164 166 -164s166 80 166 164h131c-1 -133 -91 -284 -297 -284c-207 0 -299 151 -298 284z" />
    <glyph glyph-name="Aogonek" unicode="&#x104;" horiz-adv-x="1219" 
d="M230 0h-208l476 1365h223l469 -1344c-71 -21 -175 -76 -180 -164c-4 -71 46 -107 116 -107c22 0 58 3 80 8v-125c-19 -9 -67 -20 -131 -20c-115 0 -233 60 -233 195c0 117 79 183 143 225v3h-21l-115 355h-490zM609 1141h-9l-192 -590h392z" />
    <glyph glyph-name="aogonek" unicode="&#x105;" horiz-adv-x="1072" 
d="M491 143c136 0 239 92 239 214v111h-243c-135 0 -195 -65 -195 -156c0 -116 96 -169 199 -169zM946 -365c-20 -8 -64 -22 -129 -22c-114 0 -225 58 -225 194c0 113 67 177 152 228v103h-8c-49 -83 -145 -155 -301 -155c-204 0 -347 124 -347 320c0 185 129 308 371 308
h271v118c0 123 -73 175 -204 175c-134 0 -195 -62 -205 -158h-194c9 186 130 325 408 325c238 0 397 -100 397 -344v-713c-83 -24 -178 -81 -178 -168c0 -61 49 -91 112 -91c24 0 57 3 80 8v-128z" />
    <glyph glyph-name="Cacute" unicode="&#x106;" horiz-adv-x="1258" 
d="M530 1510l255 206h219l-296 -206h-178zM310 764v-171c0 -305 137 -440 345 -440c203 0 308 128 308 276h201v-11c0 -208 -166 -446 -515 -446c-336 0 -546 216 -546 620v174c0 405 213 627 547 627c335 0 514 -233 514 -467v-10h-201c0 146 -108 297 -312 297
c-202 0 -341 -146 -341 -449z" />
    <glyph glyph-name="cacute" unicode="&#x107;" horiz-adv-x="1040" 
d="M95 473v113c0 278 160 486 448 486c264 0 410 -164 412 -339h-193c-9 76 -81 171 -215 171c-172 0 -250 -144 -250 -323v-109c0 -181 91 -315 250 -315c138 0 204 70 222 150h193c-6 -174 -164 -325 -419 -325c-288 0 -448 201 -448 491zM573 1215h-163l190 279h208z" />
    <glyph glyph-name="Ccircumflex" unicode="&#x108;" horiz-adv-x="1258" 
d="M310 764v-171c0 -305 137 -440 345 -440c203 0 308 128 308 276h201v-11c0 -208 -166 -446 -515 -446c-336 0 -546 216 -546 620v174c0 405 213 627 547 627c335 0 514 -233 514 -467v-10h-201c0 146 -108 297 -312 297c-202 0 -341 -146 -341 -449zM314 1507l277 238
h119l274 -238h-176l-155 140h-8l-155 -140h-176z" />
    <glyph glyph-name="ccircumflex" unicode="&#x109;" horiz-adv-x="1040" 
d="M239 1217l213 298h133l204 -300h-162l-108 187h-4l-116 -185h-160zM95 473v113c0 278 160 486 448 486c264 0 410 -164 412 -339h-193c-9 76 -81 171 -215 171c-172 0 -250 -144 -250 -323v-109c0 -181 91 -315 250 -315c138 0 204 70 222 150h193
c-6 -174 -164 -325 -419 -325c-288 0 -448 201 -448 491z" />
    <glyph glyph-name="Cdotaccent" unicode="&#x10a;" horiz-adv-x="1258" 
d="M310 764v-171c0 -305 137 -440 345 -440c203 0 308 128 308 276h201v-11c0 -208 -166 -446 -515 -446c-336 0 -546 216 -546 620v174c0 405 213 627 547 627c335 0 514 -233 514 -467v-10h-201c0 146 -108 297 -312 297c-202 0 -341 -146 -341 -449zM540 1605
c0 63 47 110 107 110c63 0 111 -47 111 -110c0 -62 -48 -107 -111 -107c-60 0 -107 45 -107 107z" />
    <glyph glyph-name="cdotaccent" unicode="&#x10b;" horiz-adv-x="1040" 
d="M95 473v113c0 278 160 486 448 486c264 0 410 -164 412 -339h-193c-9 76 -81 171 -215 171c-172 0 -250 -144 -250 -323v-109c0 -181 91 -315 250 -315c138 0 204 70 222 150h193c-6 -174 -164 -325 -419 -325c-288 0 -448 201 -448 491zM413 1294c0 63 47 110 107 110
c63 0 111 -47 111 -110c0 -62 -48 -107 -111 -107c-60 0 -107 45 -107 107z" />
    <glyph glyph-name="Ccaron" unicode="&#x10c;" horiz-adv-x="1258" 
d="M310 764v-171c0 -305 137 -440 345 -440c203 0 308 128 308 276h201v-11c0 -208 -166 -446 -515 -446c-336 0 -546 216 -546 620v174c0 405 213 627 547 627c335 0 514 -233 514 -467v-10h-201c0 146 -108 297 -312 297c-202 0 -341 -146 -341 -449zM312 1729h177
l155 -127h8l154 127h177l-275 -221h-119z" />
    <glyph glyph-name="ccaron" unicode="&#x10d;" horiz-adv-x="1040" 
d="M244 1497h159l117 -186h4l108 187h162l-205 -299h-133zM95 473v113c0 278 160 486 448 486c264 0 410 -164 412 -339h-193c-9 76 -81 171 -215 171c-172 0 -250 -144 -250 -323v-109c0 -181 91 -315 250 -315c138 0 204 70 222 150h193c-6 -174 -164 -325 -419 -325
c-288 0 -448 201 -448 491z" />
    <glyph glyph-name="Dcaron" unicode="&#x10e;" horiz-adv-x="1303" 
d="M264 1729h177l155 -127h8l154 127h177l-275 -221h-119zM158 1365h457c440 0 604 -282 604 -681c0 -393 -158 -684 -604 -684h-457v1365zM364 1189v-1012h233c276 0 409 165 409 504c0 306 -108 508 -409 508h-233z" />
    <glyph glyph-name="dcaron" unicode="&#x10f;" horiz-adv-x="1356" 
d="M1209 1436h175l-45 -488h-130v488zM505 1071c165 0 270 -74 305 -165h6v531h202v-1437h-195v160h-7c-26 -90 -140 -175 -311 -175c-266 0 -409 193 -409 479v127c0 281 142 480 409 480zM555 901c-173 0 -254 -138 -254 -336v-74c0 -202 83 -338 258 -338
c161 0 257 122 257 336v82c0 203 -97 330 -261 330z" />
    <glyph glyph-name="Dcroat" unicode="&#x110;" horiz-adv-x="1384" 
d="M696 0h-457v607h-162v179h162v579h457c440 0 604 -282 604 -681c0 -393 -158 -684 -604 -684zM444 179h233c277 0 409 165 409 504c0 306 -108 508 -409 508h-233v-405h288v-179h-288v-428z" />
    <glyph glyph-name="dcroat" unicode="&#x111;" horiz-adv-x="1168" 
d="M552 901c-154 0 -251 -114 -251 -312v-123c0 -201 100 -313 256 -313c157 0 260 113 260 298v171c0 164 -110 279 -265 279zM814 168c-27 -90 -137 -183 -315 -183c-242 0 -402 170 -402 446v193c0 271 158 447 406 447c170 0 270 -83 304 -173h10v267h-252v138h256v175
h195v-175h131v-138h-128v-1165h-195v168h-10z" />
    <glyph glyph-name="Emacron" unicode="&#x112;" horiz-adv-x="1107" 
d="M996 177v-177h-838v1365h838v-177h-633v-408h597v-170h-597v-433h633zM850 1525h-558v110h558v-110z" />
    <glyph glyph-name="emacron" unicode="&#x113;" horiz-adv-x="1075" 
d="M554 -18c-303 0 -459 200 -459 495v93c0 296 156 502 446 502c294 0 444 -206 444 -500v-92h-689v-30c0 -157 79 -301 257 -301c140 0 202 73 218 148h201c-20 -137 -133 -315 -418 -315zM296 628h490v3c0 161 -91 278 -245 278c-153 0 -245 -118 -245 -278v-3zM816 1214
h-558v118h558v-118z" />
    <glyph glyph-name="Ebreve" unicode="&#x114;" horiz-adv-x="1107" 
d="M996 177v-177h-838v1365h838v-177h-633v-408h597v-170h-597v-433h633zM249 1756h132c0 -78 72 -142 190 -142s190 64 190 142h132c0 -135 -93 -267 -322 -267s-322 132 -322 267z" />
    <glyph glyph-name="ebreve" unicode="&#x115;" horiz-adv-x="1075" 
d="M554 -18c-303 0 -459 200 -459 495v93c0 296 156 502 446 502c294 0 444 -206 444 -500v-92h-689v-30c0 -157 79 -301 257 -301c140 0 202 73 218 148h201c-20 -137 -133 -315 -418 -315zM296 628h490v3c0 161 -91 278 -245 278c-153 0 -245 -118 -245 -278v-3zM236 1446
h132c0 -84 50 -164 166 -164s166 80 166 164h131c-1 -133 -91 -284 -297 -284c-207 0 -299 151 -298 284z" />
    <glyph glyph-name="Edotaccent" unicode="&#x116;" horiz-adv-x="1107" 
d="M465 1605c0 63 47 110 107 110c63 0 111 -47 111 -110c0 -62 -48 -107 -111 -107c-60 0 -107 45 -107 107zM996 177v-177h-838v1365h838v-177h-633v-408h597v-170h-597v-433h633z" />
    <glyph glyph-name="edotaccent" unicode="&#x117;" horiz-adv-x="1075" 
d="M431 1294c0 63 47 110 107 110c63 0 111 -47 111 -110c0 -62 -48 -107 -111 -107c-60 0 -107 45 -107 107zM554 -18c-303 0 -459 200 -459 495v93c0 296 156 502 446 502c294 0 444 -206 444 -500v-92h-689v-30c0 -157 79 -301 257 -301c140 0 202 73 218 148h201
c-20 -137 -133 -315 -418 -315zM296 628h490v3c0 161 -91 278 -245 278c-153 0 -245 -118 -245 -278v-3z" />
    <glyph glyph-name="Eogonek" unicode="&#x118;" horiz-adv-x="1107" 
d="M997 -368c-27 -9 -76 -19 -123 -19c-123 0 -230 59 -230 195c0 84 48 147 117 189v3h-603v1365h838v-177h-634v-408h598v-170h-597v-433h633v-151c-83 -19 -193 -75 -193 -177c0 -65 47 -99 119 -99c24 0 57 3 75 8v-126z" />
    <glyph glyph-name="eogonek" unicode="&#x119;" horiz-adv-x="1075" 
d="M647 3c-22 -11 -66 -19 -106 -19c-290 0 -446 198 -446 493v93c0 296 156 502 446 502c294 0 444 -206 444 -500v-92h-689v-30c0 -157 78 -301 258 -301c139 0 201 74 217 148h200c-15 -103 -68 -176 -143 -248c-61 -57 -109 -115 -109 -189c0 -69 56 -105 119 -105
c21 0 55 4 74 9v-132c-16 -6 -57 -19 -124 -19c-122 0 -228 67 -228 195c0 99 54 148 92 185zM296 628h490v3c0 161 -91 278 -245 278c-153 0 -245 -118 -245 -278v-3z" />
    <glyph glyph-name="Ecaron" unicode="&#x11a;" horiz-adv-x="1107" 
d="M237 1729h177l155 -127h8l154 127h177l-275 -221h-119zM996 177v-177h-838v1365h838v-177h-633v-408h597v-170h-597v-433h633z" />
    <glyph glyph-name="ecaron" unicode="&#x11b;" horiz-adv-x="1075" 
d="M262 1497h159l117 -186h4l108 187h162l-205 -299h-133zM554 -18c-303 0 -459 200 -459 495v93c0 296 156 502 446 502c294 0 444 -206 444 -500v-92h-689v-30c0 -157 79 -301 257 -301c140 0 202 73 218 148h201c-20 -137 -133 -315 -418 -315zM296 628h490v3
c0 161 -91 278 -245 278c-153 0 -245 -118 -245 -278v-3z" />
    <glyph glyph-name="Gcircumflex" unicode="&#x11c;" horiz-adv-x="1283" 
d="M325 1507l277 238h119l274 -238h-176l-155 140h-8l-155 -140h-176zM1177 942h-203c-22 185 -158 271 -316 271c-192 0 -349 -129 -349 -436v-182c0 -271 114 -443 347 -443c192 0 325 119 325 282v116h-329v170h528v-279c0 -191 -130 -469 -524 -469
c-373 0 -553 249 -553 623v183c0 385 219 615 559 615c329 0 501 -215 515 -451z" />
    <glyph glyph-name="gcircumflex" unicode="&#x11d;" horiz-adv-x="1134" 
d="M286 1217l213 298h133l204 -300h-162l-108 187h-4l-116 -185h-160zM538 -230c178 0 266 92 266 253v153h-7c-41 -91 -153 -165 -301 -165c-233 0 -412 173 -412 461v132c0 284 175 466 415 466c174 0 263 -81 304 -164h6v148h196v-1033c0 -293 -204 -415 -474 -415
c-289 0 -416 153 -424 312h203c11 -78 82 -148 228 -148zM553 902c-163 0 -265 -125 -265 -322v-94c0 -198 111 -311 267 -311c160 0 248 136 248 301v105c0 180 -93 321 -250 321z" />
    <glyph glyph-name="Gbreve" unicode="&#x11e;" horiz-adv-x="1283" 
d="M1177 942h-203c-22 185 -158 271 -316 271c-192 0 -349 -129 -349 -436v-182c0 -271 114 -443 347 -443c192 0 325 119 325 282v116h-329v170h528v-279c0 -191 -130 -469 -524 -469c-373 0 -553 249 -553 623v183c0 385 219 615 559 615c329 0 501 -215 515 -451z
M335 1756h132c0 -78 72 -142 190 -142s190 64 190 142h132c0 -135 -93 -267 -322 -267s-322 132 -322 267z" />
    <glyph glyph-name="gbreve" unicode="&#x11f;" horiz-adv-x="1134" 
d="M265 1446h132c0 -84 50 -164 166 -164s166 80 166 164h131c-1 -133 -91 -284 -297 -284c-207 0 -299 151 -298 284zM538 -230c178 0 266 92 266 253v153h-7c-41 -91 -153 -165 -301 -165c-233 0 -412 173 -412 461v132c0 284 175 466 415 466c174 0 263 -81 304 -164h6
v148h196v-1033c0 -293 -204 -415 -474 -415c-289 0 -416 153 -424 312h203c11 -78 82 -148 228 -148zM553 902c-163 0 -265 -125 -265 -322v-94c0 -198 111 -311 267 -311c160 0 248 136 248 301v105c0 180 -93 321 -250 321z" />
    <glyph glyph-name="Gdotaccent" unicode="&#x120;" horiz-adv-x="1283" 
d="M551 1605c0 63 47 110 107 110c63 0 111 -47 111 -110c0 -62 -48 -107 -111 -107c-60 0 -107 45 -107 107zM1177 942h-203c-22 185 -158 271 -316 271c-192 0 -349 -129 -349 -436v-182c0 -271 114 -443 347 -443c192 0 325 119 325 282v116h-329v170h528v-279
c0 -191 -130 -469 -524 -469c-373 0 -553 249 -553 623v183c0 385 219 615 559 615c329 0 501 -215 515 -451z" />
    <glyph glyph-name="gdotaccent" unicode="&#x121;" horiz-adv-x="1134" 
d="M460 1294c0 63 47 110 107 110c63 0 111 -47 111 -110c0 -62 -48 -107 -111 -107c-60 0 -107 45 -107 107zM538 -230c178 0 266 92 266 253v153h-7c-41 -91 -153 -165 -301 -165c-233 0 -412 173 -412 461v132c0 284 175 466 415 466c174 0 263 -81 304 -164h6v148h196
v-1033c0 -293 -204 -415 -474 -415c-289 0 -416 153 -424 312h203c11 -78 82 -148 228 -148zM553 902c-163 0 -265 -125 -265 -322v-94c0 -198 111 -311 267 -311c160 0 248 136 248 301v105c0 180 -93 321 -250 321z" />
    <glyph glyph-name="Gcommaaccent" unicode="&#x122;" horiz-adv-x="1283" 
d="M643 -489h-149l85 335h178zM1177 942h-203c-22 185 -158 271 -316 271c-192 0 -349 -129 -349 -436v-182c0 -271 114 -443 347 -443c192 0 325 119 325 282v116h-329v170h528v-279c0 -191 -130 -469 -524 -469c-373 0 -553 249 -553 623v183c0 385 219 615 559 615
c329 0 501 -215 515 -451z" />
    <glyph glyph-name="gcommaaccent" unicode="&#x123;" horiz-adv-x="1134" 
d="M549 1589h149l-85 -335h-178zM538 -230c178 0 266 92 266 253v153h-7c-41 -91 -153 -165 -301 -165c-233 0 -412 173 -412 461v132c0 284 175 466 415 466c174 0 263 -81 304 -164h6v148h196v-1033c0 -293 -204 -415 -474 -415c-289 0 -416 153 -424 312h203
c11 -78 82 -148 228 -148zM553 902c-163 0 -265 -125 -265 -322v-94c0 -198 111 -311 267 -311c160 0 248 136 248 301v105c0 180 -93 321 -250 321z" />
    <glyph glyph-name="Hcircumflex" unicode="&#x124;" horiz-adv-x="1377" 
d="M1220 0h-206v615h-650v-615h-206v1365h206v-572h650v572h206v-1365zM356 1507l277 238h119l274 -238h-176l-155 140h-8l-155 -140h-176z" />
    <glyph glyph-name="hcircumflex" unicode="&#x125;" horiz-adv-x="1177" 
d="M149 0v1437h202v-526h8c30 69 120 160 293 160c233 0 385 -166 385 -410v-661h-202v617c0 168 -84 276 -237 276s-247 -99 -247 -276v-617h-202zM-33 1600l213 298h133l204 -300h-162l-108 187h-4l-116 -185h-160z" />
    <glyph glyph-name="Hbar" unicode="&#x126;" horiz-adv-x="1377" 
d="M364 768h650v231h-650v-231zM364 590v-590h-206v999h-105v145h105v221h206v-221h650v221h206v-221h105v-145h-105v-999h-206v590h-650z" />
    <glyph glyph-name="hbar" unicode="&#x127;" horiz-adv-x="1177" 
d="M351 589v-589h-202v1165h-119v138h123v134h194v-134h263v-138h-259v-301h10c22 74 109 207 323 207c205 0 353 -118 353 -357v-714h-202v656c0 163 -89 244 -223 244c-169 0 -261 -134 -261 -311z" />
    <glyph glyph-name="Itilde" unicode="&#x128;" horiz-adv-x="521" 
d="M364 0h-206v1365h206v-1365zM236 1538c-22 22 -45 49 -78 49c-52 0 -62 -50 -64 -91h-116c0 100 52 199 170 199c61 0 99 -25 142 -66c27 -24 44 -49 78 -49c46 0 63 59 66 99h116c0 -98 -65 -200 -171 -200c-75 0 -109 26 -143 59z" />
    <glyph glyph-name="itilde" unicode="&#x129;" horiz-adv-x="540" 
d="M170 0v1054h205v-1054h-205zM238 1225c-23 24 -47 52 -82 52c-55 0 -65 -56 -68 -101h-124c0 119 55 232 185 232c60 0 102 -27 148 -74c27 -27 45 -54 81 -54c49 0 66 66 69 110h124c0 -113 -70 -232 -186 -232c-75 0 -113 30 -147 67z" />
    <glyph glyph-name="Imacron" unicode="&#x12a;" horiz-adv-x="521" 
d="M364 0h-206v1365h206v-1365zM539 1525h-558v110h558v-110z" />
    <glyph glyph-name="imacron" unicode="&#x12b;" horiz-adv-x="540" 
d="M170 0v1054h205v-1054h-205zM550 1214h-558v118h558v-118z" />
    <glyph glyph-name="Ibreve" unicode="&#x12c;" horiz-adv-x="521" 
d="M364 0h-206v1365h206v-1365zM-62 1756h132c0 -78 72 -142 190 -142s190 64 190 142h132c0 -135 -93 -267 -322 -267s-322 132 -322 267z" />
    <glyph glyph-name="ibreve" unicode="&#x12d;" horiz-adv-x="540" 
d="M170 0v1054h205v-1054h-205zM-30 1446h132c0 -84 50 -164 166 -164s166 80 166 164h131c-1 -133 -91 -284 -297 -284c-207 0 -299 151 -298 284z" />
    <glyph glyph-name="Iogonek" unicode="&#x12e;" horiz-adv-x="521" 
d="M388 -366c-18 -9 -68 -21 -126 -21c-139 0 -230 70 -230 197c0 118 78 183 140 216v3h-14v1336h206v-1350c-91 -31 -170 -82 -170 -167c0 -66 47 -99 115 -99c22 0 57 3 79 9v-124z" />
    <glyph glyph-name="iogonek" unicode="&#x12f;" horiz-adv-x="541" 
d="M392 -368c-20 -8 -69 -19 -123 -19c-143 0 -242 66 -242 198c0 117 78 183 143 218v1025h201v-1035c-77 -24 -177 -77 -177 -170c0 -66 49 -99 118 -99c22 0 58 3 80 8v-126zM132 1375c0 76 58 131 137 131c83 0 140 -55 140 -131c0 -74 -57 -129 -140 -129
c-79 0 -137 55 -137 129z" />
    <glyph glyph-name="Idotaccent" unicode="&#x130;" horiz-adv-x="521" 
d="M364 0h-206v1365h206v-1365zM154 1605c0 63 47 110 107 110c63 0 111 -47 111 -110c0 -62 -48 -107 -111 -107c-60 0 -107 45 -107 107z" />
    <glyph glyph-name="dotlessi" unicode="&#x131;" horiz-adv-x="540" 
d="M170 0v1054h205v-1054h-205z" />
    <glyph glyph-name="Jcircumflex" unicode="&#x134;" horiz-adv-x="997" 
d="M25 338h200c4 -114 93 -180 198 -180c128 0 216 69 216 238v969h207v-956c0 -296 -172 -437 -422 -437s-399 157 -399 366zM409 1507l277 238h119l274 -238h-176l-155 140h-8l-155 -140h-176z" />
    <glyph glyph-name="jcircumflex" unicode="&#x135;" horiz-adv-x="541" 
d="M371 1054v-1080c0 -244 -118 -346 -306 -346c-34 0 -86 5 -102 9v154c15 -3 41 -5 63 -5c104 0 144 58 144 190v1078h201zM-2 1204l213 298h133l204 -300h-162l-108 187h-4l-116 -185h-160z" />
    <glyph glyph-name="Kcommaaccent" unicode="&#x136;" horiz-adv-x="1209" 
d="M1177 1365l-502 -583l527 -782h-256l-423 641l-159 -175v-466h-206v1365h206v-644h9l568 644h236zM590 -489h-149l85 335h178z" />
    <glyph glyph-name="kcommaaccent" unicode="&#x137;" horiz-adv-x="1041" 
d="M350 382v-382h-202v1437h202v-848h9l406 465h231l-405 -457l432 -597h-239l-343 476zM528 -489h-149l85 335h178z" />
    <glyph glyph-name="Lacute" unicode="&#x139;" horiz-adv-x="999" 
d="M143 1510l255 206h219l-296 -206h-178zM976 181v-181h-818v1365h206v-1184h612z" />
    <glyph glyph-name="lacute" unicode="&#x13a;" horiz-adv-x="507" 
d="M307 1598h-163l190 279h208zM153 0v1437h201v-1437h-201z" />
    <glyph glyph-name="Lcommaaccent" unicode="&#x13b;" horiz-adv-x="999" 
d="M493 -489h-149l85 335h178zM976 181v-181h-818v1365h206v-1184h612z" />
    <glyph glyph-name="lcommaaccent" unicode="&#x13c;" horiz-adv-x="507" 
d="M239 -489h-149l85 335h178zM153 0v1437h201v-1437h-201z" />
    <glyph glyph-name="Lcaron" unicode="&#x13d;" horiz-adv-x="999" 
d="M588 1437h183l-50 -488h-133v488zM976 181v-181h-818v1365h206v-1184h612z" />
    <glyph glyph-name="lcaron" unicode="&#x13e;" horiz-adv-x="671" 
d="M526 1436h175l-45 -488h-130v488zM153 0v1437h201v-1437h-201z" />
    <glyph glyph-name="Lslash" unicode="&#x141;" horiz-adv-x="1014" 
d="M992 0h-819v531l-127 -74v189l127 74v645h206v-528l359 210v-192l-359 -208v-466h613v-181z" />
    <glyph glyph-name="lslash" unicode="&#x142;" horiz-adv-x="581" 
d="M392 0h-202v601l-150 -101v185l150 102v650h202v-519l150 102v-190l-150 -101v-729z" />
    <glyph glyph-name="Nacute" unicode="&#x143;" horiz-adv-x="1368" 
d="M567 1510l255 206h219l-296 -206h-178zM357 0h-199v1365h187l659 -1014h6v1014h200v-1365h-187l-660 1016h-6v-1016z" />
    <glyph glyph-name="nacute" unicode="&#x144;" horiz-adv-x="1171" 
d="M639 1215h-163l190 279h208zM146 0v1054h199v-143h7c38 81 144 160 303 160c210 0 375 -129 375 -372v-699h-203v630c0 181 -85 263 -237 263c-153 0 -243 -93 -243 -270v-623h-201z" />
    <glyph glyph-name="Ncommaaccent" unicode="&#x145;" horiz-adv-x="1368" 
d="M669 -489h-149l85 335h178zM357 0h-199v1365h187l659 -1014h6v1014h200v-1365h-187l-660 1016h-6v-1016z" />
    <glyph glyph-name="ncommaaccent" unicode="&#x146;" horiz-adv-x="1171" 
d="M571 -489h-149l85 335h178zM146 0v1054h199v-143h7c38 81 144 160 303 160c210 0 375 -129 375 -372v-699h-203v630c0 181 -85 263 -237 263c-153 0 -243 -93 -243 -270v-623h-201z" />
    <glyph glyph-name="Ncaron" unicode="&#x147;" horiz-adv-x="1368" 
d="M349 1729h177l155 -127h8l154 127h177l-275 -221h-119zM357 0h-199v1365h187l659 -1014h6v1014h200v-1365h-187l-660 1016h-6v-1016z" />
    <glyph glyph-name="ncaron" unicode="&#x148;" horiz-adv-x="1171" 
d="M310 1497h159l117 -186h4l108 187h162l-205 -299h-133zM146 0v1054h199v-143h7c38 81 144 160 303 160c210 0 375 -129 375 -372v-699h-203v630c0 181 -85 263 -237 263c-153 0 -243 -93 -243 -270v-623h-201z" />
    <glyph glyph-name="Omacron" unicode="&#x14c;" horiz-adv-x="1324" 
d="M310 774v-194c0 -292 151 -428 351 -428c201 0 352 136 352 428v194c0 291 -151 440 -352 440c-200 0 -351 -149 -351 -440zM103 580v192c0 388 218 621 560 621c343 0 558 -233 558 -621v-192c0 -386 -219 -608 -561 -608c-343 0 -557 222 -557 608zM940 1525h-558v110
h558v-110z" />
    <glyph glyph-name="omacron" unicode="&#x14d;" horiz-adv-x="1115" 
d="M836 1214h-558v118h558v-118zM558 1072c313 0 462 -208 462 -503v-81c0 -301 -149 -506 -462 -506s-463 202 -463 506v80c0 287 150 504 463 504zM558 906c-199 0 -261 -166 -261 -350v-57c0 -186 61 -349 261 -349s258 163 258 349v57c0 184 -59 350 -258 350z" />
    <glyph glyph-name="Obreve" unicode="&#x14e;" horiz-adv-x="1324" 
d="M310 774v-194c0 -292 151 -428 351 -428c201 0 352 136 352 428v194c0 291 -151 440 -352 440c-200 0 -351 -149 -351 -440zM103 580v192c0 388 218 621 560 621c343 0 558 -233 558 -621v-192c0 -386 -219 -608 -561 -608c-343 0 -557 222 -557 608zM339 1756h132
c0 -78 72 -142 190 -142s190 64 190 142h132c0 -135 -93 -267 -322 -267s-322 132 -322 267z" />
    <glyph glyph-name="obreve" unicode="&#x14f;" horiz-adv-x="1115" 
d="M256 1446h132c0 -84 50 -164 166 -164s166 80 166 164h131c-1 -133 -91 -284 -297 -284c-207 0 -299 151 -298 284zM558 1072c313 0 462 -208 462 -503v-81c0 -301 -149 -506 -462 -506s-463 202 -463 506v80c0 287 150 504 463 504zM558 906c-199 0 -261 -166 -261 -350
v-57c0 -186 61 -349 261 -349s258 163 258 349v57c0 184 -59 350 -258 350z" />
    <glyph glyph-name="Ohungarumlaut" unicode="&#x150;" horiz-adv-x="1324" 
d="M399 1510l271 218h188l-292 -218h-167zM724 1510l272 218h188l-293 -218h-167zM310 774v-194c0 -292 151 -428 351 -428c201 0 352 136 352 428v194c0 291 -151 440 -352 440c-200 0 -351 -149 -351 -440zM103 580v192c0 388 218 621 560 621c343 0 558 -233 558 -621
v-192c0 -386 -219 -608 -561 -608c-343 0 -557 222 -557 608z" />
    <glyph glyph-name="ohungarumlaut" unicode="&#x151;" horiz-adv-x="1115" 
d="M448 1214h-129l214 315h169zM740 1214h-130l215 315h169zM558 1072c313 0 462 -208 462 -503v-81c0 -301 -149 -506 -462 -506s-463 202 -463 506v80c0 287 150 504 463 504zM558 906c-199 0 -261 -166 -261 -350v-57c0 -186 61 -349 261 -349s258 163 258 349v57
c0 184 -59 350 -258 350z" />
    <glyph glyph-name="OE" unicode="&#x152;" horiz-adv-x="1958" 
d="M314 774v-195c0 -292 151 -428 351 -428c201 0 355 125 355 417v224c0 291 -154 422 -355 422c-200 0 -351 -149 -351 -440zM644 -28c-330 0 -541 224 -541 609v191c0 395 220 621 545 621c153 0 296 -54 368 -167h15v139h815v-177h-625v-408h589v-170h-589v-433h625
v-177h-815v144h-14c-74 -110 -214 -172 -373 -172z" />
    <glyph glyph-name="oe" unicode="&#x153;" horiz-adv-x="1802" 
d="M1279 -18c-158 0 -290 68 -354 171h-13c-69 -103 -204 -171 -354 -171c-273 0 -463 169 -463 473v146c0 287 194 471 463 471c150 0 281 -56 354 -172h13c66 104 195 172 340 172c260 0 444 -182 444 -469v-126h-689v-51c0 -158 92 -277 257 -277c120 0 201 56 218 122
h202c-15 -118 -143 -289 -418 -289zM558 906c-163 0 -261 -133 -261 -317v-123c0 -186 92 -316 261 -316s258 130 258 316v123c0 184 -94 317 -258 317zM1020 615h491v16c0 167 -97 278 -245 278s-246 -111 -246 -278v-16z" />
    <glyph glyph-name="Racute" unicode="&#x154;" horiz-adv-x="1228" 
d="M465 1510l255 206h219l-296 -206h-178zM668 1365c310 0 452 -192 452 -415c0 -224 -138 -339 -252 -381l277 -569h-233l-248 532h-302v-532h-204v1365h510zM362 701h272c178 0 273 86 273 240c0 166 -107 252 -267 252h-278v-492z" />
    <glyph glyph-name="racute" unicode="&#x155;" horiz-adv-x="724" 
d="M474 1215h-163l190 279h208zM161 0v1054h201v-130h7c29 64 82 146 256 146c26 0 50 -2 70 -5v-181c-18 4 -55 6 -90 6c-181 0 -240 -108 -240 -250v-640h-204z" />
    <glyph glyph-name="Rcommaaccent" unicode="&#x156;" horiz-adv-x="1228" 
d="M668 1365c310 0 452 -192 452 -415c0 -224 -138 -339 -252 -381l277 -569h-233l-248 532h-302v-532h-204v1365h510zM362 701h272c178 0 273 86 273 240c0 166 -107 252 -267 252h-278v-492zM567 -489h-149l85 335h178z" />
    <glyph glyph-name="rcommaaccent" unicode="&#x157;" horiz-adv-x="724" 
d="M161 0v1054h201v-130h7c29 64 82 146 256 146c26 0 50 -2 70 -5v-181c-18 4 -55 6 -90 6c-181 0 -240 -108 -240 -250v-640h-204zM251 -489h-149l85 335h178z" />
    <glyph glyph-name="Rcaron" unicode="&#x158;" horiz-adv-x="1228" 
d="M668 1365c310 0 452 -192 452 -415c0 -224 -138 -339 -252 -381l277 -569h-233l-248 532h-302v-532h-204v1365h510zM362 701h272c178 0 273 86 273 240c0 166 -107 252 -267 252h-278v-492zM247 1729h177l155 -127h8l154 127h177l-275 -221h-119z" />
    <glyph glyph-name="rcaron" unicode="&#x159;" horiz-adv-x="724" 
d="M145 1497h159l117 -186h4l108 187h162l-205 -299h-133zM161 0v1054h201v-130h7c29 64 82 146 256 146c26 0 50 -2 70 -5v-181c-18 4 -55 6 -90 6c-181 0 -240 -108 -240 -250v-640h-204z" />
    <glyph glyph-name="Sacute" unicode="&#x15a;" horiz-adv-x="1172" 
d="M467 1510l255 206h219l-296 -206h-178zM60 375h203c12 -124 119 -228 319 -228c182 0 294 86 294 223c0 108 -70 167 -219 204l-230 58c-170 42 -328 146 -328 364c0 259 228 400 485 400c252 0 478 -135 483 -394h-199c-11 122 -105 221 -287 221
c-162 0 -275 -77 -275 -212c0 -92 62 -159 191 -190l228 -58c207 -52 359 -149 359 -376c0 -268 -221 -415 -520 -415c-372 0 -499 221 -504 403z" />
    <glyph glyph-name="sacute" unicode="&#x15b;" horiz-adv-x="998" 
d="M98 750c0 226 191 322 401 322c248 0 384 -136 384 -318h-184c-6 76 -55 167 -206 167c-118 0 -200 -56 -200 -152c0 -122 146 -137 264 -158c197 -35 354 -94 354 -296c0 -211 -168 -333 -428 -333c-243 0 -404 117 -404 306h196c13 -90 86 -153 217 -153
c157 0 222 70 222 156c0 114 -119 134 -264 162c-194 40 -352 90 -352 297zM552 1215h-163l190 279h208z" />
    <glyph glyph-name="Scircumflex" unicode="&#x15c;" horiz-adv-x="1172" 
d="M60 375h203c12 -124 119 -228 319 -228c182 0 294 86 294 223c0 108 -70 167 -219 204l-230 58c-170 42 -328 146 -328 364c0 259 228 400 485 400c252 0 478 -135 483 -394h-199c-11 122 -105 221 -287 221c-162 0 -275 -77 -275 -212c0 -92 62 -159 191 -190l228 -58
c207 -52 359 -149 359 -376c0 -268 -221 -415 -520 -415c-372 0 -499 221 -504 403zM251 1507l277 238h119l274 -238h-176l-155 140h-8l-155 -140h-176z" />
    <glyph glyph-name="scircumflex" unicode="&#x15d;" horiz-adv-x="998" 
d="M218 1217l213 298h133l204 -300h-162l-108 187h-4l-116 -185h-160zM98 750c0 226 191 322 401 322c248 0 384 -136 384 -318h-184c-6 76 -55 167 -206 167c-118 0 -200 -56 -200 -152c0 -122 146 -137 264 -158c197 -35 354 -94 354 -296c0 -211 -168 -333 -428 -333
c-243 0 -404 117 -404 306h196c13 -90 86 -153 217 -153c157 0 222 70 222 156c0 114 -119 134 -264 162c-194 40 -352 90 -352 297z" />
    <glyph glyph-name="Scedilla" unicode="&#x15e;" horiz-adv-x="1172" 
d="M584 -468c-63 -2 -122 7 -149 15v111c27 -8 81 -14 114 -14c54 0 116 15 116 73c0 64 -60 66 -136 66h-53v85l44 105c-338 17 -455 228 -460 402h203c12 -124 119 -228 319 -228c182 0 294 86 294 223c0 108 -70 167 -219 204l-230 58c-170 42 -328 146 -328 364
c0 259 228 400 485 400c252 0 478 -135 483 -394h-199c-11 122 -105 221 -287 221c-162 0 -275 -77 -275 -212c0 -92 62 -159 191 -190l228 -58c207 -52 359 -149 359 -376c0 -242 -180 -384 -432 -410l-38 -92c124 0 199 -55 199 -163c0 -129 -101 -185 -229 -190z" />
    <glyph glyph-name="scedilla" unicode="&#x15f;" horiz-adv-x="998" 
d="M493 -463c-63 -3 -122 7 -149 15v111c27 -8 81 -14 114 -14c54 0 116 15 116 73c0 63 -67 66 -143 66h-53v85l42 112c-208 18 -341 131 -341 303h196c13 -90 86 -153 217 -153c157 0 222 70 222 156c0 114 -119 134 -264 162c-194 40 -352 90 -352 297
c0 226 191 322 401 322c248 0 384 -136 384 -318h-184c-6 76 -55 167 -206 167c-118 0 -200 -56 -200 -152c0 -122 146 -137 264 -158c197 -35 354 -94 354 -296c0 -193 -140 -310 -360 -329l-36 -96c124 0 207 -55 207 -163c0 -129 -101 -185 -229 -190z" />
    <glyph glyph-name="Scaron" unicode="&#x160;" horiz-adv-x="1172" 
d="M60 375h203c12 -124 119 -228 319 -228c182 0 294 86 294 223c0 108 -70 167 -219 204l-230 58c-170 42 -328 146 -328 364c0 259 228 400 485 400c252 0 478 -135 483 -394h-199c-11 122 -105 221 -287 221c-162 0 -275 -77 -275 -212c0 -92 62 -159 191 -190l228 -58
c207 -52 359 -149 359 -376c0 -268 -221 -415 -520 -415c-372 0 -499 221 -504 403zM249 1729h177l155 -127h8l154 127h177l-275 -221h-119z" />
    <glyph glyph-name="scaron" unicode="&#x161;" horiz-adv-x="998" 
d="M223 1497h159l117 -186h4l108 187h162l-205 -299h-133zM98 750c0 226 191 322 401 322c248 0 384 -136 384 -318h-184c-6 76 -55 167 -206 167c-118 0 -200 -56 -200 -152c0 -122 146 -137 264 -158c197 -35 354 -94 354 -296c0 -211 -168 -333 -428 -333
c-243 0 -404 117 -404 306h196c13 -90 86 -153 217 -153c157 0 222 70 222 156c0 114 -119 134 -264 162c-194 40 -352 90 -352 297z" />
    <glyph glyph-name="Tcedilla" unicode="&#x162;" horiz-adv-x="1054" 
d="M539 -485c-63 -3 -122 7 -150 15v110c27 -8 82 -13 115 -13c54 0 116 15 116 73c0 63 -67 65 -143 65h-53v86l55 149h-54v1186h-407v179h1018v-179h-407v-1186h-19l-49 -132c124 0 207 -55 207 -163c0 -129 -101 -185 -229 -190z" />
    <glyph glyph-name="tcedilla" unicode="&#x163;" horiz-adv-x="700" 
d="M391 -465c-63 -2 -122 8 -149 16v110c27 -8 81 -14 114 -14c54 0 116 16 116 74c0 63 -67 65 -143 65h-53v86l55 149c-101 41 -131 131 -131 275v591h-145v163h147v264h199v-264h207v-163h-207v-581c0 -120 42 -152 165 -152c19 0 35 1 48 2v-157c-17 -3 -56 -7 -98 -7
c-22 0 -43 1 -63 2l-40 -105c125 0 207 -55 207 -163c0 -130 -101 -186 -229 -191z" />
    <glyph glyph-name="Tcaron" unicode="&#x164;" horiz-adv-x="1054" 
d="M192 1729h177l155 -127h8l154 127h177l-275 -221h-119zM629 0h-204v1186h-407v179h1018v-179h-407v-1186z" />
    <glyph glyph-name="tcaron" unicode="&#x165;" horiz-adv-x="722" 
d="M589 1698h175l-45 -488h-130v488zM202 1050v264h199v-264h207v-163h-207v-581c0 -120 42 -152 165 -152c19 0 35 1 48 2v-157c-17 -3 -56 -7 -98 -7c-253 0 -316 94 -316 304v591h-145v163h147z" />
    <glyph glyph-name="Tbar" unicode="&#x166;" horiz-adv-x="1054" 
d="M861 631h-232v-631h-204v631h-231v144h231v411h-406v179h1017v-179h-407v-411h232v-144z" />
    <glyph glyph-name="tbar" unicode="&#x167;" horiz-adv-x="683" 
d="M614 -1c-18 -3 -57 -7 -98 -7c-253 0 -316 94 -316 304v229h-139v138h139v224h-145v163h147v264h199v-264h207v-163h-207v-224h204v-138h-204v-219c0 -120 42 -152 165 -152c20 0 33 1 48 3v-158z" />
    <glyph glyph-name="Utilde" unicode="&#x168;" horiz-adv-x="1341" 
d="M348 1365v-881c0 -205 125 -331 322 -331c196 0 324 127 324 331v881h205v-891c0 -302 -212 -502 -529 -502c-316 0 -528 203 -528 505v888h206zM646 1538c-22 22 -45 49 -78 49c-52 0 -62 -50 -64 -91h-116c0 100 52 199 170 199c61 0 99 -25 142 -66
c27 -24 44 -49 78 -49c46 0 63 59 66 99h116c0 -98 -65 -200 -171 -200c-75 0 -109 26 -143 59z" />
    <glyph glyph-name="utilde" unicode="&#x169;" horiz-adv-x="1166" 
d="M1020 1054v-1054h-199v143h-9c-36 -83 -134 -160 -304 -160c-218 0 -370 125 -370 369v702h203v-646c0 -190 108 -247 235 -247c141 0 241 89 241 250v643h203zM549 1225c-23 24 -47 52 -82 52c-55 0 -65 -56 -68 -101h-124c0 119 55 232 185 232c60 0 102 -27 148 -74
c27 -27 45 -54 81 -54c49 0 66 66 69 110h124c0 -113 -70 -232 -186 -232c-75 0 -113 30 -147 67z" />
    <glyph glyph-name="Umacron" unicode="&#x16a;" horiz-adv-x="1341" 
d="M348 1365v-881c0 -205 125 -331 322 -331c196 0 324 127 324 331v881h205v-891c0 -302 -212 -502 -529 -502c-316 0 -528 203 -528 505v888h206zM949 1525h-558v110h558v-110z" />
    <glyph glyph-name="umacron" unicode="&#x16b;" horiz-adv-x="1166" 
d="M1020 1054v-1054h-199v143h-9c-36 -83 -134 -160 -304 -160c-218 0 -370 125 -370 369v702h203v-646c0 -190 108 -247 235 -247c141 0 241 89 241 250v643h203zM861 1214h-558v118h558v-118z" />
    <glyph glyph-name="Ubreve" unicode="&#x16c;" horiz-adv-x="1341" 
d="M348 1365v-881c0 -205 125 -331 322 -331c196 0 324 127 324 331v881h205v-891c0 -302 -212 -502 -529 -502c-316 0 -528 203 -528 505v888h206zM348 1756h132c0 -78 72 -142 190 -142s190 64 190 142h132c0 -135 -93 -267 -322 -267s-322 132 -322 267z" />
    <glyph glyph-name="ubreve" unicode="&#x16d;" horiz-adv-x="1166" 
d="M1020 1054v-1054h-199v143h-9c-36 -83 -134 -160 -304 -160c-218 0 -370 125 -370 369v702h203v-646c0 -190 108 -247 235 -247c141 0 241 89 241 250v643h203zM281 1446h132c0 -84 50 -164 166 -164s166 80 166 164h131c-1 -133 -91 -284 -297 -284
c-207 0 -299 151 -298 284z" />
    <glyph glyph-name="Uring" unicode="&#x16e;" horiz-adv-x="1341" 
d="M348 1365v-881c0 -205 125 -331 322 -331c196 0 324 127 324 331v881h205v-891c0 -302 -212 -502 -529 -502c-316 0 -528 203 -528 505v888h206zM669 1503c-111 0 -198 82 -198 193c0 110 87 192 198 192c110 0 197 -82 197 -192c0 -111 -87 -193 -197 -193zM569 1695
c0 -56 43 -100 100 -100c56 0 98 44 98 100c0 57 -42 100 -98 100c-57 0 -100 -43 -100 -100z" />
    <glyph glyph-name="uring" unicode="&#x16f;" horiz-adv-x="1166" 
d="M1020 1054v-1054h-199v143h-9c-36 -83 -134 -160 -304 -160c-218 0 -370 125 -370 369v702h203v-646c0 -190 108 -247 235 -247c141 0 241 89 241 250v643h203zM581 1192c-111 0 -198 82 -198 193c0 110 87 192 198 192c110 0 197 -82 197 -192
c0 -111 -87 -193 -197 -193zM481 1384c0 -56 43 -100 100 -100c56 0 98 44 98 100c0 57 -42 100 -98 100c-57 0 -100 -43 -100 -100z" />
    <glyph glyph-name="Uhungarumlaut" unicode="&#x170;" horiz-adv-x="1341" 
d="M348 1365v-881c0 -205 125 -331 322 -331c196 0 324 127 324 331v881h205v-891c0 -302 -212 -502 -529 -502c-316 0 -528 203 -528 505v888h206zM408 1510l271 218h188l-292 -218h-167zM733 1510l272 218h188l-293 -218h-167z" />
    <glyph glyph-name="uhungarumlaut" unicode="&#x171;" horiz-adv-x="1166" 
d="M473 1214h-129l214 315h169zM765 1214h-130l215 315h169zM1020 1054v-1054h-199v143h-9c-36 -83 -134 -160 -304 -160c-218 0 -370 125 -370 369v702h203v-646c0 -190 108 -247 235 -247c141 0 241 89 241 250v643h203z" />
    <glyph glyph-name="Uogonek" unicode="&#x172;" horiz-adv-x="1341" 
d="M968 -387c-122 0 -231 64 -231 198c0 63 23 136 97 195l-4 8c-38 -20 -82 -42 -172 -42c-298 0 -516 203 -516 505v888h206v-881c0 -205 125 -331 322 -331c196 0 324 127 324 331v881h205v-891c0 -192 -71 -306 -151 -391c-74 -82 -152 -137 -152 -228
c0 -72 52 -101 117 -101c20 0 49 3 76 10v-131c-18 -6 -66 -20 -121 -20z" />
    <glyph glyph-name="uogonek" unicode="&#x173;" horiz-adv-x="1166" 
d="M1030 -366c-21 -9 -67 -21 -129 -21c-116 0 -227 58 -227 195c0 120 91 185 150 229v138h-11c-29 -85 -128 -192 -315 -192c-209 0 -360 98 -360 344v727h203v-676c0 -171 101 -224 219 -224c145 0 257 107 257 241v659h203v-1047c-81 -25 -185 -80 -185 -162
c0 -61 49 -90 115 -90c24 0 58 3 80 8v-129z" />
    <glyph glyph-name="Wcircumflex" unicode="&#x174;" horiz-adv-x="1698" 
d="M516 1507l277 238h119l274 -238h-176l-155 140h-8l-155 -140h-176zM569 0h-187l-371 1365h233l238 -1037h7l261 1037h198l260 -1037h8l238 1037h232l-371 -1365h-187l-276 1030h-7z" />
    <glyph glyph-name="wcircumflex" unicode="&#x175;" horiz-adv-x="1493" 
d="M466 1217l213 298h133l204 -300h-162l-108 187h-4l-116 -185h-160zM1465 1054l-279 -1054h-203l-229 792h-5l-224 -792h-205l-292 1054h221l177 -815h9l221 815h190l228 -815h8l182 815h201z" />
    <glyph glyph-name="Ycircumflex" unicode="&#x176;" horiz-adv-x="1108" 
d="M656 0h-205v565l-456 800h232l324 -597h7l327 597h228l-457 -797v-568zM222 1507l277 238h119l274 -238h-176l-155 140h-8l-155 -140h-176z" />
    <glyph glyph-name="ycircumflex" unicode="&#x177;" horiz-adv-x="1052" 
d="M1009 1054c0 0 -365 -1044 -366 -1048l-27 -73c-63 -167 -145 -315 -381 -315c-44 0 -93 5 -119 9v157c16 -3 55 -5 80 -5c127 0 177 58 202 160l14 50l-381 1065h224l264 -864h9l266 864h215zM245 1217l213 298h133l204 -300h-162l-108 187h-4l-116 -185h-160z" />
    <glyph glyph-name="Ydieresis" unicode="&#x178;" horiz-adv-x="1108" 
d="M656 0h-205v565l-456 800h232l324 -597h7l327 597h228l-457 -797v-568zM333 1583c0 53 38 91 90 91c53 0 90 -38 90 -91c0 -51 -37 -90 -90 -90c-52 0 -90 39 -90 90zM642 1583c0 53 37 91 89 91c54 0 90 -38 90 -91c0 -51 -36 -90 -90 -90c-52 0 -89 39 -89 90z" />
    <glyph glyph-name="Zacute" unicode="&#x179;" horiz-adv-x="1156" 
d="M462 1510l255 206h219l-296 -206h-178zM83 0v141l708 1041v6h-685v177h937v-139l-703 -1042v-6h721v-178h-978z" />
    <glyph glyph-name="zacute" unicode="&#x17a;" horiz-adv-x="977" 
d="M542 1215h-163l190 279h208zM92 0v128l544 755v11h-544v160h792v-133l-537 -749v-10h545v-162h-800z" />
    <glyph glyph-name="Zdotaccent" unicode="&#x17b;" horiz-adv-x="1156" 
d="M83 0v141l708 1041v6h-685v177h937v-139l-703 -1042v-6h721v-178h-978zM472 1605c0 63 47 110 107 110c63 0 111 -47 111 -110c0 -62 -48 -107 -111 -107c-60 0 -107 45 -107 107z" />
    <glyph glyph-name="zdotaccent" unicode="&#x17c;" horiz-adv-x="977" 
d="M382 1294c0 63 47 110 107 110c63 0 111 -47 111 -110c0 -62 -48 -107 -111 -107c-60 0 -107 45 -107 107zM92 0v128l544 755v11h-544v160h792v-133l-537 -749v-10h545v-162h-800z" />
    <glyph glyph-name="Zcaron" unicode="&#x17d;" horiz-adv-x="1156" 
d="M83 0v141l708 1041v6h-685v177h937v-139l-703 -1042v-6h721v-178h-978zM244 1729h177l155 -127h8l154 127h177l-275 -221h-119z" />
    <glyph glyph-name="zcaron" unicode="&#x17e;" horiz-adv-x="977" 
d="M213 1497h159l117 -186h4l108 187h162l-205 -299h-133zM92 0v128l544 755v11h-544v160h792v-133l-537 -749v-10h545v-162h-800z" />
    <glyph glyph-name="florin" unicode="&#x192;" horiz-adv-x="1114" 
d="M141 -186l169 922h-208l28 164h209l30 179c37 213 163 314 379 314c241 0 306 -163 299 -276h-187c3 73 -53 114 -124 114c-92 0 -140 -59 -159 -167l-28 -164h294l-29 -164h-294l-168 -922h-211z" />
    <glyph glyph-name="Ohorn" unicode="&#x1a0;" horiz-adv-x="1335" 
d="M1221 580c0 -386 -219 -608 -561 -608c-343 0 -557 222 -557 608v192c0 388 218 621 560 621c194 0 282 -87 405 -87c111 0 136 65 136 153v99h172v-109c0 -180 -92 -281 -258 -281l-3 -6c53 -77 106 -230 106 -390v-192zM310 774v-195c0 -292 151 -428 351 -428
c201 0 352 136 352 428v195c0 291 -151 440 -352 440c-200 0 -351 -149 -351 -440z" />
    <glyph glyph-name="ohorn" unicode="&#x1a1;" horiz-adv-x="1124" 
d="M558 -18c-273 0 -463 169 -463 473v146c0 287 194 471 463 471c119 0 165 -42 275 -42c99 0 128 54 128 147v156h172v-157c0 -157 -56 -266 -206 -276v-8c44 -61 93 -172 93 -290v-146c0 -302 -193 -474 -462 -474zM558 906c-163 0 -261 -133 -261 -317v-123
c0 -186 92 -316 261 -316s258 130 258 316v123c0 184 -94 317 -258 317z" />
    <glyph glyph-name="Uhorn" unicode="&#x1af;" horiz-adv-x="1411" 
d="M670 -27c-316 0 -528 203 -528 504v888h206v-880c0 -205 125 -332 322 -332c196 0 324 127 324 332v880h207c100 0 127 59 127 147v107h170v-117c0 -159 -78 -281 -252 -281h-47v-747c0 -302 -212 -501 -529 -501z" />
    <glyph glyph-name="uhorn" unicode="&#x1b0;" horiz-adv-x="1265" 
d="M809 175c-29 -85 -127 -192 -312 -192c-211 0 -359 98 -359 344v727h203v-676c0 -171 101 -224 219 -224c145 0 257 107 257 241v659h182c100 0 124 59 124 147v132h171v-142c0 -157 -76 -279 -253 -279h-21v-912h-200v175h-11z" />
    <glyph glyph-name="Acaron" unicode="&#x1cd;" horiz-adv-x="1218" 
d="M230 0h-209l476 1365h223l476 -1365h-221l-127 391h-490zM607 1141h-7l-193 -590h392zM275 1729h177l155 -127h8l154 127h177l-275 -221h-119z" />
    <glyph glyph-name="acaron" unicode="&#x1ce;" horiz-adv-x="1072" 
d="M733 138c-49 -82 -145 -155 -301 -155c-204 0 -344 124 -344 319c0 186 129 309 371 309h271v118c0 123 -73 175 -204 175c-134 0 -195 -62 -205 -158h-194c9 185 129 325 407 325c239 0 398 -100 398 -344v-727h-192v138h-7zM491 143c136 0 239 92 239 214v111h-243
c-135 0 -195 -65 -195 -156c0 -116 96 -169 199 -169zM260 1497h159l117 -186h4l108 187h162l-205 -299h-133z" />
    <glyph glyph-name="Icaron" unicode="&#x1cf;" horiz-adv-x="521" 
d="M364 0h-206v1365h206v-1365zM-74 1729h177l155 -127h8l154 127h177l-275 -221h-119z" />
    <glyph glyph-name="icaron" unicode="&#x1d0;" horiz-adv-x="540" 
d="M-4 1497h159l117 -186h4l108 187h162l-205 -299h-133zM170 0v1054h205v-1054h-205z" />
    <glyph glyph-name="Ocaron" unicode="&#x1d1;" horiz-adv-x="1324" 
d="M327 1729h177l155 -127h8l154 127h177l-275 -221h-119zM310 774v-194c0 -292 151 -428 351 -428c201 0 352 136 352 428v194c0 291 -151 440 -352 440c-200 0 -351 -149 -351 -440zM103 580v192c0 388 218 621 560 621c343 0 558 -233 558 -621v-192
c0 -386 -219 -608 -561 -608c-343 0 -557 222 -557 608z" />
    <glyph glyph-name="ocaron" unicode="&#x1d2;" horiz-adv-x="1115" 
d="M282 1497h159l117 -186h4l108 187h162l-205 -299h-133zM558 1072c313 0 462 -208 462 -503v-81c0 -301 -149 -506 -462 -506s-463 202 -463 506v80c0 287 150 504 463 504zM558 906c-199 0 -261 -166 -261 -350v-57c0 -186 61 -349 261 -349s258 163 258 349v57
c0 184 -59 350 -258 350z" />
    <glyph glyph-name="Ucaron" unicode="&#x1d3;" horiz-adv-x="1341" 
d="M336 1729h177l155 -127h8l154 127h177l-275 -221h-119zM348 1365v-881c0 -205 125 -331 322 -331c196 0 324 127 324 331v881h205v-891c0 -302 -212 -502 -529 -502c-316 0 -528 203 -528 505v888h206z" />
    <glyph glyph-name="ucaron" unicode="&#x1d4;" horiz-adv-x="1166" 
d="M307 1497h159l117 -186h4l108 187h162l-205 -299h-133zM1020 1054v-1054h-199v143h-9c-36 -83 -134 -160 -304 -160c-218 0 -370 125 -370 369v702h203v-646c0 -190 108 -247 235 -247c141 0 241 89 241 250v643h203z" />
    <glyph glyph-name="Udieresismacron" unicode="&#x1d5;" horiz-adv-x="1341" 
d="M449 1583c0 53 38 91 90 91c53 0 90 -38 90 -91c0 -51 -37 -90 -90 -90c-52 0 -90 39 -90 90zM758 1583c0 53 37 91 89 91c54 0 90 -38 90 -91c0 -51 -36 -90 -90 -90c-52 0 -89 39 -89 90zM348 1365v-881c0 -205 125 -331 322 -331c196 0 324 127 324 331v881h205v-891
c0 -302 -212 -502 -529 -502c-316 0 -528 203 -528 505v888h206zM949 1795h-558v110h558v-110z" />
    <glyph glyph-name="udieresismacron" unicode="&#x1d6;" horiz-adv-x="1166" 
d="M1020 1054v-1054h-199v143h-9c-36 -83 -134 -160 -304 -160c-218 0 -370 125 -370 369v702h203v-646c0 -190 108 -247 235 -247c141 0 241 89 241 250v643h203zM300 1263c0 61 43 103 101 103c60 0 102 -42 102 -103c0 -58 -42 -101 -102 -101c-58 0 -101 43 -101 101z
M663 1263c0 61 42 103 100 103c61 0 103 -42 103 -103c0 -58 -42 -101 -103 -101c-58 0 -100 43 -100 101zM861 1520h-558v118h558v-118z" />
    <glyph glyph-name="Udieresisacute" unicode="&#x1d7;" horiz-adv-x="1341" 
d="M554 1738l255 206h219l-296 -206h-178zM449 1583c0 53 38 91 90 91c53 0 90 -38 90 -91c0 -51 -37 -90 -90 -90c-52 0 -90 39 -90 90zM758 1583c0 53 37 91 89 91c54 0 90 -38 90 -91c0 -51 -36 -90 -90 -90c-52 0 -89 39 -89 90zM348 1365v-881
c0 -205 125 -331 322 -331c196 0 324 127 324 331v881h205v-891c0 -302 -212 -502 -529 -502c-316 0 -528 203 -528 505v888h206z" />
    <glyph glyph-name="udieresisacute" unicode="&#x1d8;" horiz-adv-x="1166" 
d="M636 1481h-163l190 279h208zM1020 1054v-1054h-199v143h-9c-36 -83 -134 -160 -304 -160c-218 0 -370 125 -370 369v702h203v-646c0 -190 108 -247 235 -247c141 0 241 89 241 250v643h203zM300 1263c0 61 43 103 101 103c60 0 102 -42 102 -103
c0 -58 -42 -101 -102 -101c-58 0 -101 43 -101 101zM663 1263c0 61 42 103 100 103c61 0 103 -42 103 -103c0 -58 -42 -101 -103 -101c-58 0 -100 43 -100 101z" />
    <glyph glyph-name="Udieresiscaron" unicode="&#x1d9;" horiz-adv-x="1341" 
d="M449 1583c0 53 38 91 90 91c53 0 90 -38 90 -91c0 -51 -37 -90 -90 -90c-52 0 -90 39 -90 90zM758 1583c0 53 37 91 89 91c54 0 90 -38 90 -91c0 -51 -36 -90 -90 -90c-52 0 -89 39 -89 90zM336 1990h177l155 -127h8l154 127h177l-275 -221h-119zM348 1365v-881
c0 -205 125 -331 322 -331c196 0 324 127 324 331v881h205v-891c0 -302 -212 -502 -529 -502c-316 0 -528 203 -528 505v888h206z" />
    <glyph glyph-name="udieresiscaron" unicode="&#x1da;" horiz-adv-x="1166" 
d="M307 1796h159l117 -186h4l108 187h162l-205 -299h-133zM1020 1054v-1054h-199v143h-9c-36 -83 -134 -160 -304 -160c-218 0 -370 125 -370 369v702h203v-646c0 -190 108 -247 235 -247c141 0 241 89 241 250v643h203zM300 1263c0 61 43 103 101 103
c60 0 102 -42 102 -103c0 -58 -42 -101 -102 -101c-58 0 -101 43 -101 101zM663 1263c0 61 42 103 100 103c61 0 103 -42 103 -103c0 -58 -42 -101 -103 -101c-58 0 -100 43 -100 101z" />
    <glyph glyph-name="Udieresisgrave" unicode="&#x1db;" horiz-adv-x="1341" 
d="M786 1738h-175l-292 203h215zM449 1583c0 53 38 91 90 91c53 0 90 -38 90 -91c0 -51 -37 -90 -90 -90c-52 0 -90 39 -90 90zM758 1583c0 53 37 91 89 91c54 0 90 -38 90 -91c0 -51 -36 -90 -90 -90c-52 0 -89 39 -89 90zM348 1365v-881c0 -205 125 -331 322 -331
c196 0 324 127 324 331v881h205v-891c0 -302 -212 -502 -529 -502c-316 0 -528 203 -528 505v888h206z" />
    <glyph glyph-name="udieresisgrave" unicode="&#x1dc;" horiz-adv-x="1166" 
d="M690 1482h-164l-237 277h208zM1020 1054v-1054h-199v143h-9c-36 -83 -134 -160 -304 -160c-218 0 -370 125 -370 369v702h203v-646c0 -190 108 -247 235 -247c141 0 241 89 241 250v643h203zM300 1263c0 61 43 103 101 103c60 0 102 -42 102 -103
c0 -58 -42 -101 -102 -101c-58 0 -101 43 -101 101zM663 1263c0 61 42 103 100 103c61 0 103 -42 103 -103c0 -58 -42 -101 -103 -101c-58 0 -100 43 -100 101z" />
    <glyph glyph-name="Adieresismacron" unicode="&#x1de;" horiz-adv-x="1218" 
d="M230 0h-209l476 1365h223l476 -1365h-221l-127 391h-490zM607 1141h-7l-193 -590h392zM388 1583c0 53 38 91 90 91c53 0 90 -38 90 -91c0 -51 -37 -90 -90 -90c-52 0 -90 39 -90 90zM697 1583c0 53 37 91 89 91c54 0 90 -38 90 -91c0 -51 -36 -90 -90 -90
c-52 0 -89 39 -89 90zM888 1795h-558v110h558v-110z" />
    <glyph glyph-name="adieresismacron" unicode="&#x1df;" horiz-adv-x="1072" 
d="M733 138c-49 -82 -145 -155 -301 -155c-204 0 -344 124 -344 319c0 186 129 309 371 309h271v118c0 123 -73 175 -204 175c-134 0 -195 -62 -205 -158h-194c9 185 129 325 407 325c239 0 398 -100 398 -344v-727h-192v138h-7zM491 143c136 0 239 92 239 214v111h-243
c-135 0 -195 -65 -195 -156c0 -116 96 -169 199 -169zM253 1263c0 61 43 103 101 103c60 0 102 -42 102 -103c0 -58 -42 -101 -102 -101c-58 0 -101 43 -101 101zM616 1263c0 61 42 103 100 103c61 0 103 -42 103 -103c0 -58 -42 -101 -103 -101c-58 0 -100 43 -100 101z
M814 1520h-558v118h558v-118z" />
    <glyph glyph-name="Adotmacron" unicode="&#x1e0;" horiz-adv-x="1218" 
d="M230 0h-209l476 1365h223l476 -1365h-221l-127 391h-490zM607 1141h-7l-193 -590h392zM503 1605c0 63 47 110 107 110c63 0 111 -47 111 -110c0 -62 -48 -107 -111 -107c-60 0 -107 45 -107 107zM888 1795h-558v110h558v-110z" />
    <glyph glyph-name="adotmacron" unicode="&#x1e1;" horiz-adv-x="1072" 
d="M733 138c-49 -82 -145 -155 -301 -155c-204 0 -344 124 -344 319c0 186 129 309 371 309h271v118c0 123 -73 175 -204 175c-134 0 -195 -62 -205 -158h-194c9 185 129 325 407 325c239 0 398 -100 398 -344v-727h-192v138h-7zM491 143c136 0 239 92 239 214v111h-243
c-135 0 -195 -65 -195 -156c0 -116 96 -169 199 -169zM429 1294c0 63 47 110 107 110c63 0 111 -47 111 -110c0 -62 -48 -107 -111 -107c-60 0 -107 45 -107 107zM814 1520h-558v118h558v-118z" />
    <glyph glyph-name="AEmacron" unicode="&#x1e2;" horiz-adv-x="1864" 
d="M851 1188l-316 -618h387v618h-71zM922 405h-468l-212 -405h-230l719 1365h1021v-177h-626v-408h590v-170h-590v-433h626v-177h-830v405zM1620 1525h-558v110h558v-110z" />
    <glyph glyph-name="aemacron" unicode="&#x1e3;" horiz-adv-x="1714" 
d="M1198 -18c-209 0 -337 94 -384 203h-14c-50 -101 -165 -203 -356 -203c-213 0 -359 121 -359 322c0 191 134 313 379 313h269v102c0 128 -81 185 -210 185c-126 0 -187 -49 -206 -120h-193c15 177 157 288 406 288c138 0 264 -45 323 -138h13c61 89 185 138 318 138
c260 0 437 -182 437 -469v-126h-681v-76c0 -145 100 -252 256 -252c120 0 194 56 210 122h202c-14 -118 -135 -289 -410 -289zM1185 909c-140 0 -245 -109 -245 -262v-32h482v22c0 167 -90 272 -237 272zM494 143c134 0 239 92 239 214v117h-244c-136 0 -203 -67 -203 -159
c0 -117 102 -172 208 -172zM1135 1214h-558v118h558v-118z" />
    <glyph glyph-name="Gcaron" unicode="&#x1e6;" horiz-adv-x="1283" 
d="M323 1729h177l155 -127h8l154 127h177l-275 -221h-119zM1177 942h-203c-22 185 -158 271 -316 271c-192 0 -349 -129 -349 -436v-182c0 -271 114 -443 347 -443c192 0 325 119 325 282v116h-329v170h528v-279c0 -191 -130 -469 -524 -469c-373 0 -553 249 -553 623v183
c0 385 219 615 559 615c329 0 501 -215 515 -451z" />
    <glyph glyph-name="gcaron" unicode="&#x1e7;" horiz-adv-x="1134" 
d="M291 1497h159l117 -186h4l108 187h162l-205 -299h-133zM538 -230c178 0 266 92 266 253v153h-7c-41 -91 -153 -165 -301 -165c-233 0 -412 173 -412 461v132c0 284 175 466 415 466c174 0 263 -81 304 -164h6v148h196v-1033c0 -293 -204 -415 -474 -415
c-289 0 -416 153 -424 312h203c11 -78 82 -148 228 -148zM553 902c-163 0 -265 -125 -265 -322v-94c0 -198 111 -311 267 -311c160 0 248 136 248 301v105c0 180 -93 321 -250 321z" />
    <glyph glyph-name="Kcaron" unicode="&#x1e8;" horiz-adv-x="1209" 
d="M1177 1365l-502 -583l527 -782h-256l-423 641l-159 -175v-466h-206v1365h206v-644h9l568 644h236zM250 1729h177l155 -127h8l154 127h177l-275 -221h-119z" />
    <glyph glyph-name="kcaron" unicode="&#x1e9;" horiz-adv-x="1041" 
d="M-29 1880h159l117 -186h4l108 187h162l-205 -299h-133zM350 382v-382h-202v1437h202v-848h9l406 465h231l-405 -457l432 -597h-239l-343 476z" />
    <glyph glyph-name="Oogonek" unicode="&#x1ea;" horiz-adv-x="1324" 
d="M310 774v-194c0 -292 151 -428 351 -428c201 0 352 136 352 428v194c0 291 -151 440 -352 440c-200 0 -351 -149 -351 -440zM640 -27c-314 0 -537 226 -537 607v192c0 388 218 621 560 621c343 0 558 -233 558 -621v-192c0 -256 -90 -391 -176 -488
c-81 -91 -161 -146 -161 -236c0 -71 51 -100 119 -100c22 0 51 3 74 9v-133c-18 -5 -55 -19 -121 -19c-125 1 -231 66 -232 197c0 76 36 145 103 198l-6 10c-61 -35 -119 -45 -181 -45z" />
    <glyph glyph-name="oogonek" unicode="&#x1eb;" horiz-adv-x="1115" 
d="M558 906c-163 0 -261 -133 -261 -316v-124c0 -185 91 -316 261 -316c169 0 258 131 258 316v124c0 184 -95 316 -258 316zM668 18c-48 -24 -89 -33 -146 -33c-239 0 -427 172 -427 462v154c0 287 194 471 467 471c263 0 458 -174 458 -470v-146
c0 -198 -79 -302 -154 -384c-71 -76 -137 -130 -137 -211c0 -68 49 -106 120 -106c22 0 53 3 74 9v-132c-12 -4 -62 -19 -121 -19c-114 0 -232 56 -232 196c0 78 40 148 106 199z" />
    <glyph glyph-name="Oogonekmacron" unicode="&#x1ec;" horiz-adv-x="1324" 
d="M310 774v-194c0 -292 151 -428 351 -428c201 0 352 136 352 428v194c0 291 -151 440 -352 440c-200 0 -351 -149 -351 -440zM640 -27c-314 0 -537 226 -537 607v192c0 388 218 621 560 621c343 0 558 -233 558 -621v-192c0 -256 -90 -391 -176 -488
c-81 -91 -161 -146 -161 -236c0 -71 51 -100 119 -100c22 0 51 3 74 9v-133c-18 -5 -55 -19 -121 -19c-125 1 -231 66 -232 197c0 76 36 145 103 198l-6 10c-61 -35 -119 -45 -181 -45zM940 1525h-558v110h558v-110z" />
    <glyph glyph-name="oogonekmacron" unicode="&#x1ed;" horiz-adv-x="1115" 
d="M558 906c-163 0 -261 -133 -261 -316v-124c0 -185 91 -316 261 -316c169 0 258 131 258 316v124c0 184 -95 316 -258 316zM668 18c-48 -24 -89 -33 -146 -33c-239 0 -427 172 -427 462v154c0 287 194 471 467 471c263 0 458 -174 458 -470v-146
c0 -198 -79 -302 -154 -384c-71 -76 -137 -130 -137 -211c0 -68 49 -106 120 -106c22 0 53 3 74 9v-132c-12 -4 -62 -19 -121 -19c-114 0 -232 56 -232 196c0 78 40 148 106 199zM836 1214h-558v118h558v-118z" />
    <glyph glyph-name="Gacute" unicode="&#x1f4;" horiz-adv-x="1283" 
d="M541 1510l255 206h219l-296 -206h-178zM1177 942h-203c-22 185 -158 271 -316 271c-192 0 -349 -129 -349 -436v-182c0 -271 114 -443 347 -443c192 0 325 119 325 282v116h-329v170h528v-279c0 -191 -130 -469 -524 -469c-373 0 -553 249 -553 623v183
c0 385 219 615 559 615c329 0 501 -215 515 -451z" />
    <glyph glyph-name="gacute" unicode="&#x1f5;" horiz-adv-x="1134" 
d="M620 1215h-163l190 279h208zM538 -230c178 0 266 92 266 253v153h-7c-41 -91 -153 -165 -301 -165c-233 0 -412 173 -412 461v132c0 284 175 466 415 466c174 0 263 -81 304 -164h6v148h196v-1033c0 -293 -204 -415 -474 -415c-289 0 -416 153 -424 312h203
c11 -78 82 -148 228 -148zM553 902c-163 0 -265 -125 -265 -322v-94c0 -198 111 -311 267 -311c160 0 248 136 248 301v105c0 180 -93 321 -250 321z" />
    <glyph glyph-name="Ngrave" unicode="&#x1f8;" horiz-adv-x="1368" 
d="M799 1510h-175l-292 203h215zM357 0h-199v1365h187l659 -1014h6v1014h200v-1365h-187l-660 1016h-6v-1016z" />
    <glyph glyph-name="ngrave" unicode="&#x1f9;" horiz-adv-x="1171" 
d="M693 1217h-164l-237 277h208zM146 0v1054h199v-143h7c38 81 144 160 303 160c210 0 375 -129 375 -372v-699h-203v630c0 181 -85 263 -237 263c-153 0 -243 -93 -243 -270v-623h-201z" />
    <glyph glyph-name="Aringacute" unicode="&#x1fa;" horiz-adv-x="1219" 
d="M557 1644l311 250h228l-330 -250h-209zM499 1502c0 -59 49 -107 108 -107s107 48 107 107c0 60 -48 107 -107 107s-108 -47 -108 -107zM800 551l-191 590h-9l-192 -590h392zM230 0h-208l465 1329c-59 35 -98 100 -98 174c0 119 97 214 218 214c119 0 216 -95 216 -214
c0 -72 -38 -134 -92 -168l466 -1335h-221l-127 391h-490z" />
    <glyph glyph-name="aringacute" unicode="&#x1fb;" horiz-adv-x="1072" 
d="M691 1510h-158l239 339h210zM733 138c-49 -82 -145 -155 -301 -155c-204 0 -344 124 -344 319c0 186 129 309 371 309h271v118c0 123 -73 175 -204 175c-134 0 -195 -62 -205 -158h-194c9 185 129 325 407 325c239 0 398 -100 398 -344v-727h-192v138h-7zM491 143
c136 0 239 92 239 214v111h-243c-135 0 -195 -65 -195 -156c0 -116 96 -169 199 -169zM542 1192c-111 0 -198 82 -198 193c0 110 87 192 198 192c110 0 197 -82 197 -192c0 -111 -87 -193 -197 -193zM442 1384c0 -56 43 -100 100 -100c56 0 98 44 98 100
c0 57 -42 100 -98 100c-57 0 -100 -43 -100 -100z" />
    <glyph glyph-name="AEacute" unicode="&#x1fc;" horiz-adv-x="1864" 
d="M1225 1510l255 206h219l-296 -206h-178zM851 1188l-316 -618h387v618h-71zM922 405h-468l-212 -405h-230l719 1365h1021v-177h-626v-408h590v-170h-590v-433h626v-177h-830v405z" />
    <glyph glyph-name="aeacute" unicode="&#x1fd;" horiz-adv-x="1714" 
d="M910 1215h-163l190 279h208zM1198 -18c-209 0 -337 94 -384 203h-14c-50 -101 -165 -203 -356 -203c-213 0 -359 121 -359 322c0 191 134 313 379 313h269v102c0 128 -81 185 -210 185c-126 0 -187 -49 -206 -120h-193c15 177 157 288 406 288c138 0 264 -45 323 -138h13
c61 89 185 138 318 138c260 0 437 -182 437 -469v-126h-681v-76c0 -145 100 -252 256 -252c120 0 194 56 210 122h202c-14 -118 -135 -289 -410 -289zM1185 909c-140 0 -245 -109 -245 -262v-32h482v22c0 167 -90 272 -237 272zM494 143c134 0 239 92 239 214v117h-244
c-136 0 -203 -67 -203 -159c0 -117 102 -172 208 -172z" />
    <glyph glyph-name="Oslashacute" unicode="&#x1fe;" horiz-adv-x="1324" 
d="M660 -28c-156 0 -286 47 -380 136l-100 -124l-105 86l116 145c-57 96 -88 219 -88 365v192c0 388 218 621 560 621c151 0 279 -47 373 -133l95 118l109 -79l-116 -144c63 -100 97 -229 97 -383v-192c0 -386 -219 -608 -561 -608zM308 579c0 -72 10 -135 28 -186l576 714
c-63 72 -151 109 -251 109c-202 0 -353 -149 -353 -442v-195zM661 149c203 0 354 136 354 430v195c0 79 -12 148 -34 204l-578 -718c63 -75 154 -111 258 -111zM545 1510l255 206h219l-296 -206h-178z" />
    <glyph glyph-name="oslashacute" unicode="&#x1ff;" horiz-adv-x="1115" 
d="M390 201c43 -36 99 -56 168 -56c170 0 264 135 264 322v148c0 53 -11 99 -30 137zM292 442c0 -54 11 -103 30 -141l402 553c-42 37 -98 58 -166 58c-164 0 -266 -137 -266 -322v-148zM558 -18c-103 0 -196 28 -272 79l-101 -136l-99 75l108 146c-62 79 -99 184 -99 309
v146c0 287 194 471 463 471c101 0 194 -29 269 -80l101 135l99 -77l-107 -144c63 -79 100 -182 100 -304v-146c0 -302 -193 -474 -462 -474zM611 1215h-163l190 279h208z" />
    <glyph glyph-name="Adblgrave" unicode="&#x200;" horiz-adv-x="1218" 
d="M230 0h-209l476 1365h223l476 -1365h-221l-127 391h-490zM607 1141h-7l-193 -590h392zM872 1510h-166l-293 218h188zM547 1510h-167l-292 218h188z" />
    <glyph glyph-name="adblgrave" unicode="&#x201;" horiz-adv-x="1072" 
d="M733 138c-49 -82 -145 -155 -301 -155c-204 0 -344 124 -344 319c0 186 129 309 371 309h271v118c0 123 -73 175 -204 175c-134 0 -195 -62 -205 -158h-194c9 185 129 325 407 325c239 0 398 -100 398 -344v-727h-192v138h-7zM491 143c136 0 239 92 239 214v111h-243
c-135 0 -195 -65 -195 -156c0 -116 96 -169 199 -169zM334 1214l-254 315h170l215 -315h-131zM627 1214l-255 315h169l215 -315h-129z" />
    <glyph glyph-name="Ainvertedbreve" unicode="&#x202;" horiz-adv-x="1218" 
d="M230 0h-209l476 1365h223l476 -1365h-221l-127 391h-490zM607 1141h-7l-193 -590h392zM609 1636c-116 0 -190 -64 -190 -141h-132c0 134 94 266 322 266s322 -132 322 -266h-132c0 77 -74 141 -190 141z" />
    <glyph glyph-name="ainvertedbreve" unicode="&#x203;" horiz-adv-x="1072" 
d="M733 138c-49 -82 -145 -155 -301 -155c-204 0 -344 124 -344 319c0 186 129 309 371 309h271v118c0 123 -73 175 -204 175c-134 0 -195 -62 -205 -158h-194c9 185 129 325 407 325c239 0 398 -100 398 -344v-727h-192v138h-7zM491 143c136 0 239 92 239 214v111h-243
c-135 0 -195 -65 -195 -156c0 -116 96 -169 199 -169zM237 1193c1 133 91 284 298 284s298 -151 297 -284h-131c0 84 -50 164 -166 164s-166 -80 -166 -164h-132z" />
    <glyph glyph-name="Edblgrave" unicode="&#x204;" horiz-adv-x="1107" 
d="M834 1510h-166l-293 218h188zM509 1510h-167l-292 218h188zM996 177v-177h-838v1365h838v-177h-633v-408h597v-170h-597v-433h633z" />
    <glyph glyph-name="edblgrave" unicode="&#x205;" horiz-adv-x="1075" 
d="M554 -18c-303 0 -459 200 -459 495v93c0 296 156 502 446 502c294 0 444 -206 444 -500v-92h-689v-30c0 -157 79 -301 257 -301c140 0 202 73 218 148h201c-20 -137 -133 -315 -418 -315zM296 628h490v3c0 161 -91 278 -245 278c-153 0 -245 -118 -245 -278v-3zM336 1214
l-254 315h170l215 -315h-131zM629 1214l-255 315h169l215 -315h-129z" />
    <glyph glyph-name="Einvertedbreve" unicode="&#x206;" horiz-adv-x="1107" 
d="M996 177v-177h-838v1365h838v-177h-633v-408h597v-170h-597v-433h633zM571 1636c-116 0 -190 -64 -190 -141h-132c0 134 94 266 322 266s322 -132 322 -266h-132c0 77 -74 141 -190 141z" />
    <glyph glyph-name="einvertedbreve" unicode="&#x207;" horiz-adv-x="1075" 
d="M554 -18c-303 0 -459 200 -459 495v93c0 296 156 502 446 502c294 0 444 -206 444 -500v-92h-689v-30c0 -157 79 -301 257 -301c140 0 202 73 218 148h201c-20 -137 -133 -315 -418 -315zM296 628h490v3c0 161 -91 278 -245 278c-153 0 -245 -118 -245 -278v-3zM239 1193
c1 133 91 284 298 284s298 -151 297 -284h-131c0 84 -50 164 -166 164s-166 -80 -166 -164h-132z" />
    <glyph glyph-name="Idblgrave" unicode="&#x208;" horiz-adv-x="521" 
d="M364 0h-206v1365h206v-1365zM523 1510h-166l-293 218h188zM198 1510h-167l-292 218h188z" />
    <glyph glyph-name="idblgrave" unicode="&#x209;" horiz-adv-x="540" 
d="M170 0v1054h205v-1054h-205zM70 1214l-254 315h170l215 -315h-131zM363 1214l-255 315h169l215 -315h-129z" />
    <glyph glyph-name="Iinvertedbreve" unicode="&#x20a;" horiz-adv-x="521" 
d="M364 0h-206v1365h206v-1365zM260 1636c-116 0 -190 -64 -190 -141h-132c0 134 94 266 322 266s322 -132 322 -266h-132c0 77 -74 141 -190 141z" />
    <glyph glyph-name="iinvertedbreve" unicode="&#x20b;" horiz-adv-x="540" 
d="M170 0v1054h205v-1054h-205zM-27 1193c1 133 91 284 298 284s298 -151 297 -284h-131c0 84 -50 164 -166 164s-166 -80 -166 -164h-132z" />
    <glyph glyph-name="Odblgrave" unicode="&#x20c;" horiz-adv-x="1324" 
d="M924 1510h-166l-293 218h188zM599 1510h-167l-292 218h188zM310 774v-194c0 -292 151 -428 351 -428c201 0 352 136 352 428v194c0 291 -151 440 -352 440c-200 0 -351 -149 -351 -440zM103 580v192c0 388 218 621 560 621c343 0 558 -233 558 -621v-192
c0 -386 -219 -608 -561 -608c-343 0 -557 222 -557 608z" />
    <glyph glyph-name="odblgrave" unicode="&#x20d;" horiz-adv-x="1115" 
d="M558 1072c313 0 462 -208 462 -503v-81c0 -301 -149 -506 -462 -506s-463 202 -463 506v80c0 287 150 504 463 504zM558 906c-199 0 -261 -166 -261 -350v-57c0 -186 61 -349 261 -349s258 163 258 349v57c0 184 -59 350 -258 350zM356 1214l-254 315h170l215 -315h-131z
M649 1214l-255 315h169l215 -315h-129z" />
    <glyph glyph-name="Oinvertedbreve" unicode="&#x20e;" horiz-adv-x="1324" 
d="M661 1636c-116 0 -190 -64 -190 -141h-132c0 134 94 266 322 266s322 -132 322 -266h-132c0 77 -74 141 -190 141zM310 774v-194c0 -292 151 -428 351 -428c201 0 352 136 352 428v194c0 291 -151 440 -352 440c-200 0 -351 -149 -351 -440zM103 580v192
c0 388 218 621 560 621c343 0 558 -233 558 -621v-192c0 -386 -219 -608 -561 -608c-343 0 -557 222 -557 608z" />
    <glyph glyph-name="oinvertedbreve" unicode="&#x20f;" horiz-adv-x="1115" 
d="M558 1072c313 0 462 -208 462 -503v-81c0 -301 -149 -506 -462 -506s-463 202 -463 506v80c0 287 150 504 463 504zM558 906c-199 0 -261 -166 -261 -350v-57c0 -186 61 -349 261 -349s258 163 258 349v57c0 184 -59 350 -258 350zM259 1193c1 133 91 284 298 284
s298 -151 297 -284h-131c0 84 -50 164 -166 164s-166 -80 -166 -164h-132z" />
    <glyph glyph-name="Rdblgrave" unicode="&#x210;" horiz-adv-x="1228" 
d="M844 1510h-166l-293 218h188zM519 1510h-167l-292 218h188zM668 1365c310 0 452 -192 452 -415c0 -224 -138 -339 -252 -381l277 -569h-233l-248 532h-302v-532h-204v1365h510zM362 701h272c178 0 273 86 273 240c0 166 -107 252 -267 252h-278v-492z" />
    <glyph glyph-name="rdblgrave" unicode="&#x211;" horiz-adv-x="724" 
d="M161 0v1054h201v-130h7c29 64 82 146 256 146c26 0 50 -2 70 -5v-181c-18 4 -55 6 -90 6c-181 0 -240 -108 -240 -250v-640h-204zM219 1214l-254 315h170l215 -315h-131zM512 1214l-255 315h169l215 -315h-129z" />
    <glyph glyph-name="Rinvertedbreve" unicode="&#x212;" horiz-adv-x="1228" 
d="M668 1365c310 0 452 -192 452 -415c0 -224 -138 -339 -252 -381l277 -569h-233l-248 532h-302v-532h-204v1365h510zM362 701h272c178 0 273 86 273 240c0 166 -107 252 -267 252h-278v-492zM581 1636c-116 0 -190 -64 -190 -141h-132c0 134 94 266 322 266
s322 -132 322 -266h-132c0 77 -74 141 -190 141z" />
    <glyph glyph-name="rinvertedbreve" unicode="&#x213;" horiz-adv-x="724" 
d="M161 0v1054h201v-130h7c29 64 82 146 256 146c26 0 50 -2 70 -5v-181c-18 4 -55 6 -90 6c-181 0 -240 -108 -240 -250v-640h-204zM122 1193c1 133 91 284 298 284s298 -151 297 -284h-131c0 84 -50 164 -166 164s-166 -80 -166 -164h-132z" />
    <glyph glyph-name="Udblgrave" unicode="&#x214;" horiz-adv-x="1341" 
d="M933 1510h-166l-293 218h188zM608 1510h-167l-292 218h188zM348 1365v-881c0 -205 125 -331 322 -331c196 0 324 127 324 331v881h205v-891c0 -302 -212 -502 -529 -502c-316 0 -528 203 -528 505v888h206z" />
    <glyph glyph-name="udblgrave" unicode="&#x215;" horiz-adv-x="1166" 
d="M1020 1054v-1054h-199v143h-9c-36 -83 -134 -160 -304 -160c-218 0 -370 125 -370 369v702h203v-646c0 -190 108 -247 235 -247c141 0 241 89 241 250v643h203zM381 1214l-254 315h170l215 -315h-131zM674 1214l-255 315h169l215 -315h-129z" />
    <glyph glyph-name="Uinvertedbreve" unicode="&#x216;" horiz-adv-x="1341" 
d="M348 1365v-881c0 -205 125 -331 322 -331c196 0 324 127 324 331v881h205v-891c0 -302 -212 -502 -529 -502c-316 0 -528 203 -528 505v888h206zM670 1636c-116 0 -190 -64 -190 -141h-132c0 134 94 266 322 266s322 -132 322 -266h-132c0 77 -74 141 -190 141z" />
    <glyph glyph-name="uinvertedbreve" unicode="&#x217;" horiz-adv-x="1166" 
d="M1020 1054v-1054h-199v143h-9c-36 -83 -134 -160 -304 -160c-218 0 -370 125 -370 369v702h203v-646c0 -190 108 -247 235 -247c141 0 241 89 241 250v643h203zM284 1193c1 133 91 284 298 284s298 -151 297 -284h-131c0 84 -50 164 -166 164s-166 -80 -166 -164h-132z
" />
    <glyph glyph-name="Scommaaccent" unicode="&#x218;" horiz-adv-x="1172" 
d="M60 375h203c12 -124 119 -228 319 -228c182 0 294 86 294 223c0 108 -70 167 -219 204l-230 58c-170 42 -328 146 -328 364c0 259 228 400 485 400c252 0 478 -135 483 -394h-199c-11 122 -105 221 -287 221c-162 0 -275 -77 -275 -212c0 -92 62 -159 191 -190l228 -58
c207 -52 359 -149 359 -376c0 -268 -221 -415 -520 -415c-372 0 -499 221 -504 403zM550 -489h-149l85 335h178z" />
    <glyph glyph-name="scommaaccent" unicode="&#x219;" horiz-adv-x="998" 
d="M98 750c0 226 191 322 401 322c248 0 384 -136 384 -318h-184c-6 76 -55 167 -206 167c-118 0 -200 -56 -200 -152c0 -122 146 -137 264 -158c197 -35 354 -94 354 -296c0 -211 -168 -333 -428 -333c-243 0 -404 117 -404 306h196c13 -90 86 -153 217 -153
c157 0 222 70 222 156c0 114 -119 134 -264 162c-194 40 -352 90 -352 297zM484 -489h-149l85 335h178z" />
    <glyph glyph-name="Tcommaaccent" unicode="&#x21a;" horiz-adv-x="1054" 
d="M512 -489h-149l85 335h178zM629 0h-204v1186h-407v179h1018v-179h-407v-1186z" />
    <glyph glyph-name="tcommaaccent" unicode="&#x21b;" horiz-adv-x="683" 
d="M402 -489h-149l85 335h178zM202 1050v264h199v-264h207v-163h-207v-581c0 -120 42 -152 165 -152c19 0 35 1 48 2v-157c-17 -3 -56 -7 -98 -7c-253 0 -316 94 -316 304v591h-145v163h147z" />
    <glyph glyph-name="Hcaron" unicode="&#x21e;" horiz-adv-x="1377" 
d="M1220 0h-206v615h-650v-615h-206v1365h206v-572h650v572h206v-1365zM354 1729h177l155 -127h8l154 127h177l-275 -221h-119z" />
    <glyph glyph-name="hcaron" unicode="&#x21f;" horiz-adv-x="1177" 
d="M149 0v1437h202v-526h8c30 69 120 160 293 160c233 0 385 -166 385 -410v-661h-202v617c0 168 -84 276 -237 276s-247 -99 -247 -276v-617h-202zM-28 1880h159l117 -186h4l108 187h162l-205 -299h-133z" />
    <glyph glyph-name="Adotaccent" unicode="&#x226;" horiz-adv-x="1218" 
d="M230 0h-209l476 1365h223l476 -1365h-221l-127 391h-490zM607 1141h-7l-193 -590h392zM503 1605c0 63 47 110 107 110c63 0 111 -47 111 -110c0 -62 -48 -107 -111 -107c-60 0 -107 45 -107 107z" />
    <glyph glyph-name="adotaccent" unicode="&#x227;" horiz-adv-x="1072" 
d="M733 138c-49 -82 -145 -155 -301 -155c-204 0 -344 124 -344 319c0 186 129 309 371 309h271v118c0 123 -73 175 -204 175c-134 0 -195 -62 -205 -158h-194c9 185 129 325 407 325c239 0 398 -100 398 -344v-727h-192v138h-7zM491 143c136 0 239 92 239 214v111h-243
c-135 0 -195 -65 -195 -156c0 -116 96 -169 199 -169zM429 1294c0 63 47 110 107 110c63 0 111 -47 111 -110c0 -62 -48 -107 -111 -107c-60 0 -107 45 -107 107z" />
    <glyph glyph-name="Ecedilla" unicode="&#x228;" horiz-adv-x="1107" 
d="M573 -469c-63 -2 -122 8 -149 15v111c27 -8 81 -14 114 -14c54 0 116 15 116 73c0 64 -67 66 -143 66h-53v85l50 133h-350v1365h838v-177h-633v-408h597v-170h-597v-433h633v-177h-357l-44 -115c124 0 207 -55 207 -163c0 -130 -101 -186 -229 -191z" />
    <glyph glyph-name="ecedilla" unicode="&#x229;" horiz-adv-x="1075" 
d="M296 628h490v3c0 161 -91 278 -245 278c-153 0 -245 -118 -245 -278v-3zM551 -485c-63 -3 -122 7 -149 15v110c27 -8 81 -13 115 -13c54 0 115 15 115 73c0 63 -67 65 -143 65h-53v86l51 135c-260 27 -392 218 -392 491v93c0 296 156 502 446 502
c294 0 444 -206 444 -500v-92h-689v-30c0 -157 79 -301 257 -301c140 0 202 73 218 148h201c-18 -126 -115 -287 -354 -311l-44 -118c124 0 206 -55 206 -163c0 -129 -100 -185 -229 -190z" />
    <glyph glyph-name="Odieresismacron" unicode="&#x22a;" horiz-adv-x="1324" 
d="M440 1583c0 53 38 91 90 91c53 0 90 -38 90 -91c0 -51 -37 -90 -90 -90c-52 0 -90 39 -90 90zM749 1583c0 53 37 91 89 91c54 0 90 -38 90 -91c0 -51 -36 -90 -90 -90c-52 0 -89 39 -89 90zM310 774v-194c0 -292 151 -428 351 -428c201 0 352 136 352 428v194
c0 291 -151 440 -352 440c-200 0 -351 -149 -351 -440zM103 580v192c0 388 218 621 560 621c343 0 558 -233 558 -621v-192c0 -386 -219 -608 -561 -608c-343 0 -557 222 -557 608zM940 1795h-558v110h558v-110z" />
    <glyph glyph-name="odieresismacron" unicode="&#x22b;" horiz-adv-x="1115" 
d="M275 1263c0 61 43 103 101 103c60 0 102 -42 102 -103c0 -58 -42 -101 -102 -101c-58 0 -101 43 -101 101zM638 1263c0 61 42 103 100 103c61 0 103 -42 103 -103c0 -58 -42 -101 -103 -101c-58 0 -100 43 -100 101zM558 1072c313 0 462 -208 462 -503v-81
c0 -301 -149 -506 -462 -506s-463 202 -463 506v80c0 287 150 504 463 504zM558 906c-199 0 -261 -166 -261 -350v-57c0 -186 61 -349 261 -349s258 163 258 349v57c0 184 -59 350 -258 350zM836 1520h-558v118h558v-118z" />
    <glyph glyph-name="Otildemacron" unicode="&#x22c;" horiz-adv-x="1324" 
d="M310 774v-194c0 -292 151 -428 351 -428c201 0 352 136 352 428v194c0 291 -151 440 -352 440c-200 0 -351 -149 -351 -440zM103 580v192c0 388 218 621 560 621c343 0 558 -233 558 -621v-192c0 -386 -219 -608 -561 -608c-343 0 -557 222 -557 608zM637 1538
c-22 22 -45 49 -78 49c-52 0 -62 -50 -64 -91h-116c0 100 52 199 170 199c61 0 99 -25 142 -66c27 -24 44 -49 78 -49c46 0 63 59 66 99h116c0 -98 -65 -200 -171 -200c-75 0 -109 26 -143 59zM940 1795h-558v110h558v-110z" />
    <glyph glyph-name="otildemacron" unicode="&#x22d;" horiz-adv-x="1115" 
d="M524 1225c-23 24 -47 52 -82 52c-55 0 -65 -56 -68 -101h-124c0 119 55 232 185 232c60 0 102 -27 148 -74c27 -27 45 -54 81 -54c49 0 66 66 69 110h124c0 -113 -70 -232 -186 -232c-75 0 -113 30 -147 67zM836 1520h-558v118h558v-118zM558 1072
c313 0 462 -208 462 -503v-81c0 -301 -149 -506 -462 -506s-463 202 -463 506v80c0 287 150 504 463 504zM558 906c-199 0 -261 -166 -261 -350v-57c0 -186 61 -349 261 -349s258 163 258 349v57c0 184 -59 350 -258 350z" />
    <glyph glyph-name="Odotaccent" unicode="&#x22e;" horiz-adv-x="1324" 
d="M555 1605c0 63 47 110 107 110c63 0 111 -47 111 -110c0 -62 -48 -107 -111 -107c-60 0 -107 45 -107 107zM310 774v-194c0 -292 151 -428 351 -428c201 0 352 136 352 428v194c0 291 -151 440 -352 440c-200 0 -351 -149 -351 -440zM103 580v192c0 388 218 621 560 621
c343 0 558 -233 558 -621v-192c0 -386 -219 -608 -561 -608c-343 0 -557 222 -557 608z" />
    <glyph glyph-name="odotaccent" unicode="&#x22f;" horiz-adv-x="1115" 
d="M451 1294c0 63 47 110 107 110c63 0 111 -47 111 -110c0 -62 -48 -107 -111 -107c-60 0 -107 45 -107 107zM558 1072c313 0 462 -208 462 -503v-81c0 -301 -149 -506 -462 -506s-463 202 -463 506v80c0 287 150 504 463 504zM558 906c-199 0 -261 -166 -261 -350v-57
c0 -186 61 -349 261 -349s258 163 258 349v57c0 184 -59 350 -258 350z" />
    <glyph glyph-name="Odotaccentmacron" unicode="&#x230;" horiz-adv-x="1324" 
d="M555 1605c0 63 47 110 107 110c63 0 111 -47 111 -110c0 -62 -48 -107 -111 -107c-60 0 -107 45 -107 107zM310 774v-194c0 -292 151 -428 351 -428c201 0 352 136 352 428v194c0 291 -151 440 -352 440c-200 0 -351 -149 -351 -440zM103 580v192c0 388 218 621 560 621
c343 0 558 -233 558 -621v-192c0 -386 -219 -608 -561 -608c-343 0 -557 222 -557 608zM940 1795h-558v110h558v-110z" />
    <glyph glyph-name="odotaccentmacron" unicode="&#x231;" horiz-adv-x="1115" 
d="M451 1294c0 63 47 110 107 110c63 0 111 -47 111 -110c0 -62 -48 -107 -111 -107c-60 0 -107 45 -107 107zM836 1520h-558v118h558v-118zM558 1072c313 0 462 -208 462 -503v-81c0 -301 -149 -506 -462 -506s-463 202 -463 506v80c0 287 150 504 463 504zM558 906
c-199 0 -261 -166 -261 -350v-57c0 -186 61 -349 261 -349s258 163 258 349v57c0 184 -59 350 -258 350z" />
    <glyph glyph-name="Ymacron" unicode="&#x232;" horiz-adv-x="1108" 
d="M656 0h-205v565l-456 800h232l324 -597h7l327 597h228l-457 -797v-568zM833 1525h-558v110h558v-110z" />
    <glyph glyph-name="ymacron" unicode="&#x233;" horiz-adv-x="1052" 
d="M1009 1054c0 0 -365 -1044 -366 -1048l-27 -73c-63 -167 -145 -315 -381 -315c-44 0 -93 5 -119 9v157c16 -3 55 -5 80 -5c127 0 177 58 202 160l14 50l-381 1065h224l264 -864h9l266 864h215zM804 1214h-558v118h558v-118z" />
    <glyph glyph-name="circumflex" unicode="&#x2c6;" horiz-adv-x="946" 
d="M222 1204l213 298h133l204 -300h-162l-108 187h-4l-116 -185h-160z" />
    <glyph glyph-name="caron" unicode="&#x2c7;" horiz-adv-x="946" 
d="M194 1525h159l117 -186h4l108 187h162l-205 -299h-133z" />
    <glyph glyph-name="breve" unicode="&#x2d8;" horiz-adv-x="946" 
d="M171 1534h132c0 -84 50 -164 166 -164s166 80 166 164h131c-1 -133 -91 -284 -297 -284c-207 0 -299 151 -298 284z" />
    <glyph glyph-name="dotaccent" unicode="&#x2d9;" horiz-adv-x="946" 
d="M366 1432c0 73 55 123 123 123c72 0 127 -51 127 -123s-56 -121 -127 -121c-68 0 -123 49 -123 121z" />
    <glyph glyph-name="ring" unicode="&#x2da;" horiz-adv-x="946" 
d="M482 1226c-111 0 -198 82 -198 193c0 110 87 192 198 192c110 0 197 -82 197 -192c0 -111 -87 -193 -197 -193zM382 1418c0 -56 43 -100 100 -100c56 0 98 44 98 100c0 57 -42 100 -98 100c-57 0 -100 -43 -100 -100z" />
    <glyph glyph-name="ogonek" unicode="&#x2db;" horiz-adv-x="946" 
d="M649 -236v-129c-18 -8 -61 -22 -135 -22c-117 0 -214 61 -214 188c0 133 127 235 175 297h128c-53 -57 -146 -158 -146 -248c0 -66 50 -95 108 -95c23 0 58 3 84 9z" />
    <glyph glyph-name="tilde" unicode="&#x2dc;" horiz-adv-x="946" 
d="M392 1293c-23 24 -47 52 -82 52c-55 0 -65 -56 -68 -101h-124c0 119 55 232 185 232c60 0 102 -27 148 -74c27 -27 45 -54 81 -54c49 0 66 66 69 110h124c0 -113 -70 -232 -186 -232c-75 0 -113 30 -147 67z" />
    <glyph glyph-name="hungarumlaut" unicode="&#x2dd;" horiz-adv-x="946" 
d="M252 1215h-129l214 315h169zM544 1215h-130l215 315h169z" />
    <glyph glyph-name="gravecmb" unicode="&#x300;" 
d="M108 1217h-164l-237 277h208z" />
    <glyph glyph-name="acutecmb" unicode="&#x301;" 
d="M54 1215h-163l190 279h208z" />
    <glyph glyph-name="circumflexcmb" unicode="&#x302;" 
d="M-280 1217l213 298h133l204 -300h-162l-108 187h-4l-116 -185h-160z" />
    <glyph glyph-name="tildecmb" unicode="&#x303;" 
d="M-33 1225c-23 24 -47 52 -82 52c-55 0 -65 -56 -68 -101h-124c0 119 55 232 185 232c60 0 102 -27 148 -74c27 -27 45 -54 81 -54c49 0 66 66 69 110h124c0 -113 -70 -232 -186 -232c-75 0 -113 30 -147 67z" />
    <glyph glyph-name="macroncmb" unicode="&#x304;" 
d="M279 1214h-558v118h558v-118z" />
    <glyph glyph-name="brevecmb" unicode="&#x306;" 
d="M-301 1446h132c0 -84 50 -164 166 -164s166 80 166 164h131c-1 -133 -91 -284 -297 -284c-207 0 -299 151 -298 284z" />
    <glyph glyph-name="dotaccentcmb" unicode="&#x307;" 
d="M-106 1294c0 63 47 110 107 110c63 0 111 -47 111 -110c0 -62 -48 -107 -111 -107c-60 0 -107 45 -107 107z" />
    <glyph glyph-name="dieresiscmb" unicode="&#x308;" 
d="M-282 1263c0 61 43 103 101 103c60 0 102 -42 102 -103c0 -58 -42 -101 -102 -101c-58 0 -101 43 -101 101zM81 1263c0 61 42 103 100 103c61 0 103 -42 103 -103c0 -58 -42 -101 -103 -101c-58 0 -100 43 -100 101z" />
    <glyph glyph-name="hookabovecmb" unicode="&#x309;" 
d="M-134 1437v110c24 10 63 18 111 18c135 0 221 -69 221 -186c0 -107 -75 -161 -162 -208l-68 90c72 40 98 70 98 110c0 49 -43 82 -103 82c-40 0 -76 -8 -97 -16z" />
    <glyph glyph-name="ringcmb" unicode="&#x30a;" 
d="M-1 1192c-111 0 -198 82 -198 193c0 110 87 192 198 192c110 0 197 -82 197 -192c0 -111 -87 -193 -197 -193zM-101 1384c0 -56 43 -100 100 -100c56 0 98 44 98 100c0 57 -42 100 -98 100c-57 0 -100 -43 -100 -100z" />
    <glyph glyph-name="hungarumlautcmb" unicode="&#x30b;" 
d="M-109 1214h-129l214 315h169zM183 1214h-130l215 315h169z" />
    <glyph glyph-name="caroncmb" unicode="&#x30c;" 
d="M-275 1497h159l117 -186h4l108 187h162l-205 -299h-133z" />
    <glyph glyph-name="dblgravecmb" unicode="&#x30f;" 
d="M-201 1214l-254 315h170l215 -315h-131zM92 1214l-255 315h169l215 -315h-129z" />
    <glyph glyph-name="invertedbrevecmb" unicode="&#x311;" 
d="M-298 1193c1 133 91 284 298 284s298 -151 297 -284h-131c0 84 -50 164 -166 164s-166 -80 -166 -164h-132z" />
    <glyph glyph-name="horncmb" unicode="&#x31b;" 
d="M-86 938v167c23 -22 54 -34 92 -34c95 2 120 62 120 148v156h172v-166c0 -155 -68 -301 -249 -301c-61 0 -104 8 -135 30z" />
    <glyph glyph-name="dotbelowcmb" unicode="&#x323;" 
d="M-110 -271c0 66 50 115 112 115c66 0 116 -49 116 -115c0 -64 -50 -112 -116 -112c-62 0 -112 48 -112 112z" />
    <glyph glyph-name="dieresisbelowcmb" unicode="&#x324;" 
d="M-285 -312c0 61 43 103 101 103c60 0 102 -42 102 -103c0 -58 -42 -101 -102 -101c-58 0 -101 43 -101 101zM78 -312c0 61 42 103 100 103c61 0 103 -42 103 -103c0 -58 -42 -101 -103 -101c-58 0 -100 43 -100 101z" />
    <glyph glyph-name="ringbelowcmb" unicode="&#x325;" 
d="M-198 -477c-111 0 -198 82 -198 193c0 110 87 192 198 192c110 0 197 -82 197 -192c0 -111 -87 -193 -197 -193zM-298 -285c0 -56 43 -100 100 -100c56 0 98 44 98 100c0 57 -42 100 -98 100c-57 0 -100 -43 -100 -100z" />
    <glyph glyph-name="commabelowcmb" unicode="&#x326;" 
d="M-14 -489h-149l85 335h178z" />
    <glyph glyph-name="cedillacmb" unicode="&#x327;" 
d="M-117 -235v86l59 157h131l-53 -140c125 0 207 -55 207 -163c0 -129 -101 -185 -229 -190c-63 -3 -122 7 -149 15v110c27 -8 81 -13 114 -13c54 0 116 15 116 73c0 63 -67 65 -143 65h-53z" />
    <glyph glyph-name="ogonekcmb" unicode="&#x328;" 
d="M154 -236v-129c-18 -8 -61 -22 -135 -22c-117 0 -214 61 -214 188c0 133 127 235 175 297h128c-53 -57 -146 -158 -146 -248c0 -66 50 -95 108 -95c23 0 58 3 84 9z" />
    <glyph glyph-name="circumflexbelowcmb" unicode="&#x32d;" 
d="M-278 -403l212 291h133l205 -292h-162l-108 181h-5l-116 -180h-159z" />
    <glyph glyph-name="brevebelowcmb" unicode="&#x32e;" 
d="M-313 -137h139c0 -84 55 -164 174 -164s174 80 174 164h131c0 -134 -87 -284 -305 -284s-313 146 -313 284z" />
    <glyph glyph-name="tildebelowcmb" unicode="&#x330;" 
d="M-31 -292c-24 24 -47 53 -81 53c-54 0 -63 -55 -65 -98h-120c0 107 54 213 175 213c63 0 103 -26 147 -70c27 -27 45 -54 80 -54c48 0 64 64 68 107h119c0 -105 -67 -215 -176 -215c-77 0 -113 28 -147 64z" />
    <glyph glyph-name="macronbelowcmb" unicode="&#x331;" 
d="M279 -327h-558v118h558v-118z" />
    <glyph glyph-name="Delta" unicode="&#x394;" horiz-adv-x="1219" 
d="M22 0l476 1365h223l476 -1365h-1175zM600 1141l-313 -958h633l-311 958h-9z" />
    <glyph glyph-name="Omega" unicode="&#x3a9;" horiz-adv-x="1331" 
d="M764 0v204c140 44 253 219 253 451v157c0 290 -151 402 -352 402s-351 -112 -351 -402v-157c0 -226 107 -400 240 -447v-207h-468v175h236v19c-124 56 -215 241 -215 462v157c0 388 218 579 559 579c343 0 558 -191 558 -579v-157c0 -221 -101 -405 -225 -462v-22h247
v-173h-482z" />
    <glyph glyph-name="mu" unicode="&#x3bc;" horiz-adv-x="1183" 
d="M321 55h-10l16 -391h-189v1390h203v-676c0 -171 101 -224 219 -224c145 0 257 107 257 241v659h203v-811c0 -63 30 -96 93 -96c21 0 40 1 55 5v-153c-37 -9 -70 -13 -130 -13c-105 0 -197 59 -204 167l-2 24h-11c-26 -87 -124 -193 -302 -193c-76 0 -163 26 -198 71z" />
    <glyph glyph-name="pi" unicode="&#x3c0;" horiz-adv-x="1293" 
d="M1185 0c-22 -5 -65 -12 -125 -12c-136 0 -225 79 -225 202v701h-360v-891h-203v891h-225v163h1200v-163h-210v-648c0 -57 31 -92 88 -92c22 0 44 2 60 6v-157z" />
    <glyph glyph-name="Aringbelow" unicode="&#x1e00;" horiz-adv-x="1219" 
d="M230 0h-209l476 1365h223l476 -1365h-221l-127 391h-490zM607 1141h-7l-193 -590h392zM602 -455c-111 0 -198 82 -198 193c0 110 87 192 198 192c110 0 197 -82 197 -192c0 -111 -87 -193 -197 -193zM502 -263c0 -56 43 -100 100 -100c56 0 98 44 98 100
c0 57 -42 100 -98 100c-57 0 -100 -43 -100 -100z" />
    <glyph glyph-name="aringbelow" unicode="&#x1e01;" horiz-adv-x="1072" 
d="M733 138c-49 -82 -145 -155 -301 -155c-204 0 -344 124 -344 319c0 186 129 309 371 309h271v118c0 123 -73 175 -204 175c-134 0 -195 -62 -205 -158h-194c9 185 129 325 407 325c239 0 398 -100 398 -344v-727h-192v138h-7zM491 143c136 0 239 92 239 214v111h-243
c-135 0 -195 -65 -195 -156c0 -116 96 -169 199 -169zM535 -477c-111 0 -198 82 -198 193c0 110 87 192 198 192c110 0 197 -82 197 -192c0 -111 -87 -193 -197 -193zM435 -285c0 -56 43 -100 100 -100c56 0 98 44 98 100c0 57 -42 100 -98 100c-57 0 -100 -43 -100 -100z
" />
    <glyph glyph-name="Bdotaccent" unicode="&#x1e02;" horiz-adv-x="1234" 
d="M158 0v1365h531c230 0 387 -124 387 -336c0 -168 -95 -264 -224 -301v-9c184 -23 299 -147 299 -336c0 -250 -201 -383 -476 -383h-517zM363 1197v-413h199c204 0 308 63 308 210c0 140 -95 203 -221 203h-286zM363 621v-452h225c205 0 353 41 353 219
c0 156 -109 233 -273 233h-305zM474 1605c0 63 47 110 107 110c63 0 111 -47 111 -110c0 -62 -48 -107 -111 -107c-60 0 -107 45 -107 107z" />
    <glyph glyph-name="bdotaccent" unicode="&#x1e03;" horiz-adv-x="1166" 
d="M140 1677c0 63 47 110 107 110c63 0 111 -47 111 -110c0 -62 -48 -107 -111 -107c-60 0 -107 45 -107 107zM658 -16c-165 0 -269 78 -308 176h-7v-160h-195v1437h202v-531h6c44 81 125 164 307 164c262 0 407 -191 407 -483v-117c0 -308 -154 -486 -412 -486zM610 154
c151 0 254 112 254 325v91c0 214 -96 332 -254 332c-161 0 -260 -136 -260 -321v-111c0 -164 81 -316 260 -316z" />
    <glyph glyph-name="Bdotbelow" unicode="&#x1e04;" horiz-adv-x="1234" 
d="M470 -271c0 66 50 115 112 115c66 0 116 -49 116 -115c0 -64 -50 -112 -116 -112c-62 0 -112 48 -112 112zM158 0v1365h531c230 0 387 -124 387 -336c0 -168 -95 -264 -224 -301v-9c184 -23 299 -147 299 -336c0 -250 -201 -383 -476 -383h-517zM363 1197v-413h199
c204 0 308 63 308 210c0 140 -95 203 -221 203h-286zM363 621v-452h225c205 0 353 41 353 219c0 156 -109 233 -273 233h-305z" />
    <glyph glyph-name="bdotbelow" unicode="&#x1e05;" horiz-adv-x="1166" 
d="M472 -271c0 66 50 115 112 115c66 0 116 -49 116 -115c0 -64 -50 -112 -116 -112c-62 0 -112 48 -112 112zM658 -16c-165 0 -269 78 -308 176h-7v-160h-195v1437h202v-531h6c44 81 125 164 307 164c262 0 407 -191 407 -483v-117c0 -308 -154 -486 -412 -486zM610 154
c151 0 254 112 254 325v91c0 214 -96 332 -254 332c-161 0 -260 -136 -260 -321v-111c0 -164 81 -316 260 -316z" />
    <glyph glyph-name="Blinebelow" unicode="&#x1e06;" horiz-adv-x="1234" 
d="M158 0v1365h531c230 0 387 -124 387 -336c0 -168 -95 -264 -224 -301v-9c184 -23 299 -147 299 -336c0 -250 -201 -383 -476 -383h-517zM363 1197v-413h199c204 0 308 63 308 210c0 140 -95 203 -221 203h-286zM363 621v-452h225c205 0 353 41 353 219
c0 156 -109 233 -273 233h-305zM859 -327h-558v118h558v-118z" />
    <glyph glyph-name="blinebelow" unicode="&#x1e07;" horiz-adv-x="1166" 
d="M861 -327h-558v118h558v-118zM658 -16c-165 0 -269 78 -308 176h-7v-160h-195v1437h202v-531h6c44 81 125 164 307 164c262 0 407 -191 407 -483v-117c0 -308 -154 -486 -412 -486zM610 154c151 0 254 112 254 325v91c0 214 -96 332 -254 332c-161 0 -260 -136 -260 -321
v-111c0 -164 81 -316 260 -316z" />
    <glyph glyph-name="Ccedillaacute" unicode="&#x1e08;" horiz-adv-x="1258" 
d="M530 1510l255 206h219l-296 -206h-178zM641 -485c-63 -3 -122 7 -150 15v110c27 -8 82 -13 115 -13c54 0 116 15 116 73c0 63 -67 65 -143 65h-53v86l47 125c-292 31 -470 244 -470 616v174c0 405 213 627 547 627c335 0 514 -233 514 -467v-10h-201
c0 146 -108 297 -312 297c-202 0 -341 -146 -341 -449v-171c0 -305 137 -440 345 -440c203 0 308 128 308 276h201v-11c0 -196 -147 -421 -461 -443l-40 -107c124 0 207 -55 207 -163c0 -129 -101 -185 -229 -190z" />
    <glyph glyph-name="ccedillaacute" unicode="&#x1e09;" horiz-adv-x="1040" 
d="M573 1215h-163l190 279h208zM535 -468c-63 -2 -122 7 -149 15v111c27 -8 82 -14 115 -14c54 0 115 15 115 73c0 64 -59 66 -134 66h-54v85l52 118c-249 27 -385 220 -385 487v113c0 278 160 486 448 486c264 0 410 -164 412 -339h-193c-9 76 -81 171 -215 171
c-172 0 -250 -144 -250 -323v-109c0 -181 91 -315 250 -315c138 0 204 70 222 150h193c-5 -157 -135 -297 -351 -321l-45 -101c124 0 199 -55 199 -163c0 -129 -101 -185 -230 -190z" />
    <glyph glyph-name="Ddotaccent" unicode="&#x1e0a;" horiz-adv-x="1303" 
d="M492 1605c0 63 47 110 107 110c63 0 111 -47 111 -110c0 -62 -48 -107 -111 -107c-60 0 -107 45 -107 107zM158 1365h457c440 0 604 -282 604 -681c0 -393 -158 -684 -604 -684h-457v1365zM364 1189v-1012h233c276 0 409 165 409 504c0 306 -108 508 -409 508h-233z" />
    <glyph glyph-name="ddotaccent" unicode="&#x1e0b;" horiz-adv-x="1168" 
d="M812 1677c0 63 47 110 107 110c63 0 111 -47 111 -110c0 -62 -48 -107 -111 -107c-60 0 -107 45 -107 107zM505 1071c165 0 270 -74 305 -165h6v531h202v-1437h-195v160h-7c-26 -90 -140 -175 -311 -175c-266 0 -409 193 -409 479v127c0 281 142 480 409 480zM555 901
c-173 0 -254 -138 -254 -336v-74c0 -202 83 -338 258 -338c161 0 257 122 257 336v82c0 203 -97 330 -261 330z" />
    <glyph glyph-name="Ddotbelow" unicode="&#x1e0c;" horiz-adv-x="1303" 
d="M488 -271c0 66 50 115 112 115c66 0 116 -49 116 -115c0 -64 -50 -112 -116 -112c-62 0 -112 48 -112 112zM158 1365h457c440 0 604 -282 604 -681c0 -393 -158 -684 -604 -684h-457v1365zM364 1189v-1012h233c276 0 409 165 409 504c0 306 -108 508 -409 508h-233z" />
    <glyph glyph-name="ddotbelow" unicode="&#x1e0d;" horiz-adv-x="1168" 
d="M472 -271c0 66 50 115 112 115c66 0 116 -49 116 -115c0 -64 -50 -112 -116 -112c-62 0 -112 48 -112 112zM505 1071c165 0 270 -74 305 -165h6v531h202v-1437h-195v160h-7c-26 -90 -140 -175 -311 -175c-266 0 -409 193 -409 479v127c0 281 142 480 409 480zM555 901
c-173 0 -254 -138 -254 -336v-74c0 -202 83 -338 258 -338c161 0 257 122 257 336v82c0 203 -97 330 -261 330z" />
    <glyph glyph-name="Dlinebelow" unicode="&#x1e0e;" horiz-adv-x="1303" 
d="M877 -327h-558v118h558v-118zM158 1365h457c440 0 604 -282 604 -681c0 -393 -158 -684 -604 -684h-457v1365zM364 1189v-1012h233c276 0 409 165 409 504c0 306 -108 508 -409 508h-233z" />
    <glyph glyph-name="dlinebelow" unicode="&#x1e0f;" horiz-adv-x="1168" 
d="M861 -327h-558v118h558v-118zM505 1071c165 0 270 -74 305 -165h6v531h202v-1437h-195v160h-7c-26 -90 -140 -175 -311 -175c-266 0 -409 193 -409 479v127c0 281 142 480 409 480zM555 901c-173 0 -254 -138 -254 -336v-74c0 -202 83 -338 258 -338
c161 0 257 122 257 336v82c0 203 -97 330 -261 330z" />
    <glyph glyph-name="Dcommaaccent" unicode="&#x1e10;" horiz-adv-x="1303" 
d="M584 -489h-149l85 335h178zM158 1365h457c440 0 604 -282 604 -681c0 -393 -158 -684 -604 -684h-457v1365zM364 1189v-1012h233c276 0 409 165 409 504c0 306 -108 508 -409 508h-233z" />
    <glyph glyph-name="dcommaaccent" unicode="&#x1e11;" horiz-adv-x="1168" 
d="M568 -489h-149l85 335h178zM505 1071c165 0 270 -74 305 -165h6v531h202v-1437h-195v160h-7c-26 -90 -140 -175 -311 -175c-266 0 -409 193 -409 479v127c0 281 142 480 409 480zM555 901c-173 0 -254 -138 -254 -336v-74c0 -202 83 -338 258 -338c161 0 257 122 257 336
v82c0 203 -97 330 -261 330z" />
    <glyph glyph-name="Dcircumflexbelow" unicode="&#x1e12;" horiz-adv-x="1303" 
d="M158 1365h457c440 0 604 -282 604 -681c0 -393 -158 -684 -604 -684h-457v1365zM364 1189v-1012h233c276 0 409 165 409 504c0 306 -108 508 -409 508h-233zM320 -403l212 291h133l205 -292h-162l-108 181h-5l-116 -180h-159z" />
    <glyph glyph-name="dcircumflexbelow" unicode="&#x1e13;" horiz-adv-x="1168" 
d="M505 1071c165 0 270 -74 305 -165h6v531h202v-1437h-195v160h-7c-26 -90 -140 -175 -311 -175c-266 0 -409 193 -409 479v127c0 281 142 480 409 480zM555 901c-173 0 -254 -138 -254 -336v-74c0 -202 83 -338 258 -338c161 0 257 122 257 336v82c0 203 -97 330 -261 330
zM304 -403l212 291h133l205 -292h-162l-108 181h-5l-116 -180h-159z" />
    <glyph glyph-name="Emacrongrave" unicode="&#x1e14;" horiz-adv-x="1107" 
d="M687 1738h-175l-292 203h215zM996 177v-177h-838v1365h838v-177h-633v-408h597v-170h-597v-433h633zM850 1525h-558v110h558v-110z" />
    <glyph glyph-name="emacrongrave" unicode="&#x1e15;" horiz-adv-x="1075" 
d="M645 1482h-164l-237 277h208zM554 -18c-303 0 -459 200 -459 495v93c0 296 156 502 446 502c294 0 444 -206 444 -500v-92h-689v-30c0 -157 79 -301 257 -301c140 0 202 73 218 148h201c-20 -137 -133 -315 -418 -315zM296 628h490v3c0 161 -91 278 -245 278
c-153 0 -245 -118 -245 -278v-3zM816 1214h-558v118h558v-118z" />
    <glyph glyph-name="Emacronacute" unicode="&#x1e16;" horiz-adv-x="1107" 
d="M455 1738l255 206h219l-296 -206h-178zM996 177v-177h-838v1365h838v-177h-633v-408h597v-170h-597v-433h633zM850 1525h-558v110h558v-110z" />
    <glyph glyph-name="emacronacute" unicode="&#x1e17;" horiz-adv-x="1075" 
d="M591 1481h-163l190 279h208zM554 -18c-303 0 -459 200 -459 495v93c0 296 156 502 446 502c294 0 444 -206 444 -500v-92h-689v-30c0 -157 79 -301 257 -301c140 0 202 73 218 148h201c-20 -137 -133 -315 -418 -315zM296 628h490v3c0 161 -91 278 -245 278
c-153 0 -245 -118 -245 -278v-3zM816 1214h-558v118h558v-118z" />
    <glyph glyph-name="Ecircumflexbelow" unicode="&#x1e18;" horiz-adv-x="1107" 
d="M996 177v-177h-838v1365h838v-177h-633v-408h597v-170h-597v-433h633zM293 -403l212 291h133l205 -292h-162l-108 181h-5l-116 -180h-159z" />
    <glyph glyph-name="ecircumflexbelow" unicode="&#x1e19;" horiz-adv-x="1075" 
d="M554 -18c-303 0 -459 200 -459 495v93c0 296 156 502 446 502c294 0 444 -206 444 -500v-92h-689v-30c0 -157 79 -301 257 -301c140 0 202 73 218 148h201c-20 -137 -133 -315 -418 -315zM296 628h490v3c0 161 -91 278 -245 278c-153 0 -245 -118 -245 -278v-3zM259 -403
l212 291h133l205 -292h-162l-108 181h-5l-116 -180h-159z" />
    <glyph glyph-name="Etildebelow" unicode="&#x1e1a;" horiz-adv-x="1107" 
d="M540 -292c-24 24 -47 53 -81 53c-54 0 -63 -55 -65 -98h-120c0 107 54 213 175 213c63 0 103 -26 147 -70c27 -27 45 -54 80 -54c48 0 64 64 68 107h119c0 -105 -67 -215 -176 -215c-77 0 -113 28 -147 64zM996 177v-177h-838v1365h838v-177h-633v-408h597v-170h-597
v-433h633z" />
    <glyph glyph-name="etildebelow" unicode="&#x1e1b;" horiz-adv-x="1075" 
d="M506 -292c-24 24 -47 53 -81 53c-54 0 -63 -55 -65 -98h-120c0 107 54 213 175 213c63 0 103 -26 147 -70c27 -27 45 -54 80 -54c48 0 64 64 68 107h119c0 -105 -67 -215 -176 -215c-77 0 -113 28 -147 64zM554 -18c-303 0 -459 200 -459 495v93c0 296 156 502 446 502
c294 0 444 -206 444 -500v-92h-689v-30c0 -157 79 -301 257 -301c140 0 202 73 218 148h201c-20 -137 -133 -315 -418 -315zM296 628h490v3c0 161 -91 278 -245 278c-153 0 -245 -118 -245 -278v-3z" />
    <glyph glyph-name="Ecedillabreve" unicode="&#x1e1c;" horiz-adv-x="1107" 
d="M573 -469c-63 -2 -122 8 -149 15v111c27 -8 81 -14 114 -14c54 0 116 15 116 73c0 64 -67 66 -143 66h-53v85l50 133h-350v1365h838v-177h-633v-408h597v-170h-597v-433h633v-177h-357l-44 -115c124 0 207 -55 207 -163c0 -130 -101 -186 -229 -191zM249 1756h132
c0 -78 72 -142 190 -142s190 64 190 142h132c0 -135 -93 -267 -322 -267s-322 132 -322 267z" />
    <glyph glyph-name="ecedillabreve" unicode="&#x1e1d;" horiz-adv-x="1075" 
d="M236 1446h132c0 -84 50 -164 166 -164s166 80 166 164h131c-1 -133 -91 -284 -297 -284c-207 0 -299 151 -298 284zM296 628h490v3c0 161 -91 278 -245 278c-153 0 -245 -118 -245 -278v-3zM551 -485c-63 -3 -122 7 -149 15v110c27 -8 81 -13 115 -13c54 0 115 15 115 73
c0 63 -67 65 -143 65h-53v86l51 135c-260 27 -392 218 -392 491v93c0 296 156 502 446 502c294 0 444 -206 444 -500v-92h-689v-30c0 -157 79 -301 257 -301c140 0 202 73 218 148h201c-18 -126 -115 -287 -354 -311l-44 -118c124 0 206 -55 206 -163
c0 -129 -100 -185 -229 -190z" />
    <glyph glyph-name="Fdotaccent" unicode="&#x1e1e;" horiz-adv-x="1042" 
d="M461 1605c0 63 47 110 107 110c63 0 111 -47 111 -110c0 -62 -48 -107 -111 -107c-60 0 -107 45 -107 107zM364 0h-206v1365h827v-178h-621v-437h569v-176h-569v-574z" />
    <glyph glyph-name="fdotaccent" unicode="&#x1e1f;" horiz-adv-x="701" 
d="M272 1691c0 63 47 110 107 110c63 0 111 -47 111 -110c0 -62 -48 -107 -111 -107c-60 0 -107 45 -107 107zM214 0v887h-151v163h151v105c0 205 104 296 330 296c44 0 71 -4 90 -6v-156c-15 1 -28 3 -58 3c-109 0 -163 -35 -163 -153v-89h205v-163h-202v-887h-202z" />
    <glyph glyph-name="Gmacron" unicode="&#x1e20;" horiz-adv-x="1283" 
d="M1177 942h-203c-22 185 -158 271 -316 271c-192 0 -349 -129 -349 -436v-182c0 -271 114 -443 347 -443c192 0 325 119 325 282v116h-329v170h528v-279c0 -191 -130 -469 -524 -469c-373 0 -553 249 -553 623v183c0 385 219 615 559 615c329 0 501 -215 515 -451z
M936 1525h-558v110h558v-110z" />
    <glyph glyph-name="gmacron" unicode="&#x1e21;" horiz-adv-x="1134" 
d="M845 1214h-558v118h558v-118zM538 -230c178 0 266 92 266 253v153h-7c-41 -91 -153 -165 -301 -165c-233 0 -412 173 -412 461v132c0 284 175 466 415 466c174 0 263 -81 304 -164h6v148h196v-1033c0 -293 -204 -415 -474 -415c-289 0 -416 153 -424 312h203
c11 -78 82 -148 228 -148zM553 902c-163 0 -265 -125 -265 -322v-94c0 -198 111 -311 267 -311c160 0 248 136 248 301v105c0 180 -93 321 -250 321z" />
    <glyph glyph-name="Hdotaccent" unicode="&#x1e22;" horiz-adv-x="1377" 
d="M1220 0h-206v615h-650v-615h-206v1365h206v-572h650v572h206v-1365zM582 1605c0 63 47 110 107 110c63 0 111 -47 111 -110c0 -62 -48 -107 -111 -107c-60 0 -107 45 -107 107z" />
    <glyph glyph-name="hdotaccent" unicode="&#x1e23;" horiz-adv-x="1177" 
d="M149 0v1437h202v-526h8c30 69 120 160 293 160c233 0 385 -166 385 -410v-661h-202v617c0 168 -84 276 -237 276s-247 -99 -247 -276v-617h-202zM141 1677c0 63 47 110 107 110c63 0 111 -47 111 -110c0 -62 -48 -107 -111 -107c-60 0 -107 45 -107 107z" />
    <glyph glyph-name="Hdotbelow" unicode="&#x1e24;" horiz-adv-x="1377" 
d="M1220 0h-206v615h-650v-615h-206v1365h206v-572h650v572h206v-1365zM578 -271c0 66 50 115 112 115c66 0 116 -49 116 -115c0 -64 -50 -112 -116 -112c-62 0 -112 48 -112 112z" />
    <glyph glyph-name="hdotbelow" unicode="&#x1e25;" horiz-adv-x="1177" 
d="M149 0v1437h202v-526h8c30 69 120 160 293 160c233 0 385 -166 385 -410v-661h-202v617c0 168 -84 276 -237 276s-247 -99 -247 -276v-617h-202zM472 -271c0 66 50 115 112 115c66 0 116 -49 116 -115c0 -64 -50 -112 -116 -112c-62 0 -112 48 -112 112z" />
    <glyph glyph-name="Hdieresis" unicode="&#x1e26;" horiz-adv-x="1377" 
d="M1220 0h-206v615h-650v-615h-206v1365h206v-572h650v572h206v-1365zM467 1583c0 53 38 91 90 91c53 0 90 -38 90 -91c0 -51 -37 -90 -90 -90c-52 0 -90 39 -90 90zM776 1583c0 53 37 91 89 91c54 0 90 -38 90 -91c0 -51 -36 -90 -90 -90c-52 0 -89 39 -89 90z" />
    <glyph glyph-name="hdieresis" unicode="&#x1e27;" horiz-adv-x="1177" 
d="M149 0v1437h202v-526h8c30 69 120 160 293 160c233 0 385 -166 385 -410v-661h-202v617c0 168 -84 276 -237 276s-247 -99 -247 -276v-617h-202zM-35 1646c0 61 43 103 101 103c60 0 102 -42 102 -103c0 -58 -42 -101 -102 -101c-58 0 -101 43 -101 101zM328 1646
c0 61 42 103 100 103c61 0 103 -42 103 -103c0 -58 -42 -101 -103 -101c-58 0 -100 43 -100 101z" />
    <glyph glyph-name="Hcedilla" unicode="&#x1e28;" horiz-adv-x="1377" 
d="M299 -469c-63 -2 -122 8 -149 15v111c27 -8 82 -14 115 -14c54 0 115 15 115 73c0 64 -67 66 -143 66h-53v85l50 133h-76v1365h206v-572h650v572h206v-1365h-206v615h-650v-615l-42 -115c124 0 207 -55 207 -163c0 -130 -101 -186 -230 -191z" />
    <glyph glyph-name="hcedilla" unicode="&#x1e29;" horiz-adv-x="1177" 
d="M279 -485c-63 -3 -122 7 -149 15v110c27 -8 81 -13 115 -13c54 0 115 15 115 73c0 63 -67 65 -143 65h-53v86l56 149h-71v1437h202v-526h8c30 69 120 160 293 160c233 0 385 -166 385 -410v-661h-202v617c0 168 -84 276 -237 276s-247 -99 -247 -276v-617l-49 -132
c124 0 207 -55 207 -163c0 -129 -101 -185 -230 -190z" />
    <glyph glyph-name="Hbrevebelow" unicode="&#x1e2a;" horiz-adv-x="1377" 
d="M375 -137c0 -138 95 -284 313 -284s305 150 305 284h-131c0 -84 -55 -164 -174 -164s-174 80 -174 164h-139zM1220 0h-206v615h-650v-615h-206v1365h206v-572h650v572h206v-1365z" />
    <glyph glyph-name="hbrevebelow" unicode="&#x1e2b;" horiz-adv-x="1177" 
d="M269 -137c0 -138 95 -284 313 -284s305 150 305 284h-131c0 -84 -55 -164 -174 -164s-174 80 -174 164h-139zM149 0v1437h202v-526h8c30 69 120 160 293 160c233 0 385 -166 385 -410v-661h-202v617c0 168 -84 276 -237 276s-247 -99 -247 -276v-617h-202z" />
    <glyph glyph-name="Itildebelow" unicode="&#x1e2c;" horiz-adv-x="521" 
d="M364 0h-206v1365h206v-1365zM229 -292c-24 24 -47 53 -81 53c-54 0 -63 -55 -65 -98h-120c0 107 54 213 175 213c63 0 103 -26 147 -70c27 -27 45 -54 80 -54c48 0 64 64 68 107h119c0 -105 -67 -215 -176 -215c-77 0 -113 28 -147 64z" />
    <glyph glyph-name="itildebelow" unicode="&#x1e2d;" horiz-adv-x="541" 
d="M170 0v1054h201v-1054h-201zM145 1312c0 67 53 116 124 116c75 0 127 -49 127 -116s-51 -117 -127 -117c-71 0 -124 50 -124 117zM239 -292c-24 24 -47 53 -81 53c-54 0 -63 -55 -65 -98h-120c0 107 54 213 175 213c63 0 103 -26 147 -70c27 -27 45 -54 80 -54
c48 0 64 64 68 107h119c0 -105 -67 -215 -176 -215c-77 0 -113 28 -147 64z" />
    <glyph glyph-name="Idieresisacute" unicode="&#x1e2e;" horiz-adv-x="521" 
d="M364 0h-206v1365h206v-1365zM144 1738l255 206h219l-296 -206h-178zM39 1583c0 53 38 91 90 91c53 0 90 -38 90 -91c0 -51 -37 -90 -90 -90c-52 0 -90 39 -90 90zM348 1583c0 53 37 91 89 91c54 0 90 -38 90 -91c0 -51 -36 -90 -90 -90c-52 0 -89 39 -89 90z" />
    <glyph glyph-name="idieresisacute" unicode="&#x1e2f;" horiz-adv-x="540" 
d="M325 1481h-163l190 279h208zM170 0v1054h205v-1054h-205zM-11 1263c0 61 43 103 101 103c60 0 102 -42 102 -103c0 -58 -42 -101 -102 -101c-58 0 -101 43 -101 101zM352 1263c0 61 42 103 100 103c61 0 103 -42 103 -103c0 -58 -42 -101 -103 -101
c-58 0 -100 43 -100 101z" />
    <glyph glyph-name="Kacute" unicode="&#x1e30;" horiz-adv-x="1209" 
d="M468 1510l255 206h219l-296 -206h-178zM1177 1365l-502 -583l527 -782h-256l-423 641l-159 -175v-466h-206v1365h206v-644h9l568 644h236z" />
    <glyph glyph-name="kacute" unicode="&#x1e31;" horiz-adv-x="1041" 
d="M350 382v-382h-202v1437h202v-848h9l406 465h231l-405 -457l432 -597h-239l-343 476zM300 1598h-163l190 279h208z" />
    <glyph glyph-name="Kdotbelow" unicode="&#x1e32;" horiz-adv-x="1209" 
d="M494 -271c0 66 50 115 112 115c66 0 116 -49 116 -115c0 -64 -50 -112 -116 -112c-62 0 -112 48 -112 112zM1177 1365l-502 -583l527 -782h-256l-423 641l-159 -175v-466h-206v1365h206v-644h9l568 644h236z" />
    <glyph glyph-name="kdotbelow" unicode="&#x1e33;" horiz-adv-x="1041" 
d="M432 -271c0 66 50 115 112 115c66 0 116 -49 116 -115c0 -64 -50 -112 -116 -112c-62 0 -112 48 -112 112zM350 382v-382h-202v1437h202v-848h9l406 465h231l-405 -457l432 -597h-239l-343 476z" />
    <glyph glyph-name="Klinebelow" unicode="&#x1e34;" horiz-adv-x="1209" 
d="M1177 1365l-502 -583l527 -782h-256l-423 641l-159 -175v-466h-206v1365h206v-644h9l568 644h236zM883 -327h-558v118h558v-118z" />
    <glyph glyph-name="klinebelow" unicode="&#x1e35;" horiz-adv-x="1041" 
d="M350 382v-382h-202v1437h202v-848h9l406 465h231l-405 -457l432 -597h-239l-343 476zM821 -327h-558v118h558v-118z" />
    <glyph glyph-name="Ldotbelow" unicode="&#x1e36;" horiz-adv-x="999" 
d="M397 -271c0 66 50 115 112 115c66 0 116 -49 116 -115c0 -64 -50 -112 -116 -112c-62 0 -112 48 -112 112zM976 181v-181h-818v1365h206v-1184h612z" />
    <glyph glyph-name="ldotbelow" unicode="&#x1e37;" horiz-adv-x="507" 
d="M143 -271c0 66 50 115 112 115c66 0 116 -49 116 -115c0 -64 -50 -112 -116 -112c-62 0 -112 48 -112 112zM153 0v1437h201v-1437h-201z" />
    <glyph glyph-name="Ldotbelowmacron" unicode="&#x1e38;" horiz-adv-x="999" 
d="M397 -271c0 66 50 115 112 115c66 0 116 -49 116 -115c0 -64 -50 -112 -116 -112c-62 0 -112 48 -112 112zM976 181v-181h-818v1365h206v-1184h612zM538 1525h-558v110h558v-110z" />
    <glyph glyph-name="ldotbelowmacron" unicode="&#x1e39;" horiz-adv-x="507" 
d="M143 -271c0 66 50 115 112 115c66 0 116 -49 116 -115c0 -64 -50 -112 -116 -112c-62 0 -112 48 -112 112zM153 0v1437h201v-1437h-201zM532 1597h-558v118h558v-118z" />
    <glyph glyph-name="Llinebelow" unicode="&#x1e3a;" horiz-adv-x="999" 
d="M786 -327h-558v118h558v-118zM976 181v-181h-818v1365h206v-1184h612z" />
    <glyph glyph-name="llinebelow" unicode="&#x1e3b;" horiz-adv-x="507" 
d="M532 -327h-558v118h558v-118zM153 0v1437h201v-1437h-201z" />
    <glyph glyph-name="Lcircumflexbelow" unicode="&#x1e3c;" horiz-adv-x="999" 
d="M976 181v-181h-818v1365h206v-1184h612zM229 -403l212 291h133l205 -292h-162l-108 181h-5l-116 -180h-159z" />
    <glyph glyph-name="lcircumflexbelow" unicode="&#x1e3d;" horiz-adv-x="507" 
d="M153 0v1437h201v-1437h-201zM-25 -403l212 291h133l205 -292h-162l-108 181h-5l-116 -180h-159z" />
    <glyph glyph-name="Macute" unicode="&#x1e3e;" horiz-adv-x="1600" 
d="M683 1510l255 206h219l-296 -206h-178zM347 0h-185v1365h204l432 -998h5l431 998h204v-1365h-186v963h-8l-366 -830h-157l-367 830h-7v-963z" />
    <glyph glyph-name="macute" unicode="&#x1e3f;" horiz-adv-x="1749" 
d="M928 1215h-163l190 279h208zM146 0v1054h199v-136h10c33 73 125 153 270 153c164 0 262 -68 301 -173h9c38 90 149 173 322 173c222 0 351 -138 351 -353v-718h-201v671c0 134 -75 224 -213 224c-139 0 -218 -96 -218 -238v-657h-198v657c0 158 -83 238 -215 238
c-120 0 -216 -81 -216 -236v-659h-201z" />
    <glyph glyph-name="Mdotaccent" unicode="&#x1e40;" horiz-adv-x="1600" 
d="M693 1605c0 63 47 110 107 110c63 0 111 -47 111 -110c0 -62 -48 -107 -111 -107c-60 0 -107 45 -107 107zM347 0h-185v1365h204l432 -998h5l431 998h204v-1365h-186v963h-8l-366 -830h-157l-367 830h-7v-963z" />
    <glyph glyph-name="mdotaccent" unicode="&#x1e41;" horiz-adv-x="1749" 
d="M768 1294c0 63 47 110 107 110c63 0 111 -47 111 -110c0 -62 -48 -107 -111 -107c-60 0 -107 45 -107 107zM146 0v1054h199v-136h10c33 73 125 153 270 153c164 0 262 -68 301 -173h9c38 90 149 173 322 173c222 0 351 -138 351 -353v-718h-201v671
c0 134 -75 224 -213 224c-139 0 -218 -96 -218 -238v-657h-198v657c0 158 -83 238 -215 238c-120 0 -216 -81 -216 -236v-659h-201z" />
    <glyph glyph-name="Mdotbelow" unicode="&#x1e42;" horiz-adv-x="1600" 
d="M689 -271c0 66 50 115 112 115c66 0 116 -49 116 -115c0 -64 -50 -112 -116 -112c-62 0 -112 48 -112 112zM347 0h-185v1365h204l432 -998h5l431 998h204v-1365h-186v963h-8l-366 -830h-157l-367 830h-7v-963z" />
    <glyph glyph-name="mdotbelow" unicode="&#x1e43;" horiz-adv-x="1749" 
d="M764 -271c0 66 50 115 112 115c66 0 116 -49 116 -115c0 -64 -50 -112 -116 -112c-62 0 -112 48 -112 112zM146 0v1054h199v-136h10c33 73 125 153 270 153c164 0 262 -68 301 -173h9c38 90 149 173 322 173c222 0 351 -138 351 -353v-718h-201v671
c0 134 -75 224 -213 224c-139 0 -218 -96 -218 -238v-657h-198v657c0 158 -83 238 -215 238c-120 0 -216 -81 -216 -236v-659h-201z" />
    <glyph glyph-name="Ndotaccent" unicode="&#x1e44;" horiz-adv-x="1368" 
d="M577 1605c0 63 47 110 107 110c63 0 111 -47 111 -110c0 -62 -48 -107 -111 -107c-60 0 -107 45 -107 107zM357 0h-199v1365h187l659 -1014h6v1014h200v-1365h-187l-660 1016h-6v-1016z" />
    <glyph glyph-name="ndotaccent" unicode="&#x1e45;" horiz-adv-x="1171" 
d="M479 1294c0 63 47 110 107 110c63 0 111 -47 111 -110c0 -62 -48 -107 -111 -107c-60 0 -107 45 -107 107zM146 0v1054h199v-143h7c38 81 144 160 303 160c210 0 375 -129 375 -372v-699h-203v630c0 181 -85 263 -237 263c-153 0 -243 -93 -243 -270v-623h-201z" />
    <glyph glyph-name="Ndotbelow" unicode="&#x1e46;" horiz-adv-x="1368" 
d="M573 -271c0 66 50 115 112 115c66 0 116 -49 116 -115c0 -64 -50 -112 -116 -112c-62 0 -112 48 -112 112zM357 0h-199v1365h187l659 -1014h6v1014h200v-1365h-187l-660 1016h-6v-1016z" />
    <glyph glyph-name="ndotbelow" unicode="&#x1e47;" horiz-adv-x="1171" 
d="M475 -271c0 66 50 115 112 115c66 0 116 -49 116 -115c0 -64 -50 -112 -116 -112c-62 0 -112 48 -112 112zM146 0v1054h199v-143h7c38 81 144 160 303 160c210 0 375 -129 375 -372v-699h-203v630c0 181 -85 263 -237 263c-153 0 -243 -93 -243 -270v-623h-201z" />
    <glyph glyph-name="Nlinebelow" unicode="&#x1e48;" horiz-adv-x="1368" 
d="M962 -327h-558v118h558v-118zM357 0h-199v1365h187l659 -1014h6v1014h200v-1365h-187l-660 1016h-6v-1016z" />
    <glyph glyph-name="nlinebelow" unicode="&#x1e49;" horiz-adv-x="1171" 
d="M864 -327h-558v118h558v-118zM146 0v1054h199v-143h7c38 81 144 160 303 160c210 0 375 -129 375 -372v-699h-203v630c0 181 -85 263 -237 263c-153 0 -243 -93 -243 -270v-623h-201z" />
    <glyph glyph-name="Ncircumflexbelow" unicode="&#x1e4a;" horiz-adv-x="1368" 
d="M357 0h-199v1365h187l659 -1014h6v1014h200v-1365h-187l-660 1016h-6v-1016zM405 -403l212 291h133l205 -292h-162l-108 181h-5l-116 -180h-159z" />
    <glyph glyph-name="ncircumflexbelow" unicode="&#x1e4b;" horiz-adv-x="1171" 
d="M146 0v1054h199v-143h7c38 81 144 160 303 160c210 0 375 -129 375 -372v-699h-203v630c0 181 -85 263 -237 263c-153 0 -243 -93 -243 -270v-623h-201zM307 -403l212 291h133l205 -292h-162l-108 181h-5l-116 -180h-159z" />
    <glyph glyph-name="Otildeacute" unicode="&#x1e4c;" horiz-adv-x="1324" 
d="M545 1738l255 206h219l-296 -206h-178zM310 774v-194c0 -292 151 -428 351 -428c201 0 352 136 352 428v194c0 291 -151 440 -352 440c-200 0 -351 -149 -351 -440zM103 580v192c0 388 218 621 560 621c343 0 558 -233 558 -621v-192c0 -386 -219 -608 -561 -608
c-343 0 -557 222 -557 608zM637 1538c-22 22 -45 49 -78 49c-52 0 -62 -50 -64 -91h-116c0 100 52 199 170 199c61 0 99 -25 142 -66c27 -24 44 -49 78 -49c46 0 63 59 66 99h116c0 -98 -65 -200 -171 -200c-75 0 -109 26 -143 59z" />
    <glyph glyph-name="otildeacute" unicode="&#x1e4d;" horiz-adv-x="1115" 
d="M611 1481h-163l190 279h208zM524 1225c-23 24 -47 52 -82 52c-55 0 -65 -56 -68 -101h-124c0 119 55 232 185 232c60 0 102 -27 148 -74c27 -27 45 -54 81 -54c49 0 66 66 69 110h124c0 -113 -70 -232 -186 -232c-75 0 -113 30 -147 67zM558 1072
c313 0 462 -208 462 -503v-81c0 -301 -149 -506 -462 -506s-463 202 -463 506v80c0 287 150 504 463 504zM558 906c-199 0 -261 -166 -261 -350v-57c0 -186 61 -349 261 -349s258 163 258 349v57c0 184 -59 350 -258 350z" />
    <glyph glyph-name="Otildedieresis" unicode="&#x1e4e;" horiz-adv-x="1324" 
d="M418 1844c0 53 38 91 90 91c53 0 90 -38 90 -91c0 -51 -37 -90 -90 -90c-52 0 -90 39 -90 90zM727 1844c0 53 37 91 89 91c54 0 90 -38 90 -91c0 -51 -36 -90 -90 -90c-52 0 -89 39 -89 90zM310 774v-194c0 -292 151 -428 351 -428c201 0 352 136 352 428v194
c0 291 -151 440 -352 440c-200 0 -351 -149 -351 -440zM103 580v192c0 388 218 621 560 621c343 0 558 -233 558 -621v-192c0 -386 -219 -608 -561 -608c-343 0 -557 222 -557 608zM637 1538c-22 22 -45 49 -78 49c-52 0 -62 -50 -64 -91h-116c0 100 52 199 170 199
c61 0 99 -25 142 -66c27 -24 44 -49 78 -49c46 0 63 59 66 99h116c0 -98 -65 -200 -171 -200c-75 0 -109 26 -143 59z" />
    <glyph glyph-name="otildedieresis" unicode="&#x1e4f;" horiz-adv-x="1115" 
d="M524 1225c-23 24 -47 52 -82 52c-55 0 -65 -56 -68 -101h-124c0 119 55 232 185 232c60 0 102 -27 148 -74c27 -27 45 -54 81 -54c49 0 66 66 69 110h124c0 -113 -70 -232 -186 -232c-75 0 -113 30 -147 67zM275 1547c0 61 43 103 101 103c60 0 102 -42 102 -103
c0 -58 -42 -101 -102 -101c-58 0 -101 43 -101 101zM638 1547c0 61 42 103 100 103c61 0 103 -42 103 -103c0 -58 -42 -101 -103 -101c-58 0 -100 43 -100 101zM558 1072c313 0 462 -208 462 -503v-81c0 -301 -149 -506 -462 -506s-463 202 -463 506v80
c0 287 150 504 463 504zM558 906c-199 0 -261 -166 -261 -350v-57c0 -186 61 -349 261 -349s258 163 258 349v57c0 184 -59 350 -258 350z" />
    <glyph glyph-name="Omacrongrave" unicode="&#x1e50;" horiz-adv-x="1324" 
d="M777 1738h-175l-292 203h215zM310 774v-194c0 -292 151 -428 351 -428c201 0 352 136 352 428v194c0 291 -151 440 -352 440c-200 0 -351 -149 -351 -440zM103 580v192c0 388 218 621 560 621c343 0 558 -233 558 -621v-192c0 -386 -219 -608 -561 -608
c-343 0 -557 222 -557 608zM940 1525h-558v110h558v-110z" />
    <glyph glyph-name="omacrongrave" unicode="&#x1e51;" horiz-adv-x="1115" 
d="M665 1482h-164l-237 277h208zM836 1214h-558v118h558v-118zM558 1072c313 0 462 -208 462 -503v-81c0 -301 -149 -506 -462 -506s-463 202 -463 506v80c0 287 150 504 463 504zM558 906c-199 0 -261 -166 -261 -350v-57c0 -186 61 -349 261 -349s258 163 258 349v57
c0 184 -59 350 -258 350z" />
    <glyph glyph-name="Omacronacute" unicode="&#x1e52;" horiz-adv-x="1324" 
d="M545 1738l255 206h219l-296 -206h-178zM310 774v-194c0 -292 151 -428 351 -428c201 0 352 136 352 428v194c0 291 -151 440 -352 440c-200 0 -351 -149 -351 -440zM103 580v192c0 388 218 621 560 621c343 0 558 -233 558 -621v-192c0 -386 -219 -608 -561 -608
c-343 0 -557 222 -557 608zM940 1525h-558v110h558v-110z" />
    <glyph glyph-name="omacronacute" unicode="&#x1e53;" horiz-adv-x="1115" 
d="M611 1481h-163l190 279h208zM836 1214h-558v118h558v-118zM558 1072c313 0 462 -208 462 -503v-81c0 -301 -149 -506 -462 -506s-463 202 -463 506v80c0 287 150 504 463 504zM558 906c-199 0 -261 -166 -261 -350v-57c0 -186 61 -349 261 -349s258 163 258 349v57
c0 184 -59 350 -258 350z" />
    <glyph glyph-name="Pacute" unicode="&#x1e54;" horiz-adv-x="1165" 
d="M441 1510l255 206h219l-296 -206h-178zM158 1365h513c271 0 443 -180 443 -435c0 -257 -173 -432 -444 -432h-307v-498h-205v1365zM363 1191v-522h192c219 0 348 50 348 261c0 166 -95 261 -258 261h-282z" />
    <glyph glyph-name="pacute" unicode="&#x1e55;" horiz-adv-x="1164" 
d="M660 -16c-165 0 -259 74 -304 160h-7v-506h-202v1417h195v-149h7c42 95 149 164 317 164c237 0 400 -173 400 -475v-137c0 -301 -161 -474 -406 -474zM610 154c148 0 252 108 252 326v95c0 212 -97 327 -256 327c-160 0 -257 -127 -257 -312v-119
c0 -174 95 -317 261 -317zM635 1215h-163l190 279h208z" />
    <glyph glyph-name="Pdotaccent" unicode="&#x1e56;" horiz-adv-x="1165" 
d="M158 1365h513c271 0 443 -180 443 -435c0 -257 -173 -432 -444 -432h-307v-498h-205v1365zM363 1191v-522h192c219 0 348 50 348 261c0 166 -95 261 -258 261h-282zM451 1605c0 63 47 110 107 110c63 0 111 -47 111 -110c0 -62 -48 -107 -111 -107
c-60 0 -107 45 -107 107z" />
    <glyph glyph-name="pdotaccent" unicode="&#x1e57;" horiz-adv-x="1164" 
d="M660 -16c-165 0 -259 74 -304 160h-7v-506h-202v1417h195v-149h7c42 95 149 164 317 164c237 0 400 -173 400 -475v-137c0 -301 -161 -474 -406 -474zM610 154c148 0 252 108 252 326v95c0 212 -97 327 -256 327c-160 0 -257 -127 -257 -312v-119
c0 -174 95 -317 261 -317zM475 1294c0 63 47 110 107 110c63 0 111 -47 111 -110c0 -62 -48 -107 -111 -107c-60 0 -107 45 -107 107z" />
    <glyph glyph-name="Rdotaccent" unicode="&#x1e58;" horiz-adv-x="1228" 
d="M668 1365c310 0 452 -192 452 -415c0 -224 -138 -339 -252 -381l277 -569h-233l-248 532h-302v-532h-204v1365h510zM362 701h272c178 0 273 86 273 240c0 166 -107 252 -267 252h-278v-492zM475 1605c0 63 47 110 107 110c63 0 111 -47 111 -110
c0 -62 -48 -107 -111 -107c-60 0 -107 45 -107 107z" />
    <glyph glyph-name="rdotaccent" unicode="&#x1e59;" horiz-adv-x="724" 
d="M161 0v1054h201v-130h7c29 64 82 146 256 146c26 0 50 -2 70 -5v-181c-18 4 -55 6 -90 6c-181 0 -240 -108 -240 -250v-640h-204zM314 1294c0 63 47 110 107 110c63 0 111 -47 111 -110c0 -62 -48 -107 -111 -107c-60 0 -107 45 -107 107z" />
    <glyph glyph-name="Rdotbelow" unicode="&#x1e5a;" horiz-adv-x="1228" 
d="M471 -271c0 66 50 115 112 115c66 0 116 -49 116 -115c0 -64 -50 -112 -116 -112c-62 0 -112 48 -112 112zM668 1365c310 0 452 -192 452 -415c0 -224 -138 -339 -252 -381l277 -569h-233l-248 532h-302v-532h-204v1365h510zM362 701h272c178 0 273 86 273 240
c0 166 -107 252 -267 252h-278v-492z" />
    <glyph glyph-name="rdotbelow" unicode="&#x1e5b;" horiz-adv-x="724" 
d="M155 -271c0 66 50 115 112 115c66 0 116 -49 116 -115c0 -64 -50 -112 -116 -112c-62 0 -112 48 -112 112zM161 0v1054h201v-130h7c29 64 82 146 256 146c26 0 50 -2 70 -5v-181c-18 4 -55 6 -90 6c-181 0 -240 -108 -240 -250v-640h-204z" />
    <glyph glyph-name="Rdotbelowmacron" unicode="&#x1e5c;" horiz-adv-x="1228" 
d="M471 -271c0 66 50 115 112 115c66 0 116 -49 116 -115c0 -64 -50 -112 -116 -112c-62 0 -112 48 -112 112zM668 1365c310 0 452 -192 452 -415c0 -224 -138 -339 -252 -381l277 -569h-233l-248 532h-302v-532h-204v1365h510zM362 701h272c178 0 273 86 273 240
c0 166 -107 252 -267 252h-278v-492zM860 1525h-558v110h558v-110z" />
    <glyph glyph-name="rdotbelowmacron" unicode="&#x1e5d;" horiz-adv-x="724" 
d="M155 -271c0 66 50 115 112 115c66 0 116 -49 116 -115c0 -64 -50 -112 -116 -112c-62 0 -112 48 -112 112zM161 0v1054h201v-130h7c29 64 82 146 256 146c26 0 50 -2 70 -5v-181c-18 4 -55 6 -90 6c-181 0 -240 -108 -240 -250v-640h-204zM699 1214h-558v118h558v-118z
" />
    <glyph glyph-name="Rlinebelow" unicode="&#x1e5e;" horiz-adv-x="1228" 
d="M668 1365c310 0 452 -192 452 -415c0 -224 -138 -339 -252 -381l277 -569h-233l-248 532h-302v-532h-204v1365h510zM362 701h272c178 0 273 86 273 240c0 166 -107 252 -267 252h-278v-492zM860 -327h-558v118h558v-118z" />
    <glyph glyph-name="rlinebelow" unicode="&#x1e5f;" horiz-adv-x="724" 
d="M161 0v1054h201v-130h7c29 64 82 146 256 146c26 0 50 -2 70 -5v-181c-18 4 -55 6 -90 6c-181 0 -240 -108 -240 -250v-640h-204zM544 -327h-558v118h558v-118z" />
    <glyph glyph-name="Sdotaccent" unicode="&#x1e60;" horiz-adv-x="1172" 
d="M60 375h203c12 -124 119 -228 319 -228c182 0 294 86 294 223c0 108 -70 167 -219 204l-230 58c-170 42 -328 146 -328 364c0 259 228 400 485 400c252 0 478 -135 483 -394h-199c-11 122 -105 221 -287 221c-162 0 -275 -77 -275 -212c0 -92 62 -159 191 -190l228 -58
c207 -52 359 -149 359 -376c0 -268 -221 -415 -520 -415c-372 0 -499 221 -504 403zM477 1605c0 63 47 110 107 110c63 0 111 -47 111 -110c0 -62 -48 -107 -111 -107c-60 0 -107 45 -107 107z" />
    <glyph glyph-name="sdotaccent" unicode="&#x1e61;" horiz-adv-x="998" 
d="M98 750c0 226 191 322 401 322c248 0 384 -136 384 -318h-184c-6 76 -55 167 -206 167c-118 0 -200 -56 -200 -152c0 -122 146 -137 264 -158c197 -35 354 -94 354 -296c0 -211 -168 -333 -428 -333c-243 0 -404 117 -404 306h196c13 -90 86 -153 217 -153
c157 0 222 70 222 156c0 114 -119 134 -264 162c-194 40 -352 90 -352 297zM392 1294c0 63 47 110 107 110c63 0 111 -47 111 -110c0 -62 -48 -107 -111 -107c-60 0 -107 45 -107 107z" />
    <glyph glyph-name="Sdotbelow" unicode="&#x1e62;" horiz-adv-x="1172" 
d="M454 -271c0 66 50 115 112 115c66 0 116 -49 116 -115c0 -64 -50 -112 -116 -112c-62 0 -112 48 -112 112zM60 375h203c12 -124 119 -228 319 -228c182 0 294 86 294 223c0 108 -70 167 -219 204l-230 58c-170 42 -328 146 -328 364c0 259 228 400 485 400
c252 0 478 -135 483 -394h-199c-11 122 -105 221 -287 221c-162 0 -275 -77 -275 -212c0 -92 62 -159 191 -190l228 -58c207 -52 359 -149 359 -376c0 -268 -221 -415 -520 -415c-372 0 -499 221 -504 403z" />
    <glyph glyph-name="sdotbelow" unicode="&#x1e63;" horiz-adv-x="998" 
d="M388 -271c0 66 50 115 112 115c66 0 116 -49 116 -115c0 -64 -50 -112 -116 -112c-62 0 -112 48 -112 112zM98 750c0 226 191 322 401 322c248 0 384 -136 384 -318h-184c-6 76 -55 167 -206 167c-118 0 -200 -56 -200 -152c0 -122 146 -137 264 -158
c197 -35 354 -94 354 -296c0 -211 -168 -333 -428 -333c-243 0 -404 117 -404 306h196c13 -90 86 -153 217 -153c157 0 222 70 222 156c0 114 -119 134 -264 162c-194 40 -352 90 -352 297z" />
    <glyph glyph-name="Sacutedotaccent" unicode="&#x1e64;" horiz-adv-x="1172" 
d="M266 1677c0 57 43 100 96 100c58 0 100 -43 100 -100c0 -55 -42 -96 -100 -96c-53 0 -96 41 -96 96zM561 1553l255 206h219l-296 -206h-178zM60 375h203c12 -124 119 -228 319 -228c182 0 294 86 294 223c0 108 -70 167 -219 204l-230 58c-170 42 -328 146 -328 364
c0 259 228 400 485 400c252 0 478 -135 483 -394h-199c-11 122 -105 221 -287 221c-162 0 -275 -77 -275 -212c0 -92 62 -159 191 -190l228 -58c207 -52 359 -149 359 -376c0 -268 -221 -415 -520 -415c-372 0 -499 221 -504 403z" />
    <glyph glyph-name="sacutedotaccent" unicode="&#x1e65;" horiz-adv-x="998" 
d="M206 1402c0 61 45 104 100 104c61 0 105 -43 105 -104c0 -57 -44 -100 -105 -100c-55 0 -100 43 -100 100zM98 750c0 226 191 322 401 322c248 0 384 -136 384 -318h-184c-6 76 -55 167 -206 167c-118 0 -200 -56 -200 -152c0 -122 146 -137 264 -158
c197 -35 354 -94 354 -296c0 -211 -168 -333 -428 -333c-243 0 -404 117 -404 306h196c13 -90 86 -153 217 -153c157 0 222 70 222 156c0 114 -119 134 -264 162c-194 40 -352 90 -352 297zM629 1215h-163l190 279h208z" />
    <glyph glyph-name="Scarondotaccent" unicode="&#x1e66;" horiz-adv-x="1172" 
d="M491 1869c0 56 40 98 92 98c56 0 97 -42 97 -98c0 -54 -41 -92 -97 -92c-52 0 -92 38 -92 92zM60 375h203c12 -124 119 -228 319 -228c182 0 294 86 294 223c0 108 -70 167 -219 204l-230 58c-170 42 -328 146 -328 364c0 259 228 400 485 400c252 0 478 -135 483 -394
h-199c-11 122 -105 221 -287 221c-162 0 -275 -77 -275 -212c0 -92 62 -159 191 -190l228 -58c207 -52 359 -149 359 -376c0 -268 -221 -415 -520 -415c-372 0 -499 221 -504 403zM249 1729h177l155 -127h8l154 127h177l-275 -221h-119z" />
    <glyph glyph-name="scarondotaccent" unicode="&#x1e67;" horiz-adv-x="998" 
d="M390 1707c0 61 46 105 102 105c61 0 107 -44 107 -105c0 -59 -46 -102 -107 -102c-56 0 -102 43 -102 102zM223 1497h159l117 -186h4l108 187h162l-205 -299h-133zM98 750c0 226 191 322 401 322c248 0 384 -136 384 -318h-184c-6 76 -55 167 -206 167
c-118 0 -200 -56 -200 -152c0 -122 146 -137 264 -158c197 -35 354 -94 354 -296c0 -211 -168 -333 -428 -333c-243 0 -404 117 -404 306h196c13 -90 86 -153 217 -153c157 0 222 70 222 156c0 114 -119 134 -264 162c-194 40 -352 90 -352 297z" />
    <glyph glyph-name="Sdotbelowdotaccent" unicode="&#x1e68;" horiz-adv-x="1172" 
d="M454 -271c0 66 50 115 112 115c66 0 116 -49 116 -115c0 -64 -50 -112 -116 -112c-62 0 -112 48 -112 112zM60 375h203c12 -124 119 -228 319 -228c182 0 294 86 294 223c0 108 -70 167 -219 204l-230 58c-170 42 -328 146 -328 364c0 259 228 400 485 400
c252 0 478 -135 483 -394h-199c-11 122 -105 221 -287 221c-162 0 -275 -77 -275 -212c0 -92 62 -159 191 -190l228 -58c207 -52 359 -149 359 -376c0 -268 -221 -415 -520 -415c-372 0 -499 221 -504 403zM477 1605c0 63 47 110 107 110c63 0 111 -47 111 -110
c0 -62 -48 -107 -111 -107c-60 0 -107 45 -107 107z" />
    <glyph glyph-name="sdotbelowdotaccent" unicode="&#x1e69;" horiz-adv-x="998" 
d="M388 -271c0 66 50 115 112 115c66 0 116 -49 116 -115c0 -64 -50 -112 -116 -112c-62 0 -112 48 -112 112zM98 750c0 226 191 322 401 322c248 0 384 -136 384 -318h-184c-6 76 -55 167 -206 167c-118 0 -200 -56 -200 -152c0 -122 146 -137 264 -158
c197 -35 354 -94 354 -296c0 -211 -168 -333 -428 -333c-243 0 -404 117 -404 306h196c13 -90 86 -153 217 -153c157 0 222 70 222 156c0 114 -119 134 -264 162c-194 40 -352 90 -352 297zM392 1294c0 63 47 110 107 110c63 0 111 -47 111 -110c0 -62 -48 -107 -111 -107
c-60 0 -107 45 -107 107z" />
    <glyph glyph-name="Tdotaccent" unicode="&#x1e6a;" horiz-adv-x="1054" 
d="M420 1605c0 63 47 110 107 110c63 0 111 -47 111 -110c0 -62 -48 -107 -111 -107c-60 0 -107 45 -107 107zM629 0h-204v1186h-407v179h1018v-179h-407v-1186z" />
    <glyph glyph-name="tdotaccent" unicode="&#x1e6b;" horiz-adv-x="683" 
d="M203 1544c0 63 47 110 107 110c63 0 111 -47 111 -110c0 -62 -48 -107 -111 -107c-60 0 -107 45 -107 107zM202 1050v264h199v-264h207v-163h-207v-581c0 -120 42 -152 165 -152c19 0 35 1 48 2v-157c-17 -3 -56 -7 -98 -7c-253 0 -316 94 -316 304v591h-145v163h147z
" />
    <glyph glyph-name="Tdotbelow" unicode="&#x1e6c;" horiz-adv-x="1054" 
d="M416 -271c0 66 50 115 112 115c66 0 116 -49 116 -115c0 -64 -50 -112 -116 -112c-62 0 -112 48 -112 112zM629 0h-204v1186h-407v179h1018v-179h-407v-1186z" />
    <glyph glyph-name="tdotbelow" unicode="&#x1e6d;" horiz-adv-x="683" 
d="M306 -271c0 66 50 115 112 115c66 0 116 -49 116 -115c0 -64 -50 -112 -116 -112c-62 0 -112 48 -112 112zM202 1050v264h199v-264h207v-163h-207v-581c0 -120 42 -152 165 -152c19 0 35 1 48 2v-157c-17 -3 -56 -7 -98 -7c-253 0 -316 94 -316 304v591h-145v163h147z
" />
    <glyph glyph-name="Tlinebelow" unicode="&#x1e6e;" horiz-adv-x="1054" 
d="M805 -327h-558v118h558v-118zM629 0h-204v1186h-407v179h1018v-179h-407v-1186z" />
    <glyph glyph-name="tlinebelow" unicode="&#x1e6f;" horiz-adv-x="683" 
d="M695 -327h-558v118h558v-118zM202 1050v264h199v-264h207v-163h-207v-581c0 -120 42 -152 165 -152c19 0 35 1 48 2v-157c-17 -3 -56 -7 -98 -7c-253 0 -316 94 -316 304v591h-145v163h147z" />
    <glyph glyph-name="Tcircumflexbelow" unicode="&#x1e70;" horiz-adv-x="1054" 
d="M629 0h-204v1186h-407v179h1018v-179h-407v-1186zM248 -403l212 291h133l205 -292h-162l-108 181h-5l-116 -180h-159z" />
    <glyph glyph-name="tcircumflexbelow" unicode="&#x1e71;" horiz-adv-x="683" 
d="M202 1050v264h199v-264h207v-163h-207v-581c0 -120 42 -152 165 -152c19 0 35 1 48 2v-157c-17 -3 -56 -7 -98 -7c-253 0 -316 94 -316 304v591h-145v163h147zM138 -403l212 291h133l205 -292h-162l-108 181h-5l-116 -180h-159z" />
    <glyph glyph-name="Udieresisbelow" unicode="&#x1e72;" horiz-adv-x="1341" 
d="M348 1365v-881c0 -205 125 -331 322 -331c196 0 324 127 324 331v881h205v-891c0 -302 -212 -502 -529 -502c-316 0 -528 203 -528 505v888h206zM385 -312c0 61 43 103 101 103c60 0 102 -42 102 -103c0 -58 -42 -101 -102 -101c-58 0 -101 43 -101 101zM748 -312
c0 61 42 103 100 103c61 0 103 -42 103 -103c0 -58 -42 -101 -103 -101c-58 0 -100 43 -100 101z" />
    <glyph glyph-name="udieresisbelow" unicode="&#x1e73;" horiz-adv-x="1166" 
d="M1020 1054v-1054h-199v143h-9c-36 -83 -134 -160 -304 -160c-218 0 -370 125 -370 369v702h203v-646c0 -190 108 -247 235 -247c141 0 241 89 241 250v643h203zM297 -312c0 61 43 103 101 103c60 0 102 -42 102 -103c0 -58 -42 -101 -102 -101c-58 0 -101 43 -101 101z
M660 -312c0 61 42 103 100 103c61 0 103 -42 103 -103c0 -58 -42 -101 -103 -101c-58 0 -100 43 -100 101z" />
    <glyph glyph-name="Utildebelow" unicode="&#x1e74;" horiz-adv-x="1341" 
d="M639 -292c-24 24 -47 53 -81 53c-54 0 -63 -55 -65 -98h-120c0 107 54 213 175 213c63 0 103 -26 147 -70c27 -27 45 -54 80 -54c48 0 64 64 68 107h119c0 -105 -67 -215 -176 -215c-77 0 -113 28 -147 64zM348 1365v-881c0 -205 125 -331 322 -331
c196 0 324 127 324 331v881h205v-891c0 -302 -212 -502 -529 -502c-316 0 -528 203 -528 505v888h206z" />
    <glyph glyph-name="utildebelow" unicode="&#x1e75;" horiz-adv-x="1166" 
d="M551 -292c-24 24 -47 53 -81 53c-54 0 -63 -55 -65 -98h-120c0 107 54 213 175 213c63 0 103 -26 147 -70c27 -27 45 -54 80 -54c48 0 64 64 68 107h119c0 -105 -67 -215 -176 -215c-77 0 -113 28 -147 64zM1020 1054v-1054h-199v143h-9c-36 -83 -134 -160 -304 -160
c-218 0 -370 125 -370 369v702h203v-646c0 -190 108 -247 235 -247c141 0 241 89 241 250v643h203z" />
    <glyph glyph-name="Ucircumflexbelow" unicode="&#x1e76;" horiz-adv-x="1341" 
d="M348 1365v-881c0 -205 125 -331 322 -331c196 0 324 127 324 331v881h205v-891c0 -302 -212 -502 -529 -502c-316 0 -528 203 -528 505v888h206zM392 -403l212 291h133l205 -292h-162l-108 181h-5l-116 -180h-159z" />
    <glyph glyph-name="ucircumflexbelow" unicode="&#x1e77;" horiz-adv-x="1166" 
d="M1020 1054v-1054h-199v143h-9c-36 -83 -134 -160 -304 -160c-218 0 -370 125 -370 369v702h203v-646c0 -190 108 -247 235 -247c141 0 241 89 241 250v643h203zM304 -403l212 291h133l205 -292h-162l-108 181h-5l-116 -180h-159z" />
    <glyph glyph-name="Utildeacute" unicode="&#x1e78;" horiz-adv-x="1341" 
d="M554 1738l255 206h219l-296 -206h-178zM348 1365v-881c0 -205 125 -331 322 -331c196 0 324 127 324 331v881h205v-891c0 -302 -212 -502 -529 -502c-316 0 -528 203 -528 505v888h206zM646 1538c-22 22 -45 49 -78 49c-52 0 -62 -50 -64 -91h-116c0 100 52 199 170 199
c61 0 99 -25 142 -66c27 -24 44 -49 78 -49c46 0 63 59 66 99h116c0 -98 -65 -200 -171 -200c-75 0 -109 26 -143 59z" />
    <glyph glyph-name="utildeacute" unicode="&#x1e79;" horiz-adv-x="1166" 
d="M1020 1054v-1054h-199v143h-9c-36 -83 -134 -160 -304 -160c-218 0 -370 125 -370 369v702h203v-646c0 -190 108 -247 235 -247c141 0 241 89 241 250v643h203zM636 1481h-163l190 279h208zM549 1225c-23 24 -47 52 -82 52c-55 0 -65 -56 -68 -101h-124
c0 119 55 232 185 232c60 0 102 -27 148 -74c27 -27 45 -54 81 -54c49 0 66 66 69 110h124c0 -113 -70 -232 -186 -232c-75 0 -113 30 -147 67z" />
    <glyph glyph-name="Umacrondieresis" unicode="&#x1e7a;" horiz-adv-x="1341" 
d="M427 1844c0 53 38 91 90 91c53 0 90 -38 90 -91c0 -51 -37 -90 -90 -90c-52 0 -90 39 -90 90zM736 1844c0 53 37 91 89 91c54 0 90 -38 90 -91c0 -51 -36 -90 -90 -90c-52 0 -89 39 -89 90zM348 1365v-881c0 -205 125 -331 322 -331c196 0 324 127 324 331v881h205v-891
c0 -302 -212 -502 -529 -502c-316 0 -528 203 -528 505v888h206zM949 1525h-558v110h558v-110z" />
    <glyph glyph-name="umacrondieresis" unicode="&#x1e7b;" horiz-adv-x="1166" 
d="M1020 1054v-1054h-199v143h-9c-36 -83 -134 -160 -304 -160c-218 0 -370 125 -370 369v702h203v-646c0 -190 108 -247 235 -247c141 0 241 89 241 250v643h203zM861 1214h-558v118h558v-118zM300 1547c0 61 43 103 101 103c60 0 102 -42 102 -103
c0 -58 -42 -101 -102 -101c-58 0 -101 43 -101 101zM663 1547c0 61 42 103 100 103c61 0 103 -42 103 -103c0 -58 -42 -101 -103 -101c-58 0 -100 43 -100 101z" />
    <glyph glyph-name="Vtilde" unicode="&#x1e7c;" horiz-adv-x="1214" 
d="M582 1538c-22 22 -45 49 -78 49c-52 0 -62 -50 -64 -91h-116c0 100 52 199 170 199c61 0 99 -25 142 -66c27 -24 44 -49 78 -49c46 0 63 59 66 99h116c0 -98 -65 -200 -171 -200c-75 0 -109 26 -143 59zM721 0h-227l-480 1365h236l357 -1114h8l354 1114h231z" />
    <glyph glyph-name="vtilde" unicode="&#x1e7d;" horiz-adv-x="1002" 
d="M467 1225c-23 24 -47 52 -82 52c-55 0 -65 -56 -68 -101h-124c0 119 55 232 185 232c60 0 102 -27 148 -74c27 -27 45 -54 81 -54c49 0 66 66 69 110h124c0 -113 -70 -232 -186 -232c-75 0 -113 30 -147 67zM388 0l-366 1054h222l247 -853h8l267 853h214l-378 -1054h-214
z" />
    <glyph glyph-name="Vdotbelow" unicode="&#x1e7e;" horiz-adv-x="1214" 
d="M496 -271c0 66 50 115 112 115c66 0 116 -49 116 -115c0 -64 -50 -112 -116 -112c-62 0 -112 48 -112 112zM721 0h-227l-480 1365h236l357 -1114h8l354 1114h231z" />
    <glyph glyph-name="vdotbelow" unicode="&#x1e7f;" horiz-adv-x="1002" 
d="M390 -271c0 66 50 115 112 115c66 0 116 -49 116 -115c0 -64 -50 -112 -116 -112c-62 0 -112 48 -112 112zM388 0l-366 1054h222l247 -853h8l267 853h214l-378 -1054h-214z" />
    <glyph glyph-name="Wgrave" unicode="&#x1e80;" horiz-adv-x="1698" 
d="M964 1510h-175l-292 203h215zM569 0h-187l-371 1365h233l238 -1037h7l261 1037h198l260 -1037h8l238 1037h232l-371 -1365h-187l-276 1030h-7z" />
    <glyph glyph-name="wgrave" unicode="&#x1e81;" horiz-adv-x="1493" 
d="M854 1217h-164l-237 277h208zM1465 1054l-279 -1054h-203l-229 792h-5l-224 -792h-205l-292 1054h221l177 -815h9l221 815h190l228 -815h8l182 815h201z" />
    <glyph glyph-name="Wacute" unicode="&#x1e82;" horiz-adv-x="1698" 
d="M732 1510l255 206h219l-296 -206h-178zM569 0h-187l-371 1365h233l238 -1037h7l261 1037h198l260 -1037h8l238 1037h232l-371 -1365h-187l-276 1030h-7z" />
    <glyph glyph-name="wacute" unicode="&#x1e83;" horiz-adv-x="1493" 
d="M800 1215h-163l190 279h208zM1465 1054l-279 -1054h-203l-229 792h-5l-224 -792h-205l-292 1054h221l177 -815h9l221 815h190l228 -815h8l182 815h201z" />
    <glyph glyph-name="Wdieresis" unicode="&#x1e84;" horiz-adv-x="1698" 
d="M628 1583c0 53 38 91 90 91c53 0 90 -38 90 -91c0 -51 -37 -90 -90 -90c-52 0 -90 39 -90 90zM937 1583c0 53 37 91 89 91c54 0 90 -38 90 -91c0 -51 -36 -90 -90 -90c-52 0 -89 39 -89 90zM569 0h-187l-371 1365h233l238 -1037h7l261 1037h198l260 -1037h8l238 1037h232
l-371 -1365h-187l-276 1030h-7z" />
    <glyph glyph-name="wdieresis" unicode="&#x1e85;" horiz-adv-x="1493" 
d="M464 1263c0 61 43 103 101 103c60 0 102 -42 102 -103c0 -58 -42 -101 -102 -101c-58 0 -101 43 -101 101zM827 1263c0 61 42 103 100 103c61 0 103 -42 103 -103c0 -58 -42 -101 -103 -101c-58 0 -100 43 -100 101zM1465 1054l-279 -1054h-203l-229 792h-5l-224 -792
h-205l-292 1054h221l177 -815h9l221 815h190l228 -815h8l182 815h201z" />
    <glyph glyph-name="Wdotaccent" unicode="&#x1e86;" horiz-adv-x="1698" 
d="M742 1605c0 63 47 110 107 110c63 0 111 -47 111 -110c0 -62 -48 -107 -111 -107c-60 0 -107 45 -107 107zM569 0h-187l-371 1365h233l238 -1037h7l261 1037h198l260 -1037h8l238 1037h232l-371 -1365h-187l-276 1030h-7z" />
    <glyph glyph-name="wdotaccent" unicode="&#x1e87;" horiz-adv-x="1493" 
d="M640 1294c0 63 47 110 107 110c63 0 111 -47 111 -110c0 -62 -48 -107 -111 -107c-60 0 -107 45 -107 107zM1465 1054l-279 -1054h-203l-229 792h-5l-224 -792h-205l-292 1054h221l177 -815h9l221 815h190l228 -815h8l182 815h201z" />
    <glyph glyph-name="Wdotbelow" unicode="&#x1e88;" horiz-adv-x="1698" 
d="M738 -271c0 66 50 115 112 115c66 0 116 -49 116 -115c0 -64 -50 -112 -116 -112c-62 0 -112 48 -112 112zM569 0h-187l-371 1365h233l238 -1037h7l261 1037h198l260 -1037h8l238 1037h232l-371 -1365h-187l-276 1030h-7z" />
    <glyph glyph-name="wdotbelow" unicode="&#x1e89;" horiz-adv-x="1493" 
d="M636 -271c0 66 50 115 112 115c66 0 116 -49 116 -115c0 -64 -50 -112 -116 -112c-62 0 -112 48 -112 112zM1465 1054l-279 -1054h-203l-229 792h-5l-224 -792h-205l-292 1054h221l177 -815h9l221 815h190l228 -815h8l182 815h201z" />
    <glyph glyph-name="Xdotaccent" unicode="&#x1e8a;" horiz-adv-x="1144" 
d="M1144 1365l-447 -688l439 -677h-243l-324 521h-11l-326 -521h-229l439 688l-433 677h245l324 -525h11l320 525h235zM465 1605c0 63 47 110 107 110c63 0 111 -47 111 -110c0 -62 -48 -107 -111 -107c-60 0 -107 45 -107 107z" />
    <glyph glyph-name="xdotaccent" unicode="&#x1e8b;" horiz-adv-x="1034" 
d="M752 0l-236 382h-8l-237 -382h-222l346 522l-351 532h238l230 -380h9l237 380h227l-354 -517l355 -537h-234zM410 1294c0 63 47 110 107 110c63 0 111 -47 111 -110c0 -62 -48 -107 -111 -107c-60 0 -107 45 -107 107z" />
    <glyph glyph-name="Xdieresis" unicode="&#x1e8c;" horiz-adv-x="1144" 
d="M1144 1365l-447 -688l439 -677h-243l-324 521h-11l-326 -521h-229l439 688l-433 677h245l324 -525h11l320 525h235zM350 1583c0 53 38 91 90 91c53 0 90 -38 90 -91c0 -51 -37 -90 -90 -90c-52 0 -90 39 -90 90zM659 1583c0 53 37 91 89 91c54 0 90 -38 90 -91
c0 -51 -36 -90 -90 -90c-52 0 -89 39 -89 90z" />
    <glyph glyph-name="xdieresis" unicode="&#x1e8d;" horiz-adv-x="1034" 
d="M752 0l-236 382h-8l-237 -382h-222l346 522l-351 532h238l230 -380h9l237 380h227l-354 -517l355 -537h-234zM234 1263c0 61 43 103 101 103c60 0 102 -42 102 -103c0 -58 -42 -101 -102 -101c-58 0 -101 43 -101 101zM597 1263c0 61 42 103 100 103
c61 0 103 -42 103 -103c0 -58 -42 -101 -103 -101c-58 0 -100 43 -100 101z" />
    <glyph glyph-name="Ydotaccent" unicode="&#x1e8e;" horiz-adv-x="1108" 
d="M656 0h-205v565l-456 800h232l324 -597h7l327 597h228l-457 -797v-568zM448 1605c0 63 47 110 107 110c63 0 111 -47 111 -110c0 -62 -48 -107 -111 -107c-60 0 -107 45 -107 107z" />
    <glyph glyph-name="ydotaccent" unicode="&#x1e8f;" horiz-adv-x="1052" 
d="M1009 1054c0 0 -365 -1044 -366 -1048l-27 -73c-63 -167 -145 -315 -381 -315c-44 0 -93 5 -119 9v157c16 -3 55 -5 80 -5c127 0 177 58 202 160l14 50l-381 1065h224l264 -864h9l266 864h215zM419 1294c0 63 47 110 107 110c63 0 111 -47 111 -110
c0 -62 -48 -107 -111 -107c-60 0 -107 45 -107 107z" />
    <glyph glyph-name="Zcircumflex" unicode="&#x1e90;" horiz-adv-x="1156" 
d="M83 0v141l708 1041v6h-685v177h937v-139l-703 -1042v-6h721v-178h-978zM246 1507l277 238h119l274 -238h-176l-155 140h-8l-155 -140h-176z" />
    <glyph glyph-name="zcircumflex" unicode="&#x1e91;" horiz-adv-x="977" 
d="M208 1217l213 298h133l204 -300h-162l-108 187h-4l-116 -185h-160zM92 0v128l544 755v11h-544v160h792v-133l-537 -749v-10h545v-162h-800z" />
    <glyph glyph-name="Zdotbelow" unicode="&#x1e92;" horiz-adv-x="1156" 
d="M467 -271c0 66 50 115 112 115c66 0 116 -49 116 -115c0 -64 -50 -112 -116 -112c-62 0 -112 48 -112 112zM83 0v141l708 1041v6h-685v177h937v-139l-703 -1042v-6h721v-178h-978z" />
    <glyph glyph-name="zdotbelow" unicode="&#x1e93;" horiz-adv-x="977" 
d="M378 -271c0 66 50 115 112 115c66 0 116 -49 116 -115c0 -64 -50 -112 -116 -112c-62 0 -112 48 -112 112zM92 0v128l544 755v11h-544v160h792v-133l-537 -749v-10h545v-162h-800z" />
    <glyph glyph-name="Zlinebelow" unicode="&#x1e94;" horiz-adv-x="1156" 
d="M83 0v141l708 1041v6h-685v177h937v-139l-703 -1042v-6h721v-178h-978zM856 -327h-558v118h558v-118z" />
    <glyph glyph-name="zlinebelow" unicode="&#x1e95;" horiz-adv-x="977" 
d="M767 -327h-558v118h558v-118zM92 0v128l544 755v11h-544v160h792v-133l-537 -749v-10h545v-162h-800z" />
    <glyph glyph-name="hlinebelow" unicode="&#x1e96;" horiz-adv-x="1177" 
d="M149 0v1437h202v-526h8c30 69 120 160 293 160c233 0 385 -166 385 -410v-661h-202v617c0 168 -84 276 -237 276s-247 -99 -247 -276v-617h-202zM861 -327h-558v118h558v-118z" />
    <glyph glyph-name="tdieresis" unicode="&#x1e97;" horiz-adv-x="683" 
d="M202 1050v264h199v-264h207v-163h-207v-581c0 -120 42 -152 165 -152c19 0 35 1 48 2v-157c-17 -3 -56 -7 -98 -7c-253 0 -316 94 -316 304v591h-145v163h147zM27 1513c0 61 43 103 101 103c60 0 102 -42 102 -103c0 -58 -42 -101 -102 -101c-58 0 -101 43 -101 101z
M390 1513c0 61 42 103 100 103c61 0 103 -42 103 -103c0 -58 -42 -101 -103 -101c-58 0 -100 43 -100 101z" />
    <glyph glyph-name="wring" unicode="&#x1e98;" horiz-adv-x="1493" 
d="M1465 1054l-279 -1054h-203l-229 792h-5l-224 -792h-205l-292 1054h221l177 -815h9l221 815h190l228 -815h8l182 815h201zM745 1192c-111 0 -198 82 -198 193c0 110 87 192 198 192c110 0 197 -82 197 -192c0 -111 -87 -193 -197 -193zM645 1384c0 -56 43 -100 100 -100
c56 0 98 44 98 100c0 57 -42 100 -98 100c-57 0 -100 -43 -100 -100z" />
    <glyph glyph-name="yring" unicode="&#x1e99;" horiz-adv-x="1052" 
d="M1009 1054c0 0 -365 -1044 -366 -1048l-27 -73c-63 -167 -145 -315 -381 -315c-44 0 -93 5 -119 9v157c16 -3 55 -5 80 -5c127 0 177 58 202 160l14 50l-381 1065h224l264 -864h9l266 864h215zM524 1192c-111 0 -198 82 -198 193c0 110 87 192 198 192
c110 0 197 -82 197 -192c0 -111 -87 -193 -197 -193zM424 1384c0 -56 43 -100 100 -100c56 0 98 44 98 100c0 57 -42 100 -98 100c-57 0 -100 -43 -100 -100z" />
    <glyph glyph-name="Adotbelow" unicode="&#x1ea0;" horiz-adv-x="1218" 
d="M230 0h-209l476 1365h223l476 -1365h-221l-127 391h-490zM607 1141h-7l-193 -590h392zM499 -271c0 66 50 115 112 115c66 0 116 -49 116 -115c0 -64 -50 -112 -116 -112c-62 0 -112 48 -112 112z" />
    <glyph glyph-name="adotbelow" unicode="&#x1ea1;" horiz-adv-x="1072" 
d="M733 138c-49 -82 -145 -155 -301 -155c-204 0 -344 124 -344 319c0 186 129 309 371 309h271v118c0 123 -73 175 -204 175c-134 0 -195 -62 -205 -158h-194c9 185 129 325 407 325c239 0 398 -100 398 -344v-727h-192v138h-7zM491 143c136 0 239 92 239 214v111h-243
c-135 0 -195 -65 -195 -156c0 -116 96 -169 199 -169zM425 -271c0 66 50 115 112 115c66 0 116 -49 116 -115c0 -64 -50 -112 -116 -112c-62 0 -112 48 -112 112z" />
    <glyph glyph-name="Ahookabove" unicode="&#x1ea2;" horiz-adv-x="1218" 
d="M230 0h-209l476 1365h223l476 -1365h-221l-127 391h-490zM607 1141h-7l-193 -590h392zM476 1659v99c17 6 57 15 103 15c116 0 204 -54 204 -154c0 -101 -96 -145 -145 -164l-69 84c39 10 88 35 88 72c0 46 -47 59 -90 59c-41 0 -70 -5 -91 -11z" />
    <glyph glyph-name="ahookabove" unicode="&#x1ea3;" horiz-adv-x="1072" 
d="M733 138c-49 -82 -145 -155 -301 -155c-204 0 -344 124 -344 319c0 186 129 309 371 309h271v118c0 123 -73 175 -204 175c-134 0 -195 -62 -205 -158h-194c9 185 129 325 407 325c239 0 398 -100 398 -344v-727h-192v138h-7zM491 143c136 0 239 92 239 214v111h-243
c-135 0 -195 -65 -195 -156c0 -116 96 -169 199 -169zM401 1437v110c24 10 63 18 111 18c135 0 221 -69 221 -186c0 -107 -75 -161 -162 -208l-68 90c72 40 98 70 98 110c0 49 -43 82 -103 82c-40 0 -76 -8 -97 -16z" />
    <glyph glyph-name="Acircumflexacute" unicode="&#x1ea4;" horiz-adv-x="1218" 
d="M230 0h-209l476 1365h223l476 -1365h-221l-127 391h-490zM607 1141h-7l-193 -590h392zM275 1517l274 237h120l276 -237h-176l-156 139h-8l-153 -139h-177zM811 1699l184 212h186l-255 -231z" />
    <glyph glyph-name="acircumflexacute" unicode="&#x1ea5;" horiz-adv-x="1072" 
d="M733 138c-49 -82 -145 -155 -301 -155c-204 0 -344 124 -344 319c0 186 129 309 371 309h271v118c0 123 -73 175 -204 175c-134 0 -195 -62 -205 -158h-194c9 185 129 325 407 325c239 0 398 -100 398 -344v-727h-192v138h-7zM491 143c136 0 239 92 239 214v111h-243
c-135 0 -195 -65 -195 -156c0 -116 96 -169 199 -169zM201 1206l274 237h120l276 -237h-176l-156 139h-8l-153 -139h-177zM737 1388l184 212h186l-255 -231z" />
    <glyph glyph-name="Acircumflexgrave" unicode="&#x1ea6;" horiz-adv-x="1218" 
d="M230 0h-209l476 1365h223l476 -1365h-221l-127 391h-490zM607 1141h-7l-193 -590h392zM1072 1680h-136l-262 231h184zM945 1517h-176l-156 139h-8l-153 -139h-177l274 237h120z" />
    <glyph glyph-name="acircumflexgrave" unicode="&#x1ea7;" horiz-adv-x="1072" 
d="M733 138c-49 -82 -145 -155 -301 -155c-204 0 -344 124 -344 319c0 186 129 309 371 309h271v118c0 123 -73 175 -204 175c-134 0 -195 -62 -205 -158h-194c9 185 129 325 407 325c239 0 398 -100 398 -344v-727h-192v138h-7zM491 143c136 0 239 92 239 214v111h-243
c-135 0 -195 -65 -195 -156c0 -116 96 -169 199 -169zM998 1369h-136l-262 231h184zM871 1206h-176l-156 139h-8l-153 -139h-177l274 237h120z" />
    <glyph glyph-name="Acircumflexhookabove" unicode="&#x1ea8;" horiz-adv-x="1218" 
d="M230 0h-209l476 1365h223l476 -1365h-221l-127 391h-490zM607 1141h-7l-193 -590h392zM274 1509l274 221h120l276 -221h-176l-156 127h-8l-153 -127h-177zM748 1937c18 4 54 7 85 7c105 0 173 -48 173 -135c0 -67 -51 -119 -106 -150l-62 66c28 19 49 39 49 68
c0 37 -34 57 -80 57c-17 0 -40 -1 -59 -4v91z" />
    <glyph glyph-name="acircumflexhookabove" unicode="&#x1ea9;" horiz-adv-x="1072" 
d="M733 138c-49 -82 -145 -155 -301 -155c-204 0 -344 124 -344 319c0 186 129 309 371 309h271v118c0 123 -73 175 -204 175c-134 0 -195 -62 -205 -158h-194c9 185 129 325 407 325c239 0 398 -100 398 -344v-727h-192v138h-7zM491 143c136 0 239 92 239 214v111h-243
c-135 0 -195 -65 -195 -156c0 -116 96 -169 199 -169zM200 1198l274 221h120l276 -221h-176l-156 127h-8l-153 -127h-177zM674 1626c18 4 54 7 85 7c105 0 173 -48 173 -135c0 -67 -51 -119 -106 -150l-62 66c28 19 49 39 49 68c0 37 -34 57 -80 57c-17 0 -40 -1 -59 -4v91z
" />
    <glyph glyph-name="Acircumflextilde" unicode="&#x1eaa;" horiz-adv-x="1218" 
d="M230 0h-209l476 1365h223l476 -1365h-221l-127 391h-490zM607 1141h-7l-193 -590h392zM278 1505l274 232h119l277 -232h-177l-155 138h-9l-153 -138h-176zM436 1801h-122c0 92 56 193 179 193c64 0 103 -24 149 -64c27 -24 48 -48 83 -48c48 0 65 59 69 99h121
c0 -104 -69 -196 -179 -196c-79 0 -114 26 -149 58c-23 22 -49 48 -85 48c-54 0 -64 -51 -66 -90z" />
    <glyph glyph-name="acircumflextilde" unicode="&#x1eab;" horiz-adv-x="1072" 
d="M733 138c-49 -82 -145 -155 -301 -155c-204 0 -344 124 -344 319c0 186 129 309 371 309h271v118c0 123 -73 175 -204 175c-134 0 -195 -62 -205 -158h-194c9 185 129 325 407 325c239 0 398 -100 398 -344v-727h-192v138h-7zM491 143c136 0 239 92 239 214v111h-243
c-135 0 -195 -65 -195 -156c0 -116 96 -169 199 -169zM204 1194l274 232h119l277 -232h-177l-155 138h-9l-153 -138h-176zM362 1490h-122c0 92 56 193 179 193c64 0 103 -24 149 -64c27 -24 48 -48 83 -48c48 0 65 59 69 99h121c0 -104 -69 -196 -179 -196
c-79 0 -114 26 -149 58c-23 22 -49 48 -85 48c-54 0 -64 -51 -66 -90z" />
    <glyph glyph-name="Acircumflexdotbelow" unicode="&#x1eac;" horiz-adv-x="1218" 
d="M230 0h-209l476 1365h223l476 -1365h-221l-127 391h-490zM607 1141h-7l-193 -590h392zM499 -271c0 66 50 115 112 115c66 0 116 -49 116 -115c0 -64 -50 -112 -116 -112c-62 0 -112 48 -112 112zM277 1507l277 238h119l274 -238h-176l-155 140h-8l-155 -140h-176z" />
    <glyph glyph-name="acircumflexdotbelow" unicode="&#x1ead;" horiz-adv-x="1072" 
d="M733 138c-49 -82 -145 -155 -301 -155c-204 0 -344 124 -344 319c0 186 129 309 371 309h271v118c0 123 -73 175 -204 175c-134 0 -195 -62 -205 -158h-194c9 185 129 325 407 325c239 0 398 -100 398 -344v-727h-192v138h-7zM491 143c136 0 239 92 239 214v111h-243
c-135 0 -195 -65 -195 -156c0 -116 96 -169 199 -169zM255 1217l213 298h133l204 -300h-162l-108 187h-4l-116 -185h-160zM425 -271c0 66 50 115 112 115c66 0 116 -49 116 -115c0 -64 -50 -112 -116 -112c-62 0 -112 48 -112 112z" />
    <glyph glyph-name="Abreveacute" unicode="&#x1eae;" horiz-adv-x="1218" 
d="M230 0h-209l476 1365h223l476 -1365h-221l-127 391h-490zM607 1141h-7l-193 -590h392zM895 1715c0 -118 -88 -236 -286 -236s-291 116 -291 236h128c1 -67 57 -123 163 -123s165 54 165 123h121zM507 1723l249 242h180l-270 -242h-159z" />
    <glyph glyph-name="abreveacute" unicode="&#x1eaf;" horiz-adv-x="1072" 
d="M733 138c-49 -82 -145 -155 -301 -155c-204 0 -344 124 -344 319c0 186 129 309 371 309h271v118c0 123 -73 175 -204 175c-134 0 -195 -62 -205 -158h-194c9 185 129 325 407 325c239 0 398 -100 398 -344v-727h-192v138h-7zM491 143c136 0 239 92 239 214v111h-243
c-135 0 -195 -65 -195 -156c0 -116 96 -169 199 -169zM821 1404c0 -118 -88 -236 -286 -236s-291 116 -291 236h128c1 -67 57 -123 163 -123s165 54 165 123h121zM433 1412l249 242h180l-270 -242h-159z" />
    <glyph glyph-name="Abrevegrave" unicode="&#x1eb0;" horiz-adv-x="1218" 
d="M230 0h-209l476 1365h223l476 -1365h-221l-127 391h-490zM607 1141h-7l-193 -590h392zM894 1715c0 -118 -87 -236 -285 -236s-292 116 -292 236h129c0 -68 57 -123 163 -123s164 55 165 123h120zM726 1723h-160l-273 242h183z" />
    <glyph glyph-name="abrevegrave" unicode="&#x1eb1;" horiz-adv-x="1072" 
d="M733 138c-49 -82 -145 -155 -301 -155c-204 0 -344 124 -344 319c0 186 129 309 371 309h271v118c0 123 -73 175 -204 175c-134 0 -195 -62 -205 -158h-194c9 185 129 325 407 325c239 0 398 -100 398 -344v-727h-192v138h-7zM491 143c136 0 239 92 239 214v111h-243
c-135 0 -195 -65 -195 -156c0 -116 96 -169 199 -169zM820 1404c0 -118 -87 -236 -285 -236s-292 116 -292 236h129c0 -68 57 -123 163 -123s164 55 165 123h120zM652 1412h-160l-273 242h183z" />
    <glyph glyph-name="Abrevehookabove" unicode="&#x1eb2;" horiz-adv-x="1218" 
d="M230 0h-209l476 1365h223l476 -1365h-221l-127 391h-490zM607 1141h-7l-193 -590h392zM894 1706c0 -116 -87 -228 -285 -228c-194 0 -291 110 -291 229h128c0 -63 57 -120 163 -120s165 56 165 119h120zM452 1967c20 5 58 10 93 10c117 0 200 -49 200 -147
c0 -72 -76 -137 -126 -151l-75 74c27 8 70 33 70 66c0 38 -48 56 -97 56c-25 0 -44 -2 -65 -7v99z" />
    <glyph glyph-name="abrevehookabove" unicode="&#x1eb3;" horiz-adv-x="1072" 
d="M733 138c-49 -82 -145 -155 -301 -155c-204 0 -344 124 -344 319c0 186 129 309 371 309h271v118c0 123 -73 175 -204 175c-134 0 -195 -62 -205 -158h-194c9 185 129 325 407 325c239 0 398 -100 398 -344v-727h-192v138h-7zM491 143c136 0 239 92 239 214v111h-243
c-135 0 -195 -65 -195 -156c0 -116 96 -169 199 -169zM820 1395c0 -116 -87 -228 -285 -228c-194 0 -291 110 -291 229h128c0 -63 57 -120 163 -120s165 56 165 119h120zM378 1656c20 5 58 10 93 10c117 0 200 -49 200 -147c0 -72 -76 -137 -126 -151l-75 74
c27 8 70 33 70 66c0 38 -48 56 -97 56c-25 0 -44 -2 -65 -7v99z" />
    <glyph glyph-name="Abrevetilde" unicode="&#x1eb4;" horiz-adv-x="1218" 
d="M230 0h-209l476 1365h223l476 -1365h-221l-127 391h-490zM607 1141h-7l-193 -590h392zM895 1700c0 -115 -95 -226 -286 -226s-291 108 -291 226h128c0 -66 61 -119 163 -119s165 52 165 119h121zM582 1827c-22 23 -44 48 -81 48c-50 0 -62 -48 -65 -89h-124
c0 101 67 197 179 197c62 0 97 -20 141 -62c27 -26 45 -48 81 -48c45 0 64 56 67 97h122c0 -110 -71 -200 -178 -200c-75 0 -109 23 -142 57z" />
    <glyph glyph-name="abrevetilde" unicode="&#x1eb5;" horiz-adv-x="1072" 
d="M733 138c-49 -82 -145 -155 -301 -155c-204 0 -344 124 -344 319c0 186 129 309 371 309h271v118c0 123 -73 175 -204 175c-134 0 -195 -62 -205 -158h-194c9 185 129 325 407 325c239 0 398 -100 398 -344v-727h-192v138h-7zM491 143c136 0 239 92 239 214v111h-243
c-135 0 -195 -65 -195 -156c0 -116 96 -169 199 -169zM821 1389c0 -115 -95 -226 -286 -226s-291 108 -291 226h128c0 -66 61 -119 163 -119s165 52 165 119h121zM508 1516c-22 23 -44 48 -81 48c-50 0 -62 -48 -65 -89h-124c0 101 67 197 179 197c62 0 97 -20 141 -62
c27 -26 45 -48 81 -48c45 0 64 56 67 97h122c0 -110 -71 -200 -178 -200c-75 0 -109 23 -142 57z" />
    <glyph glyph-name="Abrevedotbelow" unicode="&#x1eb6;" horiz-adv-x="1218" 
d="M230 0h-209l476 1365h223l476 -1365h-221l-127 391h-490zM607 1141h-7l-193 -590h392zM499 -271c0 66 50 115 112 115c66 0 116 -49 116 -115c0 -64 -50 -112 -116 -112c-62 0 -112 48 -112 112zM287 1756h132c0 -78 72 -142 190 -142s190 64 190 142h132
c0 -135 -93 -267 -322 -267s-322 132 -322 267z" />
    <glyph glyph-name="abrevedotbelow" unicode="&#x1eb7;" horiz-adv-x="1072" 
d="M733 138c-49 -82 -145 -155 -301 -155c-204 0 -344 124 -344 319c0 186 129 309 371 309h271v118c0 123 -73 175 -204 175c-134 0 -195 -62 -205 -158h-194c9 185 129 325 407 325c239 0 398 -100 398 -344v-727h-192v138h-7zM491 143c136 0 239 92 239 214v111h-243
c-135 0 -195 -65 -195 -156c0 -116 96 -169 199 -169zM425 -271c0 66 50 115 112 115c66 0 116 -49 116 -115c0 -64 -50 -112 -116 -112c-62 0 -112 48 -112 112zM234 1446h132c0 -84 50 -164 166 -164s166 80 166 164h131c-1 -133 -91 -284 -297 -284
c-207 0 -299 151 -298 284z" />
    <glyph glyph-name="Edotbelow" unicode="&#x1eb8;" horiz-adv-x="1107" 
d="M461 -271c0 66 50 115 112 115c66 0 116 -49 116 -115c0 -64 -50 -112 -116 -112c-62 0 -112 48 -112 112zM996 177v-177h-838v1365h838v-177h-633v-408h597v-170h-597v-433h633z" />
    <glyph glyph-name="edotbelow" unicode="&#x1eb9;" horiz-adv-x="1075" 
d="M427 -271c0 66 50 115 112 115c66 0 116 -49 116 -115c0 -64 -50 -112 -116 -112c-62 0 -112 48 -112 112zM554 -18c-303 0 -459 200 -459 495v93c0 296 156 502 446 502c294 0 444 -206 444 -500v-92h-689v-30c0 -157 79 -301 257 -301c140 0 202 73 218 148h201
c-20 -137 -133 -315 -418 -315zM296 628h490v3c0 161 -91 278 -245 278c-153 0 -245 -118 -245 -278v-3z" />
    <glyph glyph-name="Ehookabove" unicode="&#x1eba;" horiz-adv-x="1107" 
d="M996 177v-177h-838v1365h838v-177h-633v-408h597v-170h-597v-433h633zM438 1659v99c17 6 57 15 103 15c116 0 204 -54 204 -154c0 -101 -96 -145 -145 -164l-69 84c39 10 88 35 88 72c0 46 -47 59 -90 59c-41 0 -70 -5 -91 -11z" />
    <glyph glyph-name="ehookabove" unicode="&#x1ebb;" horiz-adv-x="1075" 
d="M554 -18c-303 0 -459 200 -459 495v93c0 296 156 502 446 502c294 0 444 -206 444 -500v-92h-689v-30c0 -157 79 -301 257 -301c140 0 202 73 218 148h201c-20 -137 -133 -315 -418 -315zM296 628h490v3c0 161 -91 278 -245 278c-153 0 -245 -118 -245 -278v-3zM403 1437
v110c24 10 63 18 111 18c135 0 221 -69 221 -186c0 -107 -75 -161 -162 -208l-68 90c72 40 98 70 98 110c0 49 -43 82 -103 82c-40 0 -76 -8 -97 -16z" />
    <glyph glyph-name="Etilde" unicode="&#x1ebc;" horiz-adv-x="1107" 
d="M996 177v-177h-838v1365h838v-177h-633v-408h597v-170h-597v-433h633zM547 1538c-22 22 -45 49 -78 49c-52 0 -62 -50 -64 -91h-116c0 100 52 199 170 199c61 0 99 -25 142 -66c27 -24 44 -49 78 -49c46 0 63 59 66 99h116c0 -98 -65 -200 -171 -200
c-75 0 -109 26 -143 59z" />
    <glyph glyph-name="etilde" unicode="&#x1ebd;" horiz-adv-x="1075" 
d="M554 -18c-303 0 -459 200 -459 495v93c0 296 156 502 446 502c294 0 444 -206 444 -500v-92h-689v-30c0 -157 79 -301 257 -301c140 0 202 73 218 148h201c-20 -137 -133 -315 -418 -315zM296 628h490v3c0 161 -91 278 -245 278c-153 0 -245 -118 -245 -278v-3zM504 1225
c-23 24 -47 52 -82 52c-55 0 -65 -56 -68 -101h-124c0 119 55 232 185 232c60 0 102 -27 148 -74c27 -27 45 -54 81 -54c49 0 66 66 69 110h124c0 -113 -70 -232 -186 -232c-75 0 -113 30 -147 67z" />
    <glyph glyph-name="Ecircumflexacute" unicode="&#x1ebe;" horiz-adv-x="1107" 
d="M237 1517l274 237h120l276 -237h-176l-156 139h-8l-153 -139h-177zM773 1699l184 212h186l-255 -231zM996 177v-177h-838v1365h838v-177h-633v-408h597v-170h-597v-433h633z" />
    <glyph glyph-name="ecircumflexacute" unicode="&#x1ebf;" horiz-adv-x="1075" 
d="M203 1206l274 237h120l276 -237h-176l-156 139h-8l-153 -139h-177zM739 1388l184 212h186l-255 -231zM554 -18c-303 0 -459 200 -459 495v93c0 296 156 502 446 502c294 0 444 -206 444 -500v-92h-689v-30c0 -157 79 -301 257 -301c140 0 202 73 218 148h201
c-20 -137 -133 -315 -418 -315zM296 628h490v3c0 161 -91 278 -245 278c-153 0 -245 -118 -245 -278v-3z" />
    <glyph glyph-name="Ecircumflexgrave" unicode="&#x1ec0;" horiz-adv-x="1107" 
d="M1034 1680h-136l-262 231h184zM907 1517h-176l-156 139h-8l-153 -139h-177l274 237h120zM996 177v-177h-838v1365h838v-177h-633v-408h597v-170h-597v-433h633z" />
    <glyph glyph-name="ecircumflexgrave" unicode="&#x1ec1;" horiz-adv-x="1075" 
d="M1000 1369h-136l-262 231h184zM873 1206h-176l-156 139h-8l-153 -139h-177l274 237h120zM554 -18c-303 0 -459 200 -459 495v93c0 296 156 502 446 502c294 0 444 -206 444 -500v-92h-689v-30c0 -157 79 -301 257 -301c140 0 202 73 218 148h201
c-20 -137 -133 -315 -418 -315zM296 628h490v3c0 161 -91 278 -245 278c-153 0 -245 -118 -245 -278v-3z" />
    <glyph glyph-name="Ecircumflexhookabove" unicode="&#x1ec2;" horiz-adv-x="1107" 
d="M236 1509l274 221h120l276 -221h-176l-156 127h-8l-153 -127h-177zM710 1937c18 4 54 7 85 7c105 0 173 -48 173 -135c0 -67 -51 -119 -106 -150l-62 66c28 19 49 39 49 68c0 37 -34 57 -80 57c-17 0 -40 -1 -59 -4v91zM996 177v-177h-838v1365h838v-177h-633v-408h597
v-170h-597v-433h633z" />
    <glyph glyph-name="ecircumflexhookabove" unicode="&#x1ec3;" horiz-adv-x="1075" 
d="M202 1198l274 221h120l276 -221h-176l-156 127h-8l-153 -127h-177zM676 1626c18 4 54 7 85 7c105 0 173 -48 173 -135c0 -67 -51 -119 -106 -150l-62 66c28 19 49 39 49 68c0 37 -34 57 -80 57c-17 0 -40 -1 -59 -4v91zM554 -18c-303 0 -459 200 -459 495v93
c0 296 156 502 446 502c294 0 444 -206 444 -500v-92h-689v-30c0 -157 79 -301 257 -301c140 0 202 73 218 148h201c-20 -137 -133 -315 -418 -315zM296 628h490v3c0 161 -91 278 -245 278c-153 0 -245 -118 -245 -278v-3z" />
    <glyph glyph-name="Ecircumflextilde" unicode="&#x1ec4;" horiz-adv-x="1107" 
d="M996 177v-177h-838v1365h838v-177h-633v-408h597v-170h-597v-433h633zM240 1505l274 232h119l277 -232h-177l-155 138h-9l-153 -138h-176zM398 1801h-122c0 92 56 193 179 193c64 0 103 -24 149 -64c27 -24 48 -48 83 -48c48 0 65 59 69 99h121
c0 -104 -69 -196 -179 -196c-79 0 -114 26 -149 58c-23 22 -49 48 -85 48c-54 0 -64 -51 -66 -90z" />
    <glyph glyph-name="ecircumflextilde" unicode="&#x1ec5;" horiz-adv-x="1075" 
d="M554 -18c-303 0 -459 200 -459 495v93c0 296 156 502 446 502c294 0 444 -206 444 -500v-92h-689v-30c0 -157 79 -301 257 -301c140 0 202 73 218 148h201c-20 -137 -133 -315 -418 -315zM296 628h490v3c0 161 -91 278 -245 278c-153 0 -245 -118 -245 -278v-3zM206 1194
l274 232h119l277 -232h-177l-155 138h-9l-153 -138h-176zM364 1490h-122c0 92 56 193 179 193c64 0 103 -24 149 -64c27 -24 48 -48 83 -48c48 0 65 59 69 99h121c0 -104 -69 -196 -179 -196c-79 0 -114 26 -149 58c-23 22 -49 48 -85 48c-54 0 -64 -51 -66 -90z" />
    <glyph glyph-name="Ecircumflexdotbelow" unicode="&#x1ec6;" horiz-adv-x="1107" 
d="M461 -271c0 66 50 115 112 115c66 0 116 -49 116 -115c0 -64 -50 -112 -116 -112c-62 0 -112 48 -112 112zM239 1507l277 238h119l274 -238h-176l-155 140h-8l-155 -140h-176zM996 177v-177h-838v1365h838v-177h-633v-408h597v-170h-597v-433h633z" />
    <glyph glyph-name="ecircumflexdotbelow" unicode="&#x1ec7;" horiz-adv-x="1075" 
d="M257 1217l213 298h133l204 -300h-162l-108 187h-4l-116 -185h-160zM554 -18c-303 0 -459 200 -459 495v93c0 296 156 502 446 502c294 0 444 -206 444 -500v-92h-689v-30c0 -157 79 -301 257 -301c140 0 202 73 218 148h201c-20 -137 -133 -315 -418 -315zM296 628h490v3
c0 161 -91 278 -245 278c-153 0 -245 -118 -245 -278v-3zM427 -271c0 66 50 115 112 115c66 0 116 -49 116 -115c0 -64 -50 -112 -116 -112c-62 0 -112 48 -112 112z" />
    <glyph glyph-name="Ihookabove" unicode="&#x1ec8;" horiz-adv-x="521" 
d="M364 0h-206v1365h206v-1365zM127 1659v99c17 6 57 15 103 15c116 0 204 -54 204 -154c0 -101 -96 -145 -145 -164l-69 84c39 10 88 35 88 72c0 46 -47 59 -90 59c-41 0 -70 -5 -91 -11z" />
    <glyph glyph-name="ihookabove" unicode="&#x1ec9;" horiz-adv-x="540" 
d="M170 0v1054h205v-1054h-205zM137 1437v110c24 10 63 18 111 18c135 0 221 -69 221 -186c0 -107 -75 -161 -162 -208l-68 90c72 40 98 70 98 110c0 49 -43 82 -103 82c-40 0 -76 -8 -97 -16z" />
    <glyph glyph-name="Idotbelow" unicode="&#x1eca;" horiz-adv-x="521" 
d="M364 0h-206v1365h206v-1365zM150 -271c0 66 50 115 112 115c66 0 116 -49 116 -115c0 -64 -50 -112 -116 -112c-62 0 -112 48 -112 112z" />
    <glyph glyph-name="idotbelow" unicode="&#x1ecb;" horiz-adv-x="541" 
d="M170 0v1054h201v-1054h-201zM145 1312c0 67 53 116 124 116c75 0 127 -49 127 -116s-51 -117 -127 -117c-71 0 -124 50 -124 117zM160 -271c0 66 50 115 112 115c66 0 116 -49 116 -115c0 -64 -50 -112 -116 -112c-62 0 -112 48 -112 112z" />
    <glyph glyph-name="Odotbelow" unicode="&#x1ecc;" horiz-adv-x="1324" 
d="M551 -271c0 66 50 115 112 115c66 0 116 -49 116 -115c0 -64 -50 -112 -116 -112c-62 0 -112 48 -112 112zM310 774v-194c0 -292 151 -428 351 -428c201 0 352 136 352 428v194c0 291 -151 440 -352 440c-200 0 -351 -149 -351 -440zM103 580v192c0 388 218 621 560 621
c343 0 558 -233 558 -621v-192c0 -386 -219 -608 -561 -608c-343 0 -557 222 -557 608z" />
    </font>
</defs>
</svg>
